<?xml version="1.0" standalone="no"?>
<!DOCTYPE svg PUBLIC "-//W3C//DTD SVG 1.1//EN" "http://www.w3.org/Graphics/SVG/1.1/DTD/svg11.dtd" >
<svg xmlns="http://www.w3.org/2000/svg" xmlns:xlink="http://www.w3.org/1999/xlink" version="1.1">
<metadata>
Created by FontForge 20190801 at Mon Mar 30 15:38:19 2020
 By Jimmy Wärting
Copyright (c) 2020. All rights reserved. R-Flex Crafted with love by RerdSystems
</metadata>
<defs>
<font id="RFlexRegular" horiz-adv-x="790" >
  <font-face 
    font-family="R-Flex Regular"
    font-weight="300"
    font-stretch="normal"
    units-per-em="1000"
    panose-1="2 11 0 3 4 2 2 0 0 3"
    ascent="800"
    descent="-200"
    x-height="468"
    cap-height="648"
    bbox="-192 -323 1473 1080"
    underline-thickness="50"
    underline-position="-100"
    unicode-range="U+0020-FEFF"
  />
<missing-glyph horiz-adv-x="665" 
d="M83 648h499v-852h-499v852zM513 -145v733h-363v-733h363zM332 172l-66 -102h-69l101 156l-101 156h69l66 -103l67 103h69l-101 -156l101 -156h-69z" />
    <glyph glyph-name="uniFB00" unicode="ff" horiz-adv-x="701" 
d="M445 395h-242v-395h-85v395h-98v73h98v51q0 43 13 82t37.5 68t61 46t84.5 17q44 0 72.5 -10t53.5 -23l-35 -66q-20 11 -40.5 17t-51.5 6q-51 0 -80.5 -37t-29.5 -98v-53h242v51q0 43 13 82t37.5 68t60.5 46t83 17q26 0 46.5 -4t37.5 -11t31.5 -16.5t28.5 -19.5l-42 -61
q-22 16 -44 26t-59 10q-50 0 -79 -37t-29 -98v-53h177v-73h-177v-395h-85v395z" />
    <glyph glyph-name="uniFB01" unicode="fi" horiz-adv-x="615" 
d="M20 468h98v51q0 43 13 82t37.5 68t61 46t84.5 17q17 0 31.5 -1.5t26.5 -5.5l-14 -73q-9 2 -19 3t-26 1q-51 0 -80.5 -37t-29.5 -98v-53h327v-468h-85v395h-242v-395h-85v395h-98v73zM487 560q-26 0 -45 17.5t-19 46.5t19 46.5t45 17.5q25 0 44.5 -17.5t19.5 -46.5
t-19.5 -46.5t-44.5 -17.5z" />
    <glyph glyph-name="uniFB02" unicode="fl" horiz-adv-x="615" 
d="M20 468h98v51q0 43 13.5 82t38.5 68t61 46t81 17q33 0 49 -4t34 -9l-18 -73q-14 4 -26.5 7t-37.5 3q-28 0 -48.5 -10.5t-34 -29t-20.5 -43t-7 -52.5v-53h173v-73h-173v-395h-85v395h-98v73zM445 720h85v-720h-85v720z" />
    <glyph glyph-name="uniFB03" unicode="ffi" horiz-adv-x="942" 
d="M20 468h98v51q0 43 13 82t37.5 68t61 46t84.5 17q44 0 72.5 -10t53.5 -23l-35 -66q-20 11 -40.5 17t-51.5 6q-51 0 -80.5 -37t-29.5 -98v-53h242v51q0 43 13 82t37.5 68t61 46t84.5 17q17 0 31.5 -1.5t26.5 -5.5l-14 -73q-9 2 -19 3t-26 1q-51 0 -80.5 -37t-29.5 -98v-53
h327v-468h-85v395h-242v-395h-85v395h-242v-395h-85v395h-98v73zM814 560q-26 0 -45 17.5t-19 46.5t19 46.5t45 17.5q25 0 44.5 -17.5t19.5 -46.5t-19.5 -46.5t-44.5 -17.5z" />
    <glyph glyph-name="uniFB04" unicode="ffl" horiz-adv-x="942" 
d="M203 0h-85v395h-98v73h98v51q0 43 13 82t37.5 68t61 46t84.5 17q44 0 72.5 -10t53.5 -23l-35 -66q-20 11 -40.5 17t-51.5 6q-51 0 -80.5 -37t-29.5 -98v-53h242v51q0 43 13.5 82t38.5 68t61 46t81 17q33 0 49 -4t34 -9l-18 -73q-14 4 -26.5 7t-37.5 3q-28 0 -48.5 -10.5
t-34 -29t-20.5 -43t-7 -52.5v-53h173v-73h-173v-395h-85v395h-242v-395zM772 720h85v-720h-85v720z" />
    <glyph glyph-name="f_j" unicode="fj" horiz-adv-x="615" 
d="M20 468h98v51q0 43 13 82t37.5 68t61 46t84.5 17q17 0 31.5 -1.5t26.5 -5.5l-14 -73q-9 2 -19 3t-26 1q-51 0 -80.5 -37t-29.5 -98v-53h327v-515q0 -37 -11 -68t-32 -53.5t-50.5 -35t-66.5 -12.5q-35 0 -59.5 8.5t-43.5 22t-33 30t-26 33.5l57 43q8 -10 17 -21.5t21 -21
t27 -15.5t34 -6q38 0 60 21.5t22 64.5v452h-243v-395h-85v395h-98v73zM487 560q-26 0 -45 17.5t-19 46.5t19 46.5t45 17.5q25 0 44.5 -17.5t19.5 -46.5t-19.5 -46.5t-44.5 -17.5z" />
    <glyph glyph-name="f_b" unicode="fb" horiz-adv-x="935" 
d="M445 720h85v-317q12 14 27 28t33.5 25t41.5 17.5t51 6.5q46 0 85 -16.5t67.5 -48t44 -78t15.5 -105.5q0 -53 -15.5 -97.5t-43.5 -77t-67 -51t-87 -18.5q-29 0 -52 6.5t-41.5 16t-33 22t-25.5 24.5v-57h-85v720zM20 468h98v51q0 43 13.5 82t38.5 68t61 46t81 17
q33 0 49 -4t34 -9l-18 -73q-14 4 -26.5 7t-37.5 3q-28 0 -48.5 -10.5t-34 -29t-20.5 -43t-7 -52.5v-53h173v-73h-173v-395h-85v395h-98v73zM671 57q33 0 59 14t44 38t27.5 56.5t9.5 69.5q0 77 -38.5 125t-104.5 48q-33 0 -59 -13.5t-44 -36.5t-28 -55t-10 -68
q0 -48 12.5 -81.5t32.5 -55t46 -31.5t53 -10z" />
    <glyph glyph-name="f_h" unicode="fh" horiz-adv-x="926" 
d="M445 720h84v-329q10 17 23.5 33t31.5 28.5t40.5 20t51.5 7.5q37 0 67.5 -10.5t53 -31t35 -50.5t12.5 -69v-319h-84v297q0 55 -30 81t-75 26q-23 0 -45 -8.5t-39.5 -26.5t-29 -47t-12.5 -70v-252h-84v720zM20 468h98v51q0 43 13.5 82t38.5 68t61 46t81 17q33 0 49 -4
t34 -9l-18 -73q-14 4 -26.5 7t-37.5 3q-28 0 -48.5 -10.5t-34 -29t-20.5 -43t-7 -52.5v-53h173v-73h-173v-395h-85v395h-98v73z" />
    <glyph glyph-name="f_k" unicode="fk" horiz-adv-x="855" 
d="M529 235v-235h-84v720h84v-441l179 189h101l-195 -202l237 -266h-104zM20 468h98v51q0 43 13.5 82t38.5 68t61 46t81 17q33 0 49 -4t34 -9l-18 -73q-14 4 -26.5 7t-37.5 3q-28 0 -48.5 -10.5t-34 -29t-20.5 -43t-7 -52.5v-53h173v-73h-173v-395h-85v395h-98v73z" />
    <glyph glyph-name="f_t" unicode="ft" horiz-adv-x="752" 
d="M20 468h98v51q0 43 13.5 82t38.5 68t61 46t81 17q33 0 49 -4t34 -9l-18 -73q-14 4 -26.5 7t-37.5 3q-28 0 -48.5 -10.5t-34 -29t-20.5 -43t-7 -52.5v-53h235v178h83v-178h185v-73h-185v-210q0 -63 26 -91t72 -28q29 0 52.5 10.5t40.5 20.5l32 -62q-23 -16 -55.5 -31.5
t-79.5 -15.5q-43 0 -75 14.5t-53.5 39t-32 56.5t-10.5 67v230h-235v-395h-85v395h-98v73z" />
    <glyph glyph-name="f_f_j" unicode="ffj" horiz-adv-x="942" 
d="M20 468h98v51q0 43 13 82t37.5 68t61 46t84.5 17q44 0 72.5 -10t53.5 -23l-35 -66q-20 11 -40.5 17t-51.5 6q-51 0 -80.5 -37t-29.5 -98v-53h242v51q0 43 13 82t37.5 68t61 46t84.5 17q17 0 31.5 -1.5t26.5 -5.5l-14 -73q-9 2 -19 3t-26 1q-51 0 -80.5 -37t-29.5 -98v-53
h327v-515q0 -37 -11 -68t-32 -53.5t-50.5 -35t-66.5 -12.5q-35 0 -59.5 8.5t-43.5 22t-33 30t-26 33.5l57 43q8 -10 17 -21.5t21 -21t27 -15.5t34 -6q38 0 60 21.5t22 64.5v452h-243v-395h-85v395h-242v-395h-85v395h-98v73zM814 560q-26 0 -45 17.5t-19 46.5t19 46.5
t45 17.5q25 0 44.5 -17.5t19.5 -46.5t-19.5 -46.5t-44.5 -17.5z" />
    <glyph glyph-name="f_f_b" unicode="ffb" horiz-adv-x="1262" 
d="M772 720h85v-317q12 14 27 28t33.5 25t41.5 17.5t51 6.5q46 0 85 -16.5t67.5 -48t44 -78t15.5 -105.5q0 -53 -15.5 -97.5t-43.5 -77t-67 -51t-87 -18.5q-29 0 -52 6.5t-41.5 16t-33 22t-25.5 24.5v-57h-85v720zM20 468h98v51q0 43 13 82t37.5 68t61 46t84.5 17
q44 0 72.5 -10t53.5 -23l-35 -66q-20 11 -40.5 17t-51.5 6q-51 0 -80.5 -37t-29.5 -98v-53h242v51q0 43 13.5 82t38.5 68t61 46t81 17q33 0 49 -4t34 -9l-18 -73q-14 4 -26.5 7t-37.5 3q-28 0 -48.5 -10.5t-34 -29t-20.5 -43t-7 -52.5v-53h173v-73h-173v-395h-85v395h-242
v-395h-85v395h-98v73zM998 57q33 0 59 14t44 38t27.5 56.5t9.5 69.5q0 77 -38.5 125t-104.5 48q-33 0 -59 -13.5t-44 -36.5t-28 -55t-10 -68q0 -48 12.5 -81.5t32.5 -55t46 -31.5t53 -10z" />
    <glyph glyph-name="f_f_h" unicode="ffh" horiz-adv-x="1253" 
d="M20 468h98v51q0 43 13 82t37.5 68t61 46t84.5 17q44 0 72.5 -10t53.5 -23l-35 -66q-20 11 -40.5 17t-51.5 6q-51 0 -80.5 -37t-29.5 -98v-53h242v51q0 43 13.5 82t38.5 68t61 46t81 17q33 0 49 -4t34 -9l-18 -73q-14 4 -26.5 7t-37.5 3q-28 0 -48.5 -10.5t-34 -29
t-20.5 -43t-7 -52.5v-53h173v-73h-173v-395h-85v395h-242v-395h-85v395h-98v73zM772 720h84v-329q10 17 23.5 33t31.5 28.5t40.5 20t51.5 7.5q37 0 67.5 -10.5t53 -31t35 -50.5t12.5 -69v-319h-84v297q0 55 -30 81t-75 26q-23 0 -45.5 -9t-40.5 -28t-29 -49.5t-11 -73.5
v-244h-84v720z" />
    <glyph glyph-name="f_f_k" unicode="ffk" horiz-adv-x="1182" 
d="M20 468h98v51q0 43 13 82t37.5 68t61 46t84.5 17q44 0 72.5 -10t53.5 -23l-35 -66q-20 11 -40.5 17t-51.5 6q-51 0 -80.5 -37t-29.5 -98v-53h242v51q0 43 13.5 82t38.5 68t61 46t81 17q33 0 49 -4t34 -9l-18 -73q-14 4 -26.5 7t-37.5 3q-28 0 -48.5 -10.5t-34 -29
t-20.5 -43t-7 -52.5v-53h173v-73h-173v-395h-85v395h-242v-395h-85v395h-98v73zM856 235v-235h-84v720h84v-441l179 189h101l-195 -202l237 -266h-104z" />
    <glyph glyph-name="f_f_t" unicode="fft" horiz-adv-x="1079" 
d="M20 468h98v51q0 43 13 82t37.5 68t61 46t84.5 17q44 0 72.5 -10t53.5 -23l-35 -66q-20 11 -40.5 17t-51.5 6q-51 0 -80.5 -37t-29.5 -98v-53h242v51q0 43 13.5 82t38.5 68t61 46t81 17q33 0 49 -4t34 -9l-18 -73q-14 4 -26.5 7t-37.5 3q-28 0 -48.5 -10.5t-34 -29
t-20.5 -43t-7 -52.5v-53h235v178h83v-178h185v-73h-185v-210q0 -63 26 -91t72 -28q29 0 52.5 10.5t40.5 20.5l32 -62q-23 -16 -55.5 -31.5t-79.5 -15.5q-43 0 -75 14.5t-53.5 39t-32 56.5t-10.5 67v230h-235v-395h-85v395h-242v-395h-85v395h-98v73z" />
    <glyph glyph-name=".notdef" horiz-adv-x="665" 
d="M83 648h499v-852h-499v852zM513 -145v733h-363v-733h363zM332 172l-66 -102h-69l101 156l-101 156h69l66 -103l67 103h69l-101 -156l101 -156h-69z" />
    <glyph glyph-name=".null" horiz-adv-x="0" 
 />
    <glyph glyph-name="nonmarkingreturn" horiz-adv-x="242" 
 />
    <glyph glyph-name="space" unicode=" " horiz-adv-x="242" 
 />
    <glyph glyph-name="B" unicode="B" horiz-adv-x="554" 
d="M83 648h172q112 0 170 -45.5t58 -126.5q0 -47 -24.5 -83t-64.5 -58q57 -18 85.5 -57.5t28.5 -87.5q0 -36 -12.5 -70.5t-40.5 -61t-73 -42.5t-110 -16h-189v648zM168 294v-223h117q67 0 102.5 32t35.5 85q0 49 -35 77.5t-90 28.5h-130zM168 576v-215h97q35 0 60.5 9.5
t41.5 25t23.5 36t7.5 41.5q0 44 -36.5 73.5t-96.5 29.5h-97z" />
    <glyph glyph-name="C" unicode="C" horiz-adv-x="632" 
d="M600 77q-17 -11 -39 -26.5t-50.5 -29.5t-65.5 -23.5t-84 -9.5q-72 0 -131 25.5t-101.5 71t-65.5 107.5t-23 136q0 80 27.5 142t72.5 104t102.5 64t118.5 22q41 0 72.5 -6t56.5 -15t44 -20t35 -20l-39 -68q-28 17 -68 32.5t-101 15.5q-48 0 -90.5 -18.5t-73.5 -51.5
t-49 -79.5t-18 -101.5q0 -57 18.5 -104.5t51 -81.5t75.5 -53t92 -19q39 0 69 8t53.5 19.5t40 23.5t28.5 20z" />
    <glyph glyph-name="D" unicode="D" horiz-adv-x="665" 
d="M83 648h192q79 0 144 -24t110.5 -67t70.5 -101t25 -126q0 -64 -20.5 -123.5t-64 -105.5t-111.5 -73.5t-162 -27.5h-184v648zM168 572v-495h108q59 0 106.5 15t81 46t51.5 79t18 113q0 59 -20.5 104.5t-55 76t-80.5 46t-96 15.5h-113z" />
    <glyph glyph-name="E" unicode="E" horiz-adv-x="521" 
d="M83 648h380v-79h-295v-198h278v-76h-278v-216h295v-79h-380v648z" />
    <glyph glyph-name="F" unicode="F" horiz-adv-x="488" 
d="M83 648h360v-80h-275v-217h257v-72h-257v-279h-85v648z" />
    <glyph glyph-name="G" unicode="G" horiz-adv-x="677" 
d="M361 337h244v-274q-17 -12 -40 -25t-52.5 -24t-65 -18.5t-78.5 -7.5q-73 0 -133.5 25t-104 69.5t-67.5 106t-24 135.5q0 79 25 141.5t68.5 105.5t102 66t124.5 23q47 0 85 -9.5t67.5 -22.5t49.5 -26.5t31 -22.5l-45 -62q-8 5 -23.5 15.5t-38.5 21.5t-52.5 19t-65.5 8
q-54 0 -98 -18.5t-75 -52.5t-47.5 -81t-16.5 -105q0 -62 20 -109.5t53 -80t76.5 -49.5t91.5 -17q27 0 48 3t38.5 8t32.5 12t29 15v153h-159v78z" />
    <glyph glyph-name="H" unicode="H" horiz-adv-x="665" 
d="M497 295h-329v-295h-85v648h85v-277h329v277h85v-648h-85v295z" />
    <glyph glyph-name="I" unicode="I" horiz-adv-x="251" 
d="M83 648h85v-648h-85v648z" />
    <glyph glyph-name="J" unicode="J" horiz-adv-x="475" 
d="M72 136q9 -9 21 -20.5t28 -21t35.5 -16t44.5 -6.5q58 0 86 31.5t28 90.5v454h85v-464q0 -48 -15 -85t-42 -61.5t-64 -37t-81 -12.5q-59 0 -102 24.5t-77 58.5z" />
    <glyph glyph-name="K" unicode="K" horiz-adv-x="578" 
d="M168 307v-307h-85v648h85v-302l254 302h105l-266 -311l305 -337h-113z" />
    <glyph glyph-name="L" unicode="L" horiz-adv-x="495" 
d="M83 648h85v-569h295v-79h-380v648z" />
    <glyph glyph-name="M" unicode="M" horiz-adv-x="762" 
d="M83 664h5l293 -425l293 425h5v-664h-85v409l-213 -305l-213 307v-411h-85v664z" />
    <glyph glyph-name="N" unicode="N" horiz-adv-x="652" 
d="M83 664h8l393 -466v450h85v-663h-9l-392 463v-448h-85v664z" />
    <glyph glyph-name="O" unicode="O" horiz-adv-x="700" 
d="M350 67q43 0 82.5 16t70 48.5t48.5 80.5t18 113q0 64 -18 112t-48.5 80.5t-70 48.5t-82.5 16q-44 0 -83.5 -16t-69.5 -48.5t-48 -80.5t-18 -112q0 -65 18 -113t48 -80.5t69.5 -48.5t83.5 -16zM350 -12q-70 0 -127.5 26.5t-98 72t-62.5 107t-22 131.5q0 71 22.5 132
t63 106t98 71t126.5 26t126 -26t98 -71t63.5 -106t22.5 -132q0 -70 -21.5 -131.5t-61.5 -107t-97.5 -72t-129.5 -26.5z" />
    <glyph glyph-name="P" unicode="P" horiz-adv-x="530" 
d="M83 648h188q50 0 91 -15t70 -40.5t44.5 -60t15.5 -73.5q0 -42 -13.5 -78.5t-40.5 -64t-67.5 -43t-95.5 -15.5h-107v-258h-85v648zM168 572v-238h108q60 0 95.5 34t35.5 86q0 51 -35 84.5t-98 33.5h-106z" />
    <glyph glyph-name="Q" unicode="Q" horiz-adv-x="700" 
d="M643 194q-21 -62 -62 -108l82 -93l-66 -51l-78 91h-1q-70 -45 -164 -45q-70 0 -128 27q-57 26 -98 72q-40 45 -62 107q-22 61 -22 131q0 71 22 133q23 61 63 106q41 45 98 71q58 26 127 26t126 -26t98 -71t63 -106q23 -62 23 -133q0 -70 -21 -131zM555 211q19 49 19 114
t-19 114q-18 49 -49 82q-30 32 -70 49q-40 16 -82 16q-43 0 -83 -16q-39 -17 -70 -49q-30 -33 -49 -82q-18 -49 -18 -114t18 -114q19 -49 49 -81q31 -33 70 -49q40 -17 83 -17q42 0 82 17q15 6 29 15l-65 74l57 54l66 -74q19 27 32 61z" />
    <glyph glyph-name="R" unicode="R" horiz-adv-x="537" 
d="M318 288l178 -288h-98l-171 281h-76v-281h-85v648h184q103 0 160 -47q57 -48 57 -136q0 -42 -16 -75q-15 -34 -42 -57q-27 -24 -65 -37q-12 -5 -26 -8zM151 350h91q20 0 37 2q42 7 67 28q36 29 36 82q0 54 -36 83t-93 29h-102v-224z" />
    <glyph glyph-name="S" unicode="S" horiz-adv-x="526" 
d="M99 159q14 -13 33.5 -29t43 -30.5t50 -24t54.5 -9.5q51 0 78.5 25.5t27.5 69.5q0 38 -26.5 63t-74.5 51l-58 31q-21 11 -47.5 26.5t-49 37t-38 51t-15.5 69.5q0 35 12.5 66t37 54t61.5 36.5t86 13.5q32 0 58.5 -7t48.5 -18.5t40.5 -26.5t35.5 -31l-44 -57q-10 9 -25 20
t-33 21t-39.5 17t-45.5 7q-20 0 -39 -6t-34 -17.5t-24 -28.5t-9 -38q0 -34 21 -58t72 -51l77 -41q24 -13 48.5 -29.5t44.5 -37.5t32.5 -48.5t12.5 -63.5t-12.5 -68.5t-37.5 -56.5t-62.5 -38.5t-86.5 -14.5q-36 0 -68.5 10t-61 26t-52 35t-41.5 37z" />
    <glyph glyph-name="T" unicode="T" horiz-adv-x="522" 
d="M23 648h476v-77h-195v-571h-85v571h-196v77z" />
    <glyph glyph-name="U" unicode="U" horiz-adv-x="641" 
d="M75 648h85v-407q0 -41 12 -73t33.5 -54.5t51 -34.5t64.5 -12q34 0 63.5 12t51 34.5t33.5 54.5t12 73v407h85v-419q0 -48 -15.5 -92t-46.5 -77t-76.5 -52.5t-106.5 -19.5q-60 0 -106 19.5t-77 52.5t-47 77t-16 92v419z" />
    <glyph glyph-name="V" unicode="V" horiz-adv-x="535" 
d="M5 648h94l172 -458l169 458h90l-255 -660h-16z" />
    <glyph glyph-name="W" unicode="W" horiz-adv-x="801" 
d="M14 648h84l136 -441l168 441l166 -441l139 441h80l-202 -660h-14l-170 442l-170 -442h-15z" />
    <glyph glyph-name="X" unicode="X" horiz-adv-x="559" 
d="M228 322l-212 326h104l165 -254l158 254h100l-210 -327l210 -321h-104l-163 249l-160 -249h-100z" />
    <glyph glyph-name="Y" unicode="Y" horiz-adv-x="531" 
d="M225 286l-213 362h109l148 -273l150 273h100l-209 -357v-291h-85v286z" />
    <glyph glyph-name="Z" unicode="Z" horiz-adv-x="567" 
d="M391 567h-321v81h473l-367 -563h337v-85h-489z" />
    <glyph glyph-name="ampersand" unicode="&#x26;" horiz-adv-x="734" 
d="M355 -4q-15 -4 -34.5 -6t-45.5 -2q-46 0 -83.5 13t-64.5 36.5t-42 56.5t-15 73q0 63 34.5 106.5t84.5 63.5q-39 26 -60 62t-21 91q0 33 14 63.5t38.5 54.5t58.5 38t74 14q45 0 80.5 -15.5t60.5 -42t38 -62.5t13 -76v-101h185v-71h-185v-107q0 -63 29.5 -93t74.5 -30
q31 0 55 12t41 23l32 -60q-24 -16 -57 -32.5t-82 -16.5q-42 0 -75 14.5t-55.5 39t-34 56.5t-11.5 67v127h-90q-69 0 -112 -31t-43 -85q0 -52 33 -82t95 -30q23 0 34 1.5t20 3.5zM193 480q0 -25 10.5 -46.5t29 -37t43.5 -24.5t53 -9h73v101q0 24 -7.5 45.5t-21.5 38t-34.5 26
t-45.5 9.5q-43 0 -71.5 -26.5t-28.5 -76.5z" />
    <glyph glyph-name="AE" unicode="&#xc6;" horiz-adv-x="829" 
d="M391 156h-207l-94 -156h-90l391 646v2h380v-79h-295v-198h278v-76h-278v-216h295v-79h-380v156zM391 233v266l-161 -266h161z" />
    <glyph glyph-name="OE" unicode="&#x152;" horiz-adv-x="882" 
d="M390 0q-80 0 -144.5 24t-110 67t-70.5 101t-25 126q0 64 20.5 123.5t64 105.5t111 73.5t162.5 27.5h426v-79h-295v-198h278v-76h-278v-216h295v-79h-434zM444 76v495h-55q-118 0 -187.5 -61.5t-69.5 -191.5q0 -59 20.5 -104.5t55 -76t80.5 -46t96 -15.5h60z" />
    <glyph glyph-name="Eth" unicode="&#xd0;" horiz-adv-x="665" 
d="M4 368h79v280h192q79 0 144 -24t110.5 -67t70.5 -101t25 -126q0 -64 -20.5 -123.5t-64 -105.5t-111.5 -73.5t-162 -27.5h-184v300h-79v68zM168 572v-204h136v-68h-136v-223h108q59 0 106.5 15t81 46t51.5 79t18 113q0 59 -20.5 104.5t-55 76t-80.5 46t-96 15.5h-113z" />
    <glyph glyph-name="Dcroat" unicode="&#x110;" horiz-adv-x="665" 
d="M4 368h79v280h192q79 0 144 -24t110.5 -67t70.5 -101t25 -126q0 -64 -20.5 -123.5t-64 -105.5t-111.5 -73.5t-162 -27.5h-184v300h-79v68zM168 572v-204h136v-68h-136v-223h108q59 0 106.5 15t81 46t51.5 79t18 113q0 59 -20.5 104.5t-55 76t-80.5 46t-96 15.5h-113z" />
    <glyph glyph-name="Hbar" unicode="&#x126;" horiz-adv-x="665" 
d="M497 295h-329v-295h-85v484h-79v68h79v96h85v-96h329v96h85v-96h79v-68h-79v-484h-85v295zM168 371h329v113h-329v-113z" />
    <glyph glyph-name="IJ" unicode="&#x132;" horiz-adv-x="726" 
d="M83 648h85v-648h-85v648zM323 136q9 -9 21 -20.5t28 -21t35.5 -16t44.5 -6.5q58 0 86 31.5t28 90.5v454h85v-464q0 -48 -15 -85t-42 -61.5t-64 -37t-81 -12.5q-59 0 -102 24.5t-77 58.5z" />
    <glyph glyph-name="Lslash" unicode="&#x141;" horiz-adv-x="495" 
d="M4 264l79 41v343h85v-303l160 83v-72l-160 -83v-194h295v-79h-380v233l-79 -41v72z" />
    <glyph glyph-name="Ldot" unicode="&#x13f;" horiz-adv-x="495" 
d="M83 648h85v-569h295v-79h-380v648zM320 261q-26 0 -45 17.5t-19 46.5t19 46.5t45 17.5q25 0 44.5 -17.5t19.5 -46.5t-19.5 -46.5t-44.5 -17.5z" />
    <glyph glyph-name="Lcaron" unicode="&#x13d;" horiz-adv-x="495" 
d="M83 648h85v-569h295v-79h-380v648zM350 442q14 20 26 42t22 54q-25 4 -40 18.5t-15 37.5q0 28 17 45t44 17q26 0 42.5 -18.5t16.5 -43.5q0 -23 -8 -47t-20 -47t-27 -44t-29 -37z" />
    <glyph glyph-name="Eng" unicode="&#x14a;" horiz-adv-x="652" 
d="M241 -68q9 -9 21 -20.5t28 -21t35.5 -16t44.5 -6.5q58 0 87 31.5t29 90.5v82l-318 376v-448h-85v664h8l393 -466v450h85v-668q0 -48 -15 -85t-42 -61.5t-64 -37t-81 -12.5q-59 0 -102 24.5t-77 58.5z" />
    <glyph glyph-name="Oslash" unicode="&#xd8;" horiz-adv-x="700" 
d="M104 112q-31 44 -47.5 98t-16.5 115q0 71 22.5 132t63 106t98 71t126.5 26q58 0 107.5 -18.5t88.5 -51.5l62 66l53 -51l-65 -70q31 -43 47.5 -96.5t16.5 -113.5q0 -70 -21.5 -131.5t-61.5 -107t-97.5 -72t-129.5 -26.5q-59 0 -108 18.5t-88 50.5l-61 -66l-53 51zM131 325
q0 -45 8.5 -82t24.5 -66l326 352q-29 26 -65 39.5t-75 13.5q-44 0 -83.5 -16t-69.5 -48.5t-48 -80.5t-18 -112zM350 67q43 0 82.5 16t70 48.5t48.5 80.5t18 113q0 44 -8.5 80t-24.5 65l-326 -352q29 -26 65 -38.5t75 -12.5z" />
    <glyph glyph-name="Tbar" unicode="&#x166;" horiz-adv-x="522" 
d="M23 648h476v-77h-195v-203h136v-68h-136v-300h-85v300h-136v68h136v203h-196v77z" />
    <glyph glyph-name="Thorn" unicode="&#xde;" horiz-adv-x="530" 
d="M83 648h85v-120h103q50 0 91 -15t70 -40.5t44.5 -60t15.5 -73.5q0 -42 -13.5 -78.5t-40.5 -64t-67.5 -43t-95.5 -15.5h-107v-138h-85v648zM168 452v-238h108q60 0 95.5 34t35.5 86q0 51 -35 84.5t-98 33.5h-106z" />
    <glyph glyph-name="Uogonek" unicode="&#x172;" horiz-adv-x="641" 
d="M75 648h85v-407q0 -41 12 -73t33.5 -54.5t51 -34.5t64.5 -12q34 0 63.5 12t51 34.5t33.5 54.5t12 73v407h85v-419q0 -69 -31 -124.5t-93 -90.5q-20 -11 -37.5 -26t-30.5 -31.5t-20.5 -33t-7.5 -31.5q0 -23 14.5 -33.5t31.5 -10.5t29.5 4t23.5 9l21 -53
q-14 -7 -37.5 -15.5t-52.5 -8.5q-22 0 -41 8t-32.5 21t-21 30t-7.5 35q0 35 12.5 60.5t36.5 49.5h-2q-60 0 -106 19.5t-77 52.5t-47 77t-16 92v419z" />
    <glyph glyph-name="a" unicode="a" horiz-adv-x="572" 
d="M403 64q-24 -28 -59.5 -51t-89.5 -23q-47 0 -86 16t-67.5 47.5t-44.5 77.5t-16 105q0 52 16 96.5t44.5 76t68 49.5t86.5 18q55 0 90.5 -20.5t57.5 -44.5v57h84v-468h-84v64zM265 63q33 0 59 13t44 35.5t28 54t10 67.5q0 48 -12.5 80.5t-32.5 53t-46 29.5t-53 9
q-33 0 -58.5 -13t-43 -36t-27 -54.5t-9.5 -68.5q0 -77 37.5 -123.5t103.5 -46.5z" />
    <glyph glyph-name="b" unicode="b" horiz-adv-x="575" 
d="M85 720h85v-317q12 14 27 28t33.5 25t41.5 17.5t51 6.5q46 0 85 -16.5t67.5 -48t44 -78t15.5 -105.5q0 -53 -15.5 -97.5t-43.5 -77t-67 -51t-87 -18.5q-29 0 -53 6.5t-42.5 17t-33 23t-25.5 24.5v-59h-83v720zM311 57q33 0 59 14t44 38t27.5 56.5t9.5 69.5
q0 77 -38.5 125t-104.5 48q-33 0 -59 -13.5t-44 -36.5t-28 -55t-10 -68q0 -48 12.5 -81.5t32.5 -55t46 -31.5t53 -10z" />
    <glyph glyph-name="c" unicode="c" horiz-adv-x="489" 
d="M463 61q-13 -11 -30 -23.5t-38.5 -23.5t-49.5 -18.5t-63 -7.5q-51 0 -95.5 18t-77 51t-51 78.5t-18.5 101.5q0 51 17.5 95.5t49.5 77t76 51.5t98 19q29 0 53.5 -5.5t44.5 -13.5t36.5 -17.5t28.5 -18.5l-39 -60q-18 10 -47.5 24.5t-75.5 14.5q-30 0 -58 -11.5t-50 -32.5
t-35.5 -52t-13.5 -70q0 -41 13.5 -73.5t37 -55t54 -34t63.5 -11.5q23 0 43 6t36 14t28.5 17t21.5 15z" />
    <glyph glyph-name="d" unicode="d" horiz-adv-x="573" 
d="M403 64q-24 -28 -59.5 -51t-89.5 -23q-47 0 -86 16t-67.5 47.5t-44.5 77.5t-16 105q0 52 16 96.5t44.5 76t68 49.5t86.5 18q55 0 90.5 -20.5t57.5 -44.5v309h85v-720h-85v64zM265 63q33 0 59 13t44 35.5t28 54t10 67.5q0 48 -12.5 80.5t-32.5 53t-46 29.5t-53 9
q-33 0 -58.5 -13t-43 -36t-27 -54.5t-9.5 -68.5q0 -77 37.5 -123.5t103.5 -46.5z" />
    <glyph glyph-name="e" unicode="e" horiz-adv-x="509" 
d="M123 211q4 -31 16 -57.5t32 -46.5t49 -31.5t66 -11.5q26 0 46.5 5.5t37.5 13.5t30.5 17.5t24.5 18.5l37 -58q-15 -11 -33 -24t-40.5 -24t-50 -18t-61.5 -7q-53 0 -96.5 18.5t-74.5 51.5t-48.5 79t-17.5 101q0 54 16.5 98.5t46 76.5t70.5 49.5t90 17.5q55 0 93.5 -20.5
t63.5 -54t36.5 -76.5t11.5 -88l-1 -30h-344zM263 412q-57 0 -92.5 -36.5t-45.5 -95.5h260q0 25 -7.5 48.5t-22.5 42t-38 30t-54 11.5z" />
    <glyph glyph-name="f" unicode="f" horiz-adv-x="374" 
d="M20 468h98v51q0 43 13 82t37.5 68t60.5 46t83 17q26 0 46.5 -4t37.5 -11t31.5 -16.5t28.5 -19.5l-42 -61q-22 16 -44 26t-59 10q-50 0 -79 -37t-29 -98v-53h177v-73h-177v-395h-85v395h-98v73z" />
    <glyph glyph-name="g" unicode="g" horiz-adv-x="572" 
d="M107 -85q27 -22 67 -38.5t91 -16.5q28 0 53.5 9.5t44 28.5t29.5 47t11 65v84q-23 -31 -58.5 -54.5t-86.5 -23.5q-47 0 -87 15.5t-69 45.5t-45.5 73.5t-16.5 99.5q0 50 16.5 92t46 72t69.5 46.5t88 16.5q28 0 50 -6t39 -16t30.5 -23t23.5 -26v62h84v-458q0 -47 -16.5 -88
t-46.5 -71.5t-71 -48.5t-89 -18q-65 0 -115.5 18.5t-82.5 47.5zM265 89q34 0 60.5 12t44.5 33t27 50t9 63q0 42 -12.5 72.5t-32.5 49.5t-45 28t-51 9q-34 0 -60 -12t-44 -33.5t-27.5 -50.5t-9.5 -63q0 -70 37.5 -114t103.5 -44z" />
    <glyph glyph-name="h" unicode="h" horiz-adv-x="566" 
d="M85 720h84v-329q10 17 23.5 33t31.5 28.5t40.5 20t51.5 7.5q37 0 67.5 -10.5t53 -31t35 -50.5t12.5 -69v-319h-84v297q0 55 -30 81t-75 26q-23 0 -45 -8.5t-39.5 -26.5t-29 -47t-12.5 -70v-252h-84v720z" />
    <glyph glyph-name="i" unicode="i" horiz-adv-x="255" 
d="M127 560q-26 0 -45 17.5t-19 46.5t19 46.5t45 17.5q25 0 44.5 -17.5t19.5 -46.5t-19.5 -46.5t-44.5 -17.5zM85 468h85v-468h-85v468z" />
    <glyph glyph-name="j" unicode="j" horiz-adv-x="334" 
d="M-16 -79q8 -10 17 -21.5t21 -21t27 -15.5t34 -6q38 0 60 21.5t22 64.5v452h-126v73h210v-515q0 -37 -11 -68t-32 -53.5t-50.5 -35t-66.5 -12.5q-35 0 -59.5 8.5t-43.5 22t-33 30t-26 33.5zM190 560q-26 0 -45 17.5t-19 46.5t19 46.5t45 17.5q25 0 44.5 -17.5t19.5 -46.5
t-19.5 -46.5t-44.5 -17.5z" />
    <glyph glyph-name="k" unicode="k" horiz-adv-x="495" 
d="M169 235v-235h-84v720h84v-441l179 189h101l-195 -202l237 -266h-104z" />
    <glyph glyph-name="l" unicode="l" horiz-adv-x="255" 
d="M85 720h85v-720h-85v720z" />
    <glyph glyph-name="m" unicode="m" horiz-adv-x="865" 
d="M85 468h84v-76q9 16 22 32t29.5 28.5t38.5 20t49 7.5q59 0 101 -26t58 -77q9 18 22 36.5t30.5 33.5t41 24t54.5 9q37 0 67.5 -10.5t53 -31t35 -50.5t12.5 -69v-319h-84v297q0 55 -30 81t-75 26q-22 0 -43 -9t-37.5 -28t-27 -49.5t-10.5 -73.5v-244h-84v297q0 55 -30 81
t-75 26q-21 0 -42 -8.5t-37.5 -26.5t-27 -47t-11.5 -70v-252h-84v468z" />
    <glyph glyph-name="n" unicode="n" horiz-adv-x="566" 
d="M85 468h84v-77q10 17 23.5 33t31.5 28.5t40.5 20t51.5 7.5q37 0 67.5 -10.5t53 -31t35 -50.5t12.5 -69v-319h-84v297q0 55 -30 81t-75 26q-23 0 -45 -8.5t-39.5 -26.5t-29 -47t-12.5 -70v-252h-84v468z" />
    <glyph glyph-name="o" unicode="o" horiz-adv-x="545" 
d="M272 62q37 0 65 14.5t47 38.5t28 55t9 64q0 34 -9 65.5t-28 55.5t-47 38.5t-65 14.5t-65 -14.5t-46.5 -38.5t-28 -55.5t-9.5 -65.5q0 -33 9.5 -64t28 -55t46.5 -38.5t65 -14.5zM272 -14q-53 0 -96 19t-73 52t-46.5 78.5t-16.5 98.5t16.5 98.5t46.5 78.5t73 52t96 19
t96 -19t73.5 -52t47 -78.5t16.5 -98.5t-16.5 -98.5t-47 -78.5t-73.5 -52t-96 -19z" />
    <glyph glyph-name="p" unicode="p" horiz-adv-x="575" 
d="M504 340q16 -47 16 -106q0 -53 -16 -97q-15 -45 -43 -77q-28 -33 -67 -51q-39 -19 -87 -19q-57 0 -94 22q-36 21 -58 46v-248l-85 -12v672h85v-65q12 14 27 28t33 25q19 11 42 18q23 6 51 6q46 0 85 -16q39 -17 67 -48q29 -32 44 -78zM426 168q10 32 10 69q0 77 -39 125
q-38 48 -104 48q-33 0 -59 -13q-26 -14 -44 -37t-28 -55t-10 -68q0 -48 12 -81q13 -34 33 -55q20 -22 46 -32t53 -10q33 0 59 14t44 38t27 57z" />
    <glyph glyph-name="q" unicode="q" horiz-adv-x="572" 
d="M402 72q-12 -16 -28 -31t-35.5 -27t-42.5 -19t-49 -7q-45 0 -82.5 16.5t-65.5 48t-43.5 78t-15.5 105.5q0 51 15.5 95.5t44 77.5t67 52t85.5 19q27 0 49.5 -6.5t41 -17.5t33.5 -25t26 -28v65h85v-672h-85v276zM266 59q31 0 57 13t45 36.5t29 55.5t10 71q0 49 -12.5 82.5
t-32.5 54.5t-45.5 30.5t-51.5 9.5q-33 0 -59 -13.5t-43.5 -37.5t-26.5 -57t-9 -71q0 -79 38 -126.5t101 -47.5z" />
    <glyph glyph-name="r" unicode="r" horiz-adv-x="371" 
d="M85 468h85v-91q23 44 53 71.5t81 27.5q11 0 22.5 -1t25.5 -5l-14 -78l-24.5 3.5t-19.5 1.5q-25 0 -47.5 -11.5t-39.5 -31t-27 -45.5t-10 -56v-253h-85v468z" />
    <glyph glyph-name="s" unicode="s" horiz-adv-x="434" 
d="M79 125q14 -9 30 -20.5t34.5 -21t39.5 -16t45 -6.5q40 0 62.5 15t22.5 44q0 30 -22.5 44t-66.5 31l-53 21q-49 20 -79.5 50.5t-30.5 84.5q0 27 11.5 50.5t32 41t48.5 27.5t61 10q53 0 89 -14t70 -39l-37 -57q-21 13 -50.5 26.5t-68.5 13.5q-30 0 -52 -15t-22 -41
q0 -25 13.5 -39.5t54.5 -30.5l63 -25q24 -10 45.5 -21.5t38 -27t26 -35.5t9.5 -47q0 -32 -12 -57.5t-34.5 -44t-53.5 -28.5t-68 -10q-57 0 -103.5 23t-83.5 50z" />
    <glyph glyph-name="t" unicode="t" horiz-adv-x="420" 
d="M9 466h98v166l83 12v-178h185v-73h-185v-210q0 -63 26 -91t72 -28q29 0 52 11q24 10 41 20l32 -62q-23 -16 -56 -31q-32 -16 -79 -16q-43 0 -75 15q-32 14 -54 39q-21 24 -32 56q-10 32 -10 67v230h-98v73z" />
    <glyph glyph-name="u" unicode="u" horiz-adv-x="539" 
d="M72 468h84v-275q0 -63 30 -97t83 -34q54 0 83.5 34t29.5 97v275h85v-276q0 -48 -14.5 -85.5t-40.5 -64t-62.5 -40.5t-80.5 -14t-80 14t-62 40.5t-40.5 64t-14.5 85.5v276z" />
    <glyph glyph-name="v" unicode="v" horiz-adv-x="437" 
d="M5 468h91l126 -314l122 314h88l-205 -480h-17z" />
    <glyph glyph-name="w" unicode="w" horiz-adv-x="696" 
d="M14 468h86l109 -307l135 307h12l141 -307l104 307h81l-169 -480h-21l-145 312l-143 -312h-21z" />
    <glyph glyph-name="x" unicode="x" horiz-adv-x="440" 
d="M215 179l-120 -179h-91l167 241l-160 227h91l121 -170l107 170h88l-153 -228l171 -240h-94z" />
    <glyph glyph-name="y" unicode="y" horiz-adv-x="449" 
d="M-32 -112q16 -8 36.5 -18.5t46.5 -10.5q18 0 34 4t30 14t26 28t24 47l23 58l-168 458h91l122 -341l123 341h89l-210 -537q-28 -70 -70.5 -108.5t-116.5 -38.5q-64 0 -116 37z" />
    <glyph glyph-name="z" unicode="z" horiz-adv-x="454" 
d="M294 394h-247v74h387l-276 -395h261v-73h-399z" />
    <glyph glyph-name="ae" unicode="&#xe6;" horiz-adv-x="874" 
d="M403 64q-24 -28 -59.5 -51t-89.5 -23q-47 0 -86 16t-67.5 47.5t-44.5 77.5t-16 105q0 52 16 96.5t44.5 76t68 49.5t86.5 18q55 0 90.5 -20.5t57.5 -44.5v57h80v-53q26 31 63 48t82 17q55 0 94.5 -20.5t64.5 -54t36 -76.5q10 -39 10 -81v-7l-1 -30h-344q4 -31 16 -57.5
t32 -46.5t49 -31.5t66 -11.5q26 0 46.5 5.5t37.5 13.5t30.5 17.5t24.5 18.5l37 -58q-15 -11 -33 -24t-40.5 -24t-50 -18t-61.5 -7q-50 0 -90 19t-69 53v-60h-80v64zM265 63q33 0 59 13t44 35.5t28 54t10 67.5q0 48 -12.5 80.5t-32.5 53t-46 29.5t-53 9q-33 0 -58.5 -13
t-43 -36t-27 -54.5t-9.5 -68.5q0 -77 37.5 -123.5t103.5 -46.5zM628 412q-57 0 -92.5 -36.5t-45.5 -95.5h260q0 25 -7.5 48.5t-22.5 42t-38 30t-54 11.5z" />
    <glyph glyph-name="oe" unicode="&#x153;" horiz-adv-x="891" 
d="M272 -14q-53 0 -96 19t-73 52t-46.5 78.5t-16.5 98.5t16.5 98.5t46.5 78.5t73 52t96 19q66 0 114.5 -28.5t76.5 -77.5q27 48 73 76t109 28q55 0 93.5 -20.5t63.5 -54t36.5 -76.5t11.5 -88l-1 -30h-344q4 -31 16 -57.5t32 -46.5t49 -31.5t66 -11.5q26 0 46.5 5.5
t37.5 13.5t30.5 17.5t24.5 18.5l37 -58q-15 -11 -33 -24t-40.5 -24t-50 -18t-61.5 -7q-66 0 -115.5 28.5t-78.5 78.5q-28 -51 -76.5 -80t-116.5 -29zM272 62q37 0 65 14.5t47 38.5t28 55t9 64q0 34 -9 65.5t-28 55.5t-47 38.5t-65 14.5t-65 -14.5t-46.5 -38.5t-28 -55.5
t-9.5 -65.5q0 -33 9.5 -64t28 -55t46.5 -38.5t65 -14.5zM645 412q-57 0 -92.5 -36.5t-45.5 -95.5h260q0 25 -7.5 48.5t-22.5 42t-38 30t-54 11.5z" />
    <glyph glyph-name="germandbls" unicode="&#xdf;" horiz-adv-x="544" 
d="M85 534q0 37 11.5 72.5t35 63.5t58.5 45t83 17q45 0 80 -14.5t59 -39t37 -56.5t13 -67q0 -51 -26 -94.5t-83 -68.5q76 -16 113.5 -65.5t37.5 -117.5q0 -49 -16 -89t-44.5 -68.5t-68.5 -44t-88 -15.5q-17 0 -32.5 1.5t-27.5 3.5l8 75q8 -1 18 -2t24 -1q69 0 105.5 35.5
t36.5 104.5t-48.5 102t-127.5 35v83q69 2 102.5 33t33.5 89q0 45 -28.5 74.5t-77.5 29.5q-52 0 -77 -34.5t-25 -86.5v-534h-86v534z" />
    <glyph glyph-name="dotlessi" unicode="&#x131;" horiz-adv-x="255" 
d="M85 468h85v-468h-85v468z" />
    <glyph glyph-name="uni0237" unicode="&#x237;" horiz-adv-x="334" 
d="M-16 -79q8 -10 17 -21.5t21 -21t27 -15.5t34 -6q38 0 60 21.5t22 64.5v452h-126v73h210v-515q0 -37 -11 -68t-32 -53.5t-50.5 -35t-66.5 -12.5q-35 0 -59.5 8.5t-43.5 22t-33 30t-26 33.5z" />
    <glyph glyph-name="eth" unicode="&#xf0;" horiz-adv-x="521" 
d="M178 567l88 38q-29 23 -65.5 39t-80.5 24l16 60q63 -11 113 -34t88 -58l97 43l22 -57l-74 -33q52 -66 75.5 -152t23.5 -182q0 -129 -57.5 -199t-163.5 -70q-51 0 -91.5 17.5t-69 48.5t-44 73.5t-15.5 92.5q0 52 17.5 95t47 73t68.5 46.5t82 16.5q38 0 70.5 -10.5
t63.5 -38.5q-11 47 -30 87t-46 72l-113 -49zM260 62q34 0 59.5 13t43 34.5t26 50t8.5 58.5q0 31 -8.5 59.5t-26 50.5t-43 35t-59.5 13t-59.5 -13t-43 -35t-26 -50.5t-8.5 -59.5q0 -30 8.5 -58.5t26 -50t43 -34.5t59.5 -13z" />
    <glyph glyph-name="dcroat" unicode="&#x111;" horiz-adv-x="573" 
d="M288 632h115v88h85v-88h77v-56h-77v-576h-85v64q-24 -28 -59.5 -51t-89.5 -23q-47 0 -86 16t-67.5 47.5t-44.5 77.5t-16 105q0 52 16 96.5t44.5 76t68 49.5t86.5 18q55 0 90.5 -20.5t57.5 -44.5v165h-115v56zM265 63q33 0 59 13t44 35.5t28 54t10 67.5q0 48 -12.5 80.5
t-32.5 53t-46 29.5t-53 9q-33 0 -58.5 -13t-43 -36t-27 -54.5t-9.5 -68.5q0 -77 37.5 -123.5t103.5 -46.5z" />
    <glyph glyph-name="dcaron" unicode="&#x10f;" horiz-adv-x="573" 
d="M403 64q-24 -28 -59.5 -51t-89.5 -23q-47 0 -86 16t-67.5 47.5t-44.5 77.5t-16 105q0 52 16 96.5t44.5 76t68 49.5t86.5 18q55 0 90.5 -20.5t57.5 -44.5v309h85v-720h-85v64zM265 63q33 0 59 13t44 35.5t28 54t10 67.5q0 48 -12.5 80.5t-32.5 53t-46 29.5t-53 9
q-33 0 -58.5 -13t-43 -36t-27 -54.5t-9.5 -68.5q0 -77 37.5 -123.5t103.5 -46.5zM555 514q14 20 26 42t22 54q-25 4 -40 18.5t-15 37.5q0 28 17 45t44 17q26 0 42.5 -18.5t16.5 -43.5q0 -23 -8 -47t-20 -47t-27 -44t-29 -37z" />
    <glyph glyph-name="hbar" unicode="&#x127;" horiz-adv-x="566" 
d="M8 632h77v88h84v-88h116v-56h-116v-185q10 17 23.5 33t31.5 28.5t40.5 20t51.5 7.5q37 0 67.5 -10.5t53 -31t35 -50.5t12.5 -69v-319h-84v297q0 55 -30 81t-75 26q-23 0 -45 -8.5t-39.5 -26.5t-29 -47t-12.5 -70v-252h-84v576h-77v56z" />
    <glyph glyph-name="ij" unicode="&#x133;" horiz-adv-x="589" 
d="M127 560q-26 0 -45 17.5t-19 46.5t19 46.5t45 17.5q25 0 44.5 -17.5t19.5 -46.5t-19.5 -46.5t-44.5 -17.5zM85 468h85v-468h-85v468zM239 -79q8 -10 17 -21.5t21 -21t27 -15.5t34 -6q38 0 60 21.5t22 64.5v452h-126v73h210v-515q0 -37 -11 -68t-32 -53.5t-50.5 -35
t-66.5 -12.5q-35 0 -59.5 8.5t-43.5 22t-33 30t-26 33.5zM445 560q-26 0 -45 17.5t-19 46.5t19 46.5t45 17.5q25 0 44.5 -17.5t19.5 -46.5t-19.5 -46.5t-44.5 -17.5z" />
    <glyph glyph-name="lslash" unicode="&#x142;" horiz-adv-x="271" 
d="M12 268l81 42v410h85v-373l81 43v-72l-81 -43v-275h-85v238l-81 -42v72z" />
    <glyph glyph-name="ldot" unicode="&#x140;" horiz-adv-x="357" 
d="M85 720h85v-720h-85v720zM300 261q-26 0 -45 17.5t-19 46.5t19 46.5t45 17.5q25 0 44.5 -17.5t19.5 -46.5t-19.5 -46.5t-44.5 -17.5z" />
    <glyph glyph-name="lcaron" unicode="&#x13e;" horiz-adv-x="255" 
d="M85 720h85v-720h-85v720zM237 514q14 20 26 42t22 54q-25 4 -40 18.5t-15 37.5q0 28 17 45t44 17q26 0 42.5 -18.5t16.5 -43.5q0 -23 -8 -47t-20 -47t-27 -44t-29 -37z" />
    <glyph glyph-name="eng" unicode="&#x14b;" horiz-adv-x="566" 
d="M219 -79q8 -10 17 -21.5t21 -21t27 -15.5t34 -6q38 0 60 21.5t22 64.5v354q0 55 -30 81t-75 26q-23 0 -45 -8.5t-39.5 -26.5t-29 -47t-12.5 -70v-252h-84v468h84v-77q10 17 23.5 33t31.5 28.5t40.5 20t51.5 7.5q37 0 67.5 -10.5t53 -31t35 -50.5t12.5 -69v-366
q0 -37 -11 -68t-32 -53.5t-50.5 -35t-66.5 -12.5q-35 0 -59.5 8.5t-43.5 22t-33 30t-26 33.5z" />
    <glyph glyph-name="oslash" unicode="&#xf8;" horiz-adv-x="545" 
d="M32 34l49 51q-20 31 -30.5 68.5t-10.5 80.5q0 53 16.5 98.5t46.5 78.5t73 52t96 19q44 0 80.5 -13t65.5 -36l50 51l45 -47l-51 -52q43 -63 43 -151q0 -53 -16.5 -98.5t-47 -78.5t-73.5 -52t-96 -19q-45 0 -82 13t-66 37l-47 -49zM272 62q37 0 65 14.5t47 38.5t28 55t9 64
q0 50 -18 89l-223 -229q18 -15 40.5 -23.5t51.5 -8.5zM123 234q0 -49 18 -88l222 230q-17 15 -39.5 23.5t-51.5 8.5q-37 0 -65 -14.5t-46.5 -38.5t-28 -55.5t-9.5 -65.5z" />
    <glyph glyph-name="longs" unicode="&#x17f;" horiz-adv-x="341" 
d="M85 519q0 43 13 82t37.5 68t60.5 46t83 17q26 0 46.5 -4t37.5 -11t31.5 -16.5t28.5 -19.5l-42 -61q-22 16 -44 26t-59 10q-50 0 -79 -37t-29 -98v-521h-85v519z" />
    <glyph glyph-name="thorn" unicode="&#xfe;" horiz-adv-x="575" 
d="M85 720h85v-317q12 14 27 28t33.5 25t41.5 17.5t51 6.5q46 0 85 -16.5t67.5 -48t44 -78t15.5 -105.5q0 -53 -15.5 -97.5t-43.5 -77t-67 -51t-87 -18.5q-57 0 -93.5 21.5t-58.5 46.5v-260h-85v924zM311 57q33 0 59 14t44 38t27.5 56.5t9.5 69.5q0 77 -38.5 125t-104.5 48
q-33 0 -59 -13.5t-44 -36.5t-28 -55t-10 -68q0 -48 12.5 -81.5t32.5 -55t46 -31.5t53 -10z" />
    <glyph glyph-name="tcaron" unicode="&#x165;" horiz-adv-x="420" 
d="M307 546q14 20 26 42t22 54q-25 4 -40 18.5t-15 37.5q0 28 17 45t44 17q26 0 42.5 -18.5t16.5 -43.5q0 -23 -8 -47t-20 -47t-27 -44t-29 -37zM8 468h98v149l83 29v-178h185v-73h-185v-210q0 -63 26 -91t72 -28q29 0 53 11q23 10 40 20l32 -62q-23 -16 -55 -31
q-33 -16 -80 -16q-43 0 -75 15q-32 14 -53 39q-22 24 -32 56q-11 32 -11 67v230h-98v73z" />
    <glyph glyph-name="tbar" unicode="&#x167;" horiz-adv-x="420" 
d="M8 468h98v150l83 28v-178h185v-73h-185v-103h142v-56h-142v-51q0 -63 26 -91t72 -28q29 0 53 10q23 11 40 21l32 -62q-23 -16 -55 -32q-33 -15 -80 -15q-43 0 -75 14q-32 15 -53 39q-22 25 -32 57q-11 32 -11 67v71h-90v56h90v103h-98v73z" />
    <glyph glyph-name="eogonek" unicode="&#x119;" horiz-adv-x="509" 
d="M390 -192q-14 -7 -37.5 -15.5t-52.5 -8.5q-45 0 -73.5 27t-28.5 67q0 32 14 58.5t46 52.5q-49 3 -89 22.5t-68.5 52.5t-44.5 77t-16 97q0 54 16.5 98.5t46 76.5t70.5 49.5t90 17.5q55 0 94.5 -20.5t64.5 -54t36 -76.5q10 -39 10 -81v-7l-1 -30h-344q4 -31 16 -57.5
t32 -46.5t49 -31.5t66 -11.5q26 0 46.5 5.5t37.5 13.5t30.5 17.5t24.5 18.5l37 -58q-17 -14 -38.5 -29t-50.5 -26q-18 -10 -36 -23t-33 -28t-24.5 -31t-9.5 -32q0 -23 14.5 -33.5t31.5 -10.5t29.5 4t23.5 9zM263 412q-57 0 -92.5 -36.5t-45.5 -95.5h260q0 25 -7.5 48.5
t-22.5 42t-38 30t-54 11.5z" />
    <glyph glyph-name="t_f" horiz-adv-x="742" 
d="M486 395h-297v-210q0 -63 26 -91t72 -28q29 0 52.5 10.5t40.5 20.5l32 -62q-23 -16 -55.5 -31.5t-79.5 -15.5q-43 0 -75 14.5t-53.5 39t-32 56.5t-10.5 67v230h-98v73h98v178h83v-178h297v51q0 43 13 82t37.5 68t60.5 46t83 17q26 0 46.5 -4t37.5 -11t31.5 -16.5
t28.5 -19.5l-42 -61q-22 16 -44 26t-59 10q-50 0 -79 -37t-29 -98v-53h177v-73h-177v-395h-85v395z" />
    <glyph glyph-name="t_t" horiz-adv-x="792" 
d="M478 395h-289v-210q0 -63 26 -91t72 -28q29 0 52.5 10.5t40.5 20.5l32 -62q-23 -16 -55.5 -31.5t-79.5 -15.5q-43 0 -75 14.5t-53.5 39t-32 56.5t-10.5 67v230h-98v73h98v178h83v-178h289v178h83v-178h185v-73h-185v-210q0 -63 26 -91t72 -28q29 0 52.5 10.5t40.5 20.5
l32 -62q-23 -16 -55.5 -31.5t-79.5 -15.5q-43 0 -75 14.5t-53.5 39t-32 56.5t-10.5 67v230z" />
    <glyph glyph-name="grave" unicode="`" horiz-adv-x="545" 
d="M134 700l57 44l133 -175l-56 -43z" />
    <glyph glyph-name="acute" unicode="&#xb4;" horiz-adv-x="545" 
d="M354 744l56 -45l-134 -172l-55 43z" />
    <glyph glyph-name="hungarumlaut" unicode="&#x2dd;" horiz-adv-x="545" 
d="M286 744l57 -44l-134 -174l-56 43zM414 744l57 -44l-134 -174l-56 43z" />
    <glyph glyph-name="dotaccent" unicode="&#x2d9;" horiz-adv-x="545" 
d="M272 560q-26 0 -45 17.5t-19 46.5t19 46.5t45 17.5q25 0 44.5 -17.5t19.5 -46.5t-19.5 -46.5t-44.5 -17.5z" />
    <glyph glyph-name="dieresis" unicode="&#xa8;" horiz-adv-x="545" 
d="M104 624q0 29 19 46.5t45 17.5q25 0 44.5 -17.5t19.5 -46.5t-19.5 -46.5t-44.5 -17.5q-26 0 -45 17.5t-19 46.5zM312 624q0 29 19 46.5t45 17.5q25 0 44.5 -17.5t19.5 -46.5t-19.5 -46.5t-44.5 -17.5q-26 0 -45 17.5t-19 46.5z" />
    <glyph glyph-name="circumflex" unicode="&#x2c6;" horiz-adv-x="545" 
d="M124 572l148 128l148 -128l-41 -50l-107 91l-107 -91z" />
    <glyph glyph-name="caron" unicode="&#x2c7;" horiz-adv-x="545" 
d="M165 696l107 -91l107 91l41 -50l-148 -128l-148 128z" />
    <glyph glyph-name="macron" unicode="&#xaf;" horiz-adv-x="545" 
d="M132 633h280v-70h-280v70z" />
    <glyph glyph-name="tilde" unicode="&#x2dc;" horiz-adv-x="545" 
d="M123 546q0 27 4.5 50.5t15 40.5t27.5 27t42 10q28 0 45.5 -11t32.5 -26l6 -6q9 -9 17.5 -15t18.5 -6q13 0 21 13t10 51h63q0 -27 -4.5 -50.5t-15 -40.5t-27.5 -27t-42 -10q-28 0 -45.5 11t-32.5 26l-6 6q-9 9 -17.5 15t-18.5 6q-13 0 -21.5 -12t-10.5 -52h-62z" />
    <glyph glyph-name="breve" unicode="&#x2d8;" horiz-adv-x="545" 
d="M201 674q7 -31 23.5 -48.5t47.5 -17.5q30 0 48.5 17.5t26.5 48.5h69q-4 -26 -15 -49t-29 -40.5t-43 -28t-57 -10.5t-57 10.5t-43 28t-29 40.5t-15 49h73z" />
    <glyph glyph-name="ring" unicode="&#x2da;" horiz-adv-x="545" 
d="M271 522q-42 0 -71.5 27t-29.5 72t29.5 72t71.5 27t71.5 -27t29.5 -72t-29.5 -72t-71.5 -27zM271 577q18 0 30 12t12 32t-12 32t-30 12t-30 -12t-12 -32t12 -32t30 -12z" />
    <glyph glyph-name="caronquoteleft" horiz-adv-x="545" 
d="M327 742q-14 -20 -26.5 -42t-21.5 -54q24 -5 39.5 -19t15.5 -37q0 -28 -17 -45t-44 -17q-26 0 -42.5 18.5t-16.5 43.5q0 23 8 47t20 47t27 43.5t29 37.5z" />
    <glyph glyph-name="caronquoteright" horiz-adv-x="545" 
d="M221 547q14 20 26 42t22 54q-25 4 -40 18.5t-15 37.5q0 28 17 45t44 17q26 0 42.5 -18.5t16.5 -43.5q0 -23 -8 -47t-20 -47t-27 -44t-29 -37z" />
    <glyph glyph-name="uni0326" unicode="&#x326;" horiz-adv-x="545" 
d="M218 -263q14 20 26 42t22 54q-25 5 -40 19t-15 37q0 28 17 45t44 17q26 0 42.5 -18.5t16.5 -43.5q0 -23 -8 -47t-20 -47t-27 -44t-29 -37z" />
    <glyph glyph-name="cedilla" unicode="&#xb8;" horiz-adv-x="545" 
d="M210 -143q11 -5 24 -13t35 -8q18 0 29.5 9t11.5 26q0 16 -11.5 25t-27.5 9t-24 -3t-19 -7l-26 36l43 77l58 -7l-31 -48h7q39 0 64.5 -21t25.5 -59q0 -41 -28 -65t-70 -24q-32 0 -52 10t-34 19z" />
    <glyph glyph-name="ogonek" unicode="&#x2db;" horiz-adv-x="545" 
d="M361 -192q-14 -7 -37.5 -15.5t-52.5 -8.5q-45 0 -73.5 27t-28.5 67q0 21 3 37t10.5 29.5t19 27t28.5 28.5l85 7v-7q-27 -20 -50.5 -47.5t-23.5 -60.5q0 -23 14.5 -33.5t31.5 -10.5t29.5 4t23.5 9z" />
    <glyph glyph-name="zero" unicode="0" horiz-adv-x="533" 
d="M266 -12q-106 0 -157 82t-51 227v54q0 144 51 226.5t157 82.5t157.5 -82.5t51.5 -226.5v-54q0 -145 -51.5 -227t-157.5 -82zM266 65q61 0 92.5 55.5t31.5 183.5v39q0 129 -31.5 184.5t-92.5 55.5q-62 0 -93 -55.5t-31 -184.5v-39q0 -128 31 -183.5t93 -55.5z" />
    <glyph glyph-name="one" unicode="1" horiz-adv-x="405" 
d="M182 520l-111 -66v87l182 119h14v-660h-85v520z" />
    <glyph glyph-name="two" unicode="2" horiz-adv-x="485" 
d="M246 308q15 22 30 45.5t28 47t21 46.5t8 45q0 41 -24 64.5t-66 23.5q-21 0 -38.5 -10t-31.5 -24.5t-24 -31.5t-17 -32l-68 27q10 26 26.5 53t39 48.5t51 35.5t63.5 14q42 0 74.5 -12.5t55 -34.5t34.5 -52t12 -65q0 -26 -9.5 -54t-25 -57t-35 -58.5t-38.5 -57.5l-128 -189
h251v-80h-393z" />
    <glyph glyph-name="three" unicode="3" horiz-adv-x="490" 
d="M110 151q6 -9 16 -23.5t26 -29t38 -25t54 -10.5q56 0 85 35t29 86q0 25 -8.5 44.5t-23 35t-34 28t-42.5 25.5l-90 51l142 205h-229v75h371l-177 -254l45 -25q25 -14 48.5 -30t41.5 -38t29 -50.5t11 -68.5q0 -36 -13 -71t-38.5 -62.5t-62 -44t-84.5 -16.5q-43 0 -75 12
t-55 29.5t-39 37.5t-26 35z" />
    <glyph glyph-name="four" unicode="4" 
d="M80 648h630v-648h-630v648z" />
    <glyph glyph-name="five" unicode="5" horiz-adv-x="478" 
d="M86 113q11 -7 23 -15.5t27 -16t33 -13t40 -5.5q31 0 55 10t40.5 27.5t25 40.5t8.5 49q0 55 -35 91.5t-100 36.5q-31 0 -56.5 -10t-38.5 -21h-31v361h303v-74h-224v-190q14 4 29.5 6t35.5 2q44 0 81 -15t63.5 -42t41.5 -63.5t15 -79.5q0 -46 -16.5 -83.5t-45.5 -64.5
t-68 -41.5t-84 -14.5q-28 0 -52.5 6t-45 15.5t-37.5 20.5t-31 21z" />
    <glyph glyph-name="six" unicode="6" horiz-adv-x="515" 
d="M257 -12q-44 0 -80.5 15.5t-62.5 43.5t-40 65.5t-14 82.5q0 60 23 117t54 121l103 215h88l-126 -254q13 5 28.5 7.5t35.5 2.5q46 0 81 -16.5t59 -44.5t36.5 -65.5t12.5 -80.5q0 -41 -13 -78.5t-38.5 -66.5t-62 -46.5t-84.5 -17.5zM257 63q27 0 48 10t36 27t23 40t8 50
q0 69 -32 104t-83 35q-59 0 -85.5 -36.5t-26.5 -96.5q0 -26 7 -50t21.5 -42.5t35.5 -29.5t48 -11z" />
    <glyph glyph-name="seven" unicode="7" horiz-adv-x="431" 
d="M306 568h-274v80h391l-264 -648h-90z" />
    <glyph glyph-name="eight" unicode="8" horiz-adv-x="519" 
d="M260 -12q-46 0 -83 15t-63 41.5t-40 61t-14 73.5q0 54 25.5 94.5t70.5 68.5q-39 27 -59 64.5t-20 79.5q0 32 12 63t35 56t57 40t79 15q44 0 78 -15t57 -40t35 -56t12 -63q0 -42 -21 -79.5t-60 -64.5q45 -28 71.5 -68t26.5 -95q0 -39 -14 -73.5t-39.5 -61t-62.5 -41.5
t-83 -15zM259 60q24 0 45.5 9t37 25.5t25 38.5t9.5 49t-10 49.5t-26 39t-37.5 25.5t-43.5 9q-23 0 -43.5 -9t-37 -25.5t-26 -39t-9.5 -49.5q0 -26 9 -48.5t25 -39t37 -25.5t45 -9zM259 378q19 0 37.5 7t32.5 20.5t23 33t9 44.5q0 24 -8 43.5t-22 34t-32.5 22t-39.5 7.5
q-40 0 -70 -28.5t-30 -78.5q0 -26 8.5 -45.5t23 -33t32.5 -20t36 -6.5z" />
    <glyph glyph-name="nine" unicode="9" horiz-adv-x="493" 
d="M248 660q44 0 80.5 -15.5t62.5 -43.5t40 -65.5t14 -82.5q0 -60 -23 -117t-54 -121l-103 -215h-88l125 253q-12 -4 -27.5 -6.5t-35.5 -2.5q-46 0 -81 16.5t-59 44.5t-36.5 65.5t-12.5 80.5q0 40 13 78t38.5 67t62 46.5t84.5 17.5zM248 585q-27 0 -48 -10t-36 -27t-23 -40
t-8 -50q0 -69 32 -104t83 -35q59 0 85.5 36.5t26.5 96.5q0 26 -7 50t-21.5 42.5t-35.5 29.5t-48 11z" />
    <glyph glyph-name="zero.zero" horiz-adv-x="532" 
d="M265 -12q-106 0 -157 82t-51 227v54q0 144 51 226.5t157 82.5t157.5 -82.5t51.5 -226.5v-54q0 -145 -51.5 -227t-157.5 -82zM141 304q0 -76 11 -129l200 361q-31 47 -87 47q-62 0 -93 -55.5t-31 -184.5v-39zM265 65q61 0 92.5 55.5t31.5 183.5v39q0 32 -2 60t-6 51
l-197 -351q29 -38 81 -38z" />
    <glyph glyph-name="currency" unicode="&#xa4;" horiz-adv-x="546" 
d="M78 147l61 65q-11 19 -17.5 41t-6.5 47q0 48 24 86l-61 65l54 50l59 -63q38 22 81 22q44 0 80 -22l60 63l54 -50l-62 -65q25 -39 25 -88q0 -24 -6.5 -46t-17.5 -41l61 -64l-54 -50l-60 63q-36 -22 -80 -22q-43 0 -81 22l-59 -63zM272 213q17 0 32 7t26.5 18.5t18 27
t6.5 33.5t-6.5 33.5t-18 27t-26.5 18.5t-32 7t-32.5 -7t-26.5 -18.5t-17.5 -27t-6.5 -33.5t6.5 -33.5t17.5 -27t26.5 -18.5t32.5 -7z" />
    <glyph glyph-name="dollar" unicode="$" horiz-adv-x="546" 
d="M250 -10q-32 4 -60.5 15t-53.5 26t-46 32t-38 33l49 58q12 -11 27.5 -23.5t35 -25t41 -23t45.5 -16.5v237l-14 7q-23 11 -50 26t-50.5 36t-39.5 50t-16 68q0 32 10.5 60.5t32 51t53.5 37t74 19.5v74h69v-74q52 -7 88.5 -30.5t67.5 -50.5l-46 -53q-17 15 -45 34.5
t-65 27.5v-231l28 -14q25 -13 50.5 -28.5t46 -36.5t33.5 -47.5t13 -62.5q0 -33 -10.5 -63t-32 -53.5t-53.5 -39t-75 -20.5v-72h-69v72zM409 161q0 35 -25 59t-65 47v-204q43 7 66.5 32.5t23.5 65.5zM163 495q0 -33 21 -56.5t66 -47.5v197q-37 -8 -62 -33t-25 -60z" />
    <glyph glyph-name="cent" unicode="&#xa2;" horiz-adv-x="502" 
d="M234 -7q-41 8 -76 29.5t-60 53t-39 72.5t-14 89q0 45 13.5 84.5t38 71t59.5 53t78 30.5v85h77v-81q48 -5 81.5 -22t56.5 -32l-39 -60q-16 8 -40 20.5t-59 17.5v-340q21 2 38.5 8t31.5 14t25.5 16t20.5 14l41 -55q-12 -10 -27 -21.5t-34 -22t-42.5 -18t-53.5 -10.5v-70
h-77v74zM130 238q0 -63 29.5 -104.5t74.5 -58.5v320q-44 -16 -74 -56.5t-30 -100.5z" />
    <glyph glyph-name="Euro" unicode="&#x20ac;" horiz-adv-x="534" 
d="M20 294h94v71h-94v70h99q15 106 67.5 166t140.5 60q55 0 94 -22.5t68 -57.5l-52 -49q-20 19 -45 36.5t-62 17.5q-51 0 -84 -35.5t-44 -115.5h194v-70h-200v-71h200v-70h-196q11 -85 44 -123t86 -38q26 0 44.5 9t31.5 21t21.5 25t15.5 22l59 -40q-15 -24 -32 -44.5
t-38 -35.5t-47 -23.5t-58 -8.5q-89 0 -142.5 62t-66.5 174h-98v70z" />
    <glyph glyph-name="yen" unicode="&#xa5;" horiz-adv-x="531" 
d="M78 366h114l-180 282h109l148 -250l150 250h100l-179 -282h114v-70h-144v-67h144v-70h-144v-159h-85v159h-147v70h147v67h-147v70z" />
    <glyph glyph-name="sterling" unicode="&#xa3;" horiz-adv-x="510" 
d="M62 373h86q-8 24 -14.5 50.5t-6.5 50.5q0 43 15 77.5t41 58.5t61 37t74 13q26 0 46.5 -4.5t37.5 -12.5t31.5 -18t28.5 -20l-44 -61q-22 16 -44 28t-57 12q-20 0 -39 -7t-33.5 -21.5t-23.5 -35.5t-9 -48q0 -26 7 -51t14 -48h141v-79h-123q2 -15 3 -29.5t1 -25.5
q0 -50 -17.5 -88t-41.5 -68h265v-83h-399v52q13 10 32.5 26.5t37 39.5t30 52.5t12.5 65.5q0 14 -1.5 29t-3.5 29h-107v79z" />
    <glyph glyph-name="florin" unicode="&#x192;" horiz-adv-x="519" 
d="M19 368h136l17 79q10 46 27.5 85t45 67.5t66 44.5t90.5 16q23 0 43.5 -6t38.5 -14t32 -17t23 -16l-41 -61q-19 13 -44 25.5t-64 12.5q-50 0 -85.5 -37t-48.5 -98l-18 -81h158v-73h-174l-75 -348q-17 -80 -65.5 -121.5t-126.5 -41.5q-36 0 -64.5 10t-57.5 27l35 66
q18 -8 40 -18t52 -10q86 0 107 102l73 334h-120v73z" />
    <glyph glyph-name="zero.tf" horiz-adv-x="532" 
d="M266 -12q-106 0 -157 82t-51 227v54q0 144 51 226.5t157 82.5t157.5 -82.5t51.5 -226.5v-54q0 -145 -51.5 -227t-157.5 -82zM266 65q61 0 92.5 55.5t31.5 183.5v39q0 129 -31.5 184.5t-92.5 55.5q-62 0 -93 -55.5t-31 -184.5v-39q0 -128 31 -183.5t93 -55.5z" />
    <glyph glyph-name="one.tf" horiz-adv-x="532" 
d="M259 524l-148 -70v87l219 119h14v-660h-85v524z" />
    <glyph glyph-name="two.tf" horiz-adv-x="532" 
d="M265 308q15 22 30 45.5t28 47t21 46.5t8 45q0 41 -24 64.5t-66 23.5q-21 0 -38.5 -10t-31.5 -24.5t-24 -31.5t-17 -32l-68 27q10 26 26.5 53t39 48.5t51 35.5t63.5 14q42 0 74.5 -12.5t55 -34.5t34.5 -52t12 -65q0 -26 -9.5 -54t-25 -57t-35 -58.5t-38.5 -57.5l-128 -189
h251v-80h-393z" />
    <glyph glyph-name="three.tf" horiz-adv-x="532" 
d="M122 151q6 -9 16 -23.5t26 -29t38 -25t54 -10.5q56 0 85 35t29 86q0 25 -8.5 44.5t-23 35t-34 28t-42.5 25.5l-90 51l142 205h-229v75h371l-177 -254l45 -25q25 -14 48.5 -30t41.5 -38t29 -50.5t11 -68.5q0 -36 -13 -71t-38.5 -62.5t-62 -44t-84.5 -16.5q-43 0 -75 12
t-55 29.5t-39 37.5t-26 35z" />
    <glyph glyph-name="four.tf" horiz-adv-x="532" 
d="M79 648h630v-648h-630v648z" />
    <glyph glyph-name="five.tf" horiz-adv-x="532" 
d="M116 113q11 -7 23 -15.5t27 -16t33 -13t40 -5.5q31 0 55 10t40.5 27.5t25 40.5t8.5 49q0 55 -35 91.5t-100 36.5q-31 0 -56.5 -10t-38.5 -21h-31v361h303v-74h-224v-190q14 4 29.5 6t35.5 2q44 0 81 -15t63.5 -42t41.5 -63.5t15 -79.5q0 -46 -16.5 -83.5t-45.5 -64.5
t-68 -41.5t-84 -14.5q-28 0 -52.5 6t-45 15.5t-37.5 20.5t-31 21z" />
    <glyph glyph-name="six.tf" horiz-adv-x="532" 
d="M265 -12q-44 0 -80.5 15.5t-62.5 43.5t-40 65.5t-14 82.5q0 60 23 117t54 121l103 215h88l-126 -254q13 5 28.5 7.5t35.5 2.5q46 0 81 -16.5t59 -44.5t36.5 -65.5t12.5 -80.5q0 -41 -13 -78.5t-38.5 -66.5t-62 -46.5t-84.5 -17.5zM265 63q27 0 48 10t36 27t23 40t8 50
q0 69 -32 104t-83 35q-59 0 -85.5 -36.5t-26.5 -96.5q0 -26 7 -50t21.5 -42.5t35.5 -29.5t48 -11z" />
    <glyph glyph-name="seven.tf" horiz-adv-x="532" 
d="M360 568h-274v80h391l-264 -648h-90z" />
    <glyph glyph-name="eight.tf" horiz-adv-x="532" 
d="M266 -12q-46 0 -83 15t-63 41.5t-40 61t-14 73.5q0 54 25.5 94.5t70.5 68.5q-39 27 -59 64.5t-20 79.5q0 32 12 63t35 56t57 40t79 15q44 0 78 -15t57 -40t35 -56t12 -63q0 -42 -21 -79.5t-60 -64.5q45 -28 71.5 -68t26.5 -95q0 -39 -14 -73.5t-39.5 -61t-62.5 -41.5
t-83 -15zM265 60q24 0 45.5 9t37 25.5t25 38.5t9.5 49t-10 49.5t-26 39t-37.5 25.5t-43.5 9q-23 0 -43.5 -9t-37 -25.5t-26 -39t-9.5 -49.5q0 -26 9 -48.5t25 -39t37 -25.5t45 -9zM265 378q19 0 37.5 7t32.5 20.5t23 33t9 44.5q0 24 -8 43.5t-22 34t-32.5 22t-39.5 7.5
q-40 0 -70 -28.5t-30 -78.5q0 -26 8.5 -45.5t23 -33t32.5 -20t36 -6.5z" />
    <glyph glyph-name="nine.tf" horiz-adv-x="532" 
d="M266 660q44 0 80.5 -15.5t62.5 -43.5t40 -65.5t14 -82.5q0 -60 -23 -117t-54 -121l-103 -215h-88l125 253q-12 -4 -27.5 -6.5t-35.5 -2.5q-46 0 -81 16.5t-59 44.5t-36.5 65.5t-12.5 80.5q0 40 13 78t38.5 67t62 46.5t84.5 17.5zM266 585q-27 0 -48 -10t-36 -27t-23 -40
t-8 -50q0 -69 32 -104t83 -35q59 0 85.5 36.5t26.5 96.5q0 26 -7 50t-21.5 42.5t-35.5 29.5t-48 11z" />
    <glyph glyph-name="zero.tf.zero" horiz-adv-x="532" 
d="M265 -12q-106 0 -157 82t-51 227v54q0 144 51 226.5t157 82.5t157.5 -82.5t51.5 -226.5v-54q0 -145 -51.5 -227t-157.5 -82zM141 304q0 -76 11 -129l200 361q-31 47 -87 47q-62 0 -93 -55.5t-31 -184.5v-39zM265 65q61 0 92.5 55.5t31.5 183.5v39q0 32 -2 60t-6 51
l-197 -351q29 -38 81 -38z" />
    <glyph glyph-name="currency.tf" horiz-adv-x="532" 
d="M73 147l61 65q-11 19 -17.5 41t-6.5 47q0 48 24 86l-61 65l54 50l59 -63q38 22 81 22q44 0 80 -22l60 63l54 -50l-62 -65q25 -39 25 -88q0 -24 -6.5 -46t-17.5 -41l61 -64l-54 -50l-60 63q-36 -22 -80 -22q-43 0 -81 22l-59 -63zM267 213q17 0 32 7t26.5 18.5t18 27
t6.5 33.5t-6.5 33.5t-18 27t-26.5 18.5t-32 7t-32.5 -7t-26.5 -18.5t-17.5 -27t-6.5 -33.5t6.5 -33.5t17.5 -27t26.5 -18.5t32.5 -7z" />
    <glyph glyph-name="dollar.tf" horiz-adv-x="532" 
d="M246 -10q-32 4 -60.5 15t-53.5 26t-46 32t-38 33l49 58q12 -11 27.5 -23.5t35 -25t41 -23t45.5 -16.5v237l-14 7q-23 11 -50 26t-50.5 36t-39.5 50t-16 68q0 32 10.5 60.5t32 51t53.5 37t74 19.5v74h69v-74q52 -7 88.5 -30.5t67.5 -50.5l-46 -53q-17 15 -45 34.5
t-65 27.5v-231l28 -14q25 -13 50.5 -28.5t46 -36.5t33.5 -47.5t13 -62.5q0 -33 -10.5 -63t-32 -53.5t-53.5 -39t-75 -20.5v-72h-69v72zM405 161q0 35 -25 59t-65 47v-204q43 7 66.5 32.5t23.5 65.5zM159 495q0 -33 21 -56.5t66 -47.5v197q-37 -8 -62 -33t-25 -60z" />
    <glyph glyph-name="cent.tf" horiz-adv-x="532" 
d="M243 -7q-41 8 -76 29.5t-60 53t-39 72.5t-14 89q0 45 13.5 84.5t38 71t59.5 53t78 30.5v85h77v-81q48 -5 81.5 -22t56.5 -32l-39 -60q-16 8 -40 20.5t-59 17.5v-340q21 2 38.5 8t31.5 14t25.5 16t20.5 14l41 -55q-12 -10 -27 -21.5t-34 -22t-42.5 -18t-53.5 -10.5v-70
h-77v74zM139 238q0 -63 29.5 -104.5t74.5 -58.5v320q-44 -16 -74 -56.5t-30 -100.5z" />
    <glyph glyph-name="Euro.tf" horiz-adv-x="532" 
d="M25 294h94v71h-94v70h99q15 106 67.5 166t140.5 60q55 0 94 -22.5t68 -57.5l-52 -49q-20 19 -45 36.5t-62 17.5q-51 0 -84 -35.5t-44 -115.5h194v-70h-200v-71h200v-70h-196q11 -85 44 -123t86 -38q26 0 44.5 9t31.5 21t21.5 25t15.5 22l59 -40q-15 -24 -32 -44.5
t-38 -35.5t-47 -23.5t-58 -8.5q-89 0 -142.5 62t-66.5 174h-98v70z" />
    <glyph glyph-name="yen.tf" horiz-adv-x="532" 
d="M78 366h114l-180 282h109l148 -250l150 250h100l-179 -282h114v-70h-144v-67h144v-70h-144v-159h-85v159h-147v70h147v67h-147v70z" />
    <glyph glyph-name="sterling.tf" horiz-adv-x="532" 
d="M74 373h86q-8 24 -14.5 50.5t-6.5 50.5q0 43 15 77.5t41 58.5t61 37t74 13q26 0 46.5 -4.5t37.5 -12.5t31.5 -18t28.5 -20l-44 -61q-22 16 -44 28t-57 12q-20 0 -39 -7t-33.5 -21.5t-23.5 -35.5t-9 -48q0 -26 7 -51t14 -48h141v-79h-123q2 -15 3 -29.5t1 -25.5
q0 -50 -17.5 -88t-41.5 -68h265v-83h-399v52q13 10 32.5 26.5t37 39.5t30 52.5t12.5 65.5q0 14 -1.5 29t-3.5 29h-107v79z" />
    <glyph glyph-name="florin.tf" horiz-adv-x="532" 
d="M78 368h136l17 79q10 46 27.5 85t45 67.5t66 44.5t90.5 16q23 0 43.5 -6t38.5 -14t32 -17t23 -16l-41 -61q-19 13 -44 25.5t-64 12.5q-50 0 -85.5 -37t-48.5 -98l-18 -81h158v-73h-174l-75 -348q-17 -80 -65.5 -121.5t-126.5 -41.5q-36 0 -64.5 10t-57.5 27l35 66
q18 -8 40 -18t52 -10q86 0 107 102l73 334h-120v73z" />
    <glyph glyph-name="plus" unicode="+" horiz-adv-x="532" 
d="M26 277h203v199h74v-199h203v-74h-203v-203h-74v203h-203v74z" />
    <glyph glyph-name="minus" unicode="&#x2212;" horiz-adv-x="532" 
d="M30 277h472v-74h-472v74z" />
    <glyph glyph-name="multiply" unicode="&#xd7;" horiz-adv-x="532" 
d="M41 60l172 168l-172 168l53 51l172 -168l172 168l53 -51l-173 -168l173 -168l-53 -51l-172 168l-172 -168z" />
    <glyph glyph-name="divide" unicode="&#xf7;" horiz-adv-x="532" 
d="M267 354q-24 0 -44 17.5t-20 45.5t20 45.5t44 17.5q23 0 43 -17.5t20 -45.5t-20 -45.5t-43 -17.5zM267 0q-24 0 -44 17.5t-20 45.5t20 45.5t44 17.5q23 0 43 -17.5t20 -45.5t-20 -45.5t-43 -17.5zM30 277h472v-74h-472v74z" />
    <glyph glyph-name="equal" unicode="=" horiz-adv-x="532" 
d="M30 182h476v-74h-476v74zM30 373h476v-74h-476v74z" />
    <glyph glyph-name="less" unicode="&#x3c;" horiz-adv-x="532" 
d="M73 235l316 243l51 -56l-243 -187l243 -179l-51 -56z" />
    <glyph glyph-name="greater" unicode="&#x3e;" horiz-adv-x="532" 
d="M459 243l-316 -243l-51 56l243 186l-243 180l51 56z" />
    <glyph glyph-name="plusminus" unicode="&#xb1;" horiz-adv-x="532" 
d="M42 336h187v169h74v-169h187v-72h-187v-153h-74v153h-187v72zM46 72h440v-72h-440v72z" />
    <glyph glyph-name="lessequal" unicode="&#x2264;" horiz-adv-x="532" 
d="M60 326l385 177l31 -66l-307 -136l307 -137l-31 -65l-385 178v49zM46 72h440v-72h-440v72z" />
    <glyph glyph-name="greaterequal" unicode="&#x2265;" horiz-adv-x="532" 
d="M472 277l-385 -178l-31 65l306 137l-306 136l31 66l385 -177v-49zM486 0h-440v72h440v-72z" />
    <glyph glyph-name="notequal" unicode="&#x2260;" horiz-adv-x="532" 
d="M30 373h277l77 131l61 -33l-57 -98h118v-74h-161l-68 -117h229v-74h-272l-77 -133l-64 30l60 103h-123v74h166l68 117h-234v74z" />
    <glyph glyph-name="logicalnot" unicode="&#xac;" horiz-adv-x="532" 
d="M39 307h453v-232h-77v158h-376v74z" />
    <glyph glyph-name="asciicircum" unicode="^" horiz-adv-x="532" 
d="M266 700l209 -294l-62 -44l-147 203l-147 -203l-62 44z" />
    <glyph glyph-name="asciitilde" unicode="~" horiz-adv-x="532" 
d="M30 234q12 13 27.5 26.5t35 25t42.5 18.5t49 7q32 0 53.5 -9.5t40 -21t37 -21t44.5 -9.5q33 0 55.5 15.5t43.5 32.5l43 -49q-13 -13 -28.5 -26.5t-34.5 -24t-41 -17.5t-47 -7q-31 0 -52.5 9.5t-40 21t-37 21t-43.5 9.5q-17 0 -31.5 -5t-27 -12t-23 -15.5t-19.5 -15.5z
" />
    <glyph glyph-name="approxequal" unicode="&#x2248;" horiz-adv-x="532" 
d="M29 132q12 13 27.5 26.5t35 25t42.5 18.5t49 7q32 0 54 -9.5t40.5 -21t37.5 -21t45 -9.5q33 0 56 15.5t44 32.5l43 -49q-13 -13 -28.5 -26.5t-34.5 -24t-41.5 -17.5t-47.5 -7q-31 0 -53 9.5t-40.5 21t-37.5 21t-44 9.5q-17 0 -31.5 -5t-27 -12t-23 -15.5t-19.5 -15.5z
M29 324q12 13 27.5 26.5t35 25t42.5 18.5t49 7q32 0 54 -9.5t40.5 -21t37.5 -21t45 -9.5q33 0 56 15.5t44 32.5l43 -49q-13 -13 -28.5 -26.5t-34.5 -24t-41.5 -17.5t-47.5 -7q-31 0 -53 9.5t-40.5 21t-37.5 21t-44 9.5q-17 0 -31.5 -5t-27 -12t-23 -15.5t-19.5 -15.5z" />
    <glyph glyph-name="infinity" unicode="&#x221e;" horiz-adv-x="940" 
d="M276 37q-43 0 -77.5 15t-59 40.5t-38 60.5t-13.5 75q0 41 13 76t37.5 60.5t59 40t77.5 14.5q32 0 59 -10.5t50.5 -28.5t44.5 -41t40 -48q19 25 40 48t45 41t51 28.5t59 10.5q47 0 82 -16t58.5 -42.5t35.5 -61t12 -71.5t-12 -71.5t-35.5 -61t-58.5 -42.5t-82 -16
q-32 0 -59 10.5t-51 28t-45 40.5t-40 48q-19 -25 -40 -48t-44.5 -40.5t-50.5 -28t-58 -10.5zM278 110q21 0 40 9.5t37 26t34.5 37.5t33.5 45q-17 24 -33.5 45t-34.5 37t-37 25.5t-40 9.5q-54 0 -84 -32.5t-30 -84.5q0 -56 31.5 -87t82.5 -31zM664 345q-22 0 -41.5 -9.5
t-37.5 -26t-35.5 -37.5t-34.5 -45q17 -24 34.5 -45t35.5 -37t37.5 -25.5t41.5 -9.5q55 0 83.5 35t28.5 83q0 24 -7.5 45.5t-22 37t-35 25t-47.5 9.5z" />
    <glyph glyph-name="numbersign" unicode="#" horiz-adv-x="716" 
d="M397 185h-146l-36 -185h-76l36 185h-151v76h166l26 132h-152v76h167l36 179h76l-36 -179h146l36 179h76l-36 -179h163v-76h-178l-26 -132h164v-76h-179l-36 -185h-76zM266 261h146l26 132h-146z" />
    <glyph glyph-name="radical" unicode="&#x221a;" horiz-adv-x="622" 
d="M610 647h-81l-271 -659h-17l-174 407h-57v73h115l128 -305l226 557h131v-73z" />
    <glyph glyph-name="lozenge" unicode="&#x25ca;" horiz-adv-x="602" 
d="M40 325l227 323h68l227 -323l-227 -325h-68zM470 325l-169 244l-169 -244l169 -246z" />
    <glyph glyph-name="Delta" unicode="&#x2206;" horiz-adv-x="615" 
d="M299 660h15l272 -660h-557zM150 79h315l-160 391z" />
    <glyph glyph-name="Omega" unicode="&#x2126;" horiz-adv-x="799" 
d="M88 76h159q-73 37 -115.5 109.5t-42.5 163.5q0 66 23 123t64 99t98 65.5t125 23.5q67 0 124 -23.5t98.5 -65.5t64.5 -99t23 -123q0 -91 -42 -163.5t-115 -109.5h156v-76h-267v118q35 6 67 24t56.5 47t39 69t14.5 91q0 57 -18.5 101t-49.5 73t-70 44t-81 15t-81.5 -15
t-70 -44t-49 -73t-18.5 -101q0 -51 14.5 -91t39 -69t57 -47t67.5 -24v-118h-270v76z" />
    <glyph glyph-name="summation" unicode="&#x2211;" horiz-adv-x="557" 
d="M24 0v15l252 304l-252 318v11h488v-81h-321l193 -248l-200 -234h328v-85h-488z" />
    <glyph glyph-name="partialdiff" unicode="&#x2202;" horiz-adv-x="521" 
d="M136 728q93 -15 158.5 -58.5t107 -107t60.5 -142.5t19 -165q0 -129 -57.5 -199t-163.5 -70q-51 0 -91.5 17.5t-69 48.5t-44 73.5t-15.5 92.5q0 52 17.5 95t47 73t68.5 46.5t82 16.5q38 0 70.5 -10.5t63.5 -38.5q-26 106 -91.5 177t-177.5 91zM260 62q34 0 59.5 13
t43 34.5t26 50t8.5 58.5q0 31 -8.5 59.5t-26 50.5t-43 35t-59.5 13t-59.5 -13t-43 -35t-26 -50.5t-8.5 -59.5q0 -30 8.5 -58.5t26 -50t43 -34.5t59.5 -13z" />
    <glyph glyph-name="integral" unicode="&#x222b;" horiz-adv-x="363" 
d="M139 558q0 37 10.5 69t30 55t47 36t60.5 13h16v-79q-35 0 -57 -19.5t-22 -72.5v-603q0 -38 -11 -69.5t-30.5 -54.5t-46.5 -36t-60 -13h-16v79q35 0 57 19.5t22 72.5v603z" />
    <glyph glyph-name="product" unicode="&#x220f;" horiz-adv-x="657" 
d="M489 572h-321v-572h-85v648h491v-648h-85v572z" />
    <glyph glyph-name="pi" unicode="&#x3c0;" horiz-adv-x="569" 
d="M400 394h-231v-394h-84v468h399v-468h-84v394z" />
    <glyph glyph-name="mu" unicode="&#xb5;" horiz-adv-x="569" 
d="M85 468h84v-303q2 -52 31.5 -76.5t73.5 -24.5q23 0 45.5 9t40.5 28t29 49.5t11 73.5v244h84v-468h-84v74q-20 -34 -57.5 -60t-83.5 -26q-21 0 -45 7t-45 24v-223h-84v672z" />
    <glyph glyph-name="period" unicode="." horiz-adv-x="270" 
d="M135 -8q-29 0 -50 18.5t-21 52.5t21 53t50 19t50 -18.5t21 -52.5t-21 -53t-50 -19z" />
    <glyph glyph-name="comma" unicode="," horiz-adv-x="270" 
d="M61 -133q16 23 36 55.5t32 72.5q-29 5 -47 21t-18 45q0 34 20 54t52 20t51 -22.5t19 -51.5q0 -27 -11 -57t-27 -59t-35.5 -55t-35.5 -46z" />
    <glyph glyph-name="colon" unicode=":" horiz-adv-x="270" 
d="M135 -8q-29 0 -50 18.5t-21 52.5t21 53t50 19t50 -18.5t21 -52.5t-21 -53t-50 -19zM135 313q-29 0 -50 18.5t-21 52.5t21 53t50 19t50 -18.5t21 -52.5t-21 -53t-50 -19z" />
    <glyph glyph-name="semicolon" unicode=";" horiz-adv-x="270" 
d="M61 -133q16 23 36 55.5t32 72.5q-29 5 -47 21t-18 45q0 34 20 54t52 20t51 -22.5t19 -51.5q0 -27 -11 -57t-27 -59t-35.5 -55t-35.5 -46zM135 313q-29 0 -50 18.5t-21 52.5t21 53t50 19t50 -18.5t21 -52.5t-21 -53t-50 -19z" />
    <glyph glyph-name="exclam" unicode="!" horiz-adv-x="351" 
d="M127 720h111l-38 -464h-35zM184 -8q-29 0 -50 18.5t-21 52.5t21 53t50 19t50 -18.5t21 -52.5t-21 -53t-50 -19z" />
    <glyph glyph-name="question" unicode="?" horiz-adv-x="520" 
d="M187 399l83 48q37 21 63 48t26 69q0 38 -29 62t-72 24q-31 0 -54 -11t-38 -22l-41 63q25 20 59.5 36t75.5 16q45 0 80 -13.5t59 -37t36.5 -53.5t12.5 -63q0 -30 -9.5 -55.5t-25 -47t-36.5 -39t-44 -31.5l-61 -36v-100h-85v143zM232 -8q-29 0 -50 18.5t-21 52.5t21 53
t50 19t50 -18.5t21 -52.5t-21 -53t-50 -19z" />
    <glyph glyph-name="exclamdown" unicode="&#xa1;" horiz-adv-x="351" 
d="M127 -246h111l-38 464h-35zM184 482q-29 0 -50 -18.5t-21 -52.5t21 -53t50 -19t50 18.5t21 52.5t-21 53t-50 19z" />
    <glyph glyph-name="questiondown" unicode="&#xbf;" horiz-adv-x="520" 
d="M324 75l-83 -48q-37 -21 -63 -48t-26 -69q0 -38 29 -62t72 -24q31 0 54 11t38 22l41 -63q-25 -20 -59.5 -36t-75.5 -16q-45 0 -80 13.5t-59 37t-36.5 53.5t-12.5 63q0 30 9.5 55.5t25 47t36.5 39t44 31.5l61 36v100h85v-143zM279 482q29 0 50 -18.5t21 -52.5t-21 -53
t-50 -19t-50 18.5t-21 52.5t21 53t50 19z" />
    <glyph glyph-name="hyphen" unicode="-" horiz-adv-x="348" 
d="M44 324h260v-79h-260v79z" />
    <glyph glyph-name="endash" unicode="&#x2013;" horiz-adv-x="444" 
d="M24 324h396v-79h-396v79z" />
    <glyph glyph-name="emdash" unicode="&#x2014;" horiz-adv-x="737" 
d="M24 324h689v-79h-689v79z" />
    <glyph glyph-name="underscore" unicode="_" horiz-adv-x="505" 
d="M0 -70h505v-79h-505v79z" />
    <glyph glyph-name="bar" unicode="|" horiz-adv-x="245" 
d="M80 648h85v-806h-85v806z" />
    <glyph glyph-name="brokenbar" unicode="&#xa6;" horiz-adv-x="245" 
d="M80 648h85v-315h-85v315zM80 165h85v-323h-85v323z" />
    <glyph glyph-name="dagger" unicode="&#x2020;" horiz-adv-x="527" 
d="M84 468h137v180h85v-180h137v-77h-137v-391h-85v391h-137v77z" />
    <glyph glyph-name="daggerdbl" unicode="&#x2021;" horiz-adv-x="527" 
d="M84 468h137v180h85v-180h137v-77h-137v-130h137v-77h-137v-184h-85v184h-137v77h137v130h-137v77z" />
    <glyph glyph-name="parenleft" unicode="(" horiz-adv-x="351" 
d="M79 434q0 75 21 130.5t56 91.5t80.5 54t94.5 18v-76q-30 0 -60.5 -10.5t-55.5 -37t-41 -70t-16 -109.5v-310q0 -65 12.5 -112.5t35 -78.5t54.5 -45.5t71 -14.5v-76q-66 0 -113.5 24.5t-78 67.5t-45.5 101t-15 125v328z" />
    <glyph glyph-name="parenright" unicode=")" horiz-adv-x="351" 
d="M20 -136q39 0 71 14.5t54.5 45.5t35 78.5t12.5 112.5v310q0 66 -16 109.5t-41 70t-55.5 37t-60.5 10.5v76q49 0 94.5 -18t80.5 -54t56 -91.5t21 -130.5v-328q0 -67 -15 -125t-45.5 -101t-78 -67.5t-113.5 -24.5v76z" />
    <glyph glyph-name="bracketleft" unicode="[" horiz-adv-x="292" 
d="M75 720h193v-74h-115v-776h115v-74h-193v924z" />
    <glyph glyph-name="bracketright" unicode="]" horiz-adv-x="292" 
d="M24 -130h114v776h-114v74h193v-924h-193v74z" />
    <glyph glyph-name="braceleft" unicode="{" horiz-adv-x="288" 
d="M238 -204q-49 0 -77.5 19.5t-42.5 49t-18 64.5t-4 67v105q0 22 -3.5 42.5t-11 36.5t-18.5 25.5t-27 9.5h-8v82h8q16 0 27 9.5t18.5 25.5t11 36.5t3.5 42.5v109q0 31 4 66.5t18 65t42.5 49t77.5 19.5h46v-68h-44q-26 0 -40.5 -12.5t-22 -32t-9.5 -43t-2 -45.5v-116
q0 -44 -10 -80t-44 -67q34 -32 44 -68t10 -79v-112q0 -22 2 -45.5t9.5 -43t22 -32t40.5 -12.5h44v-68h-46z" />
    <glyph glyph-name="braceright" unicode="}" horiz-adv-x="288" 
d="M4 -136h44q25 0 40 12.5t22.5 32t9.5 43t2 45.5v112q0 43 10 79t43 68q-33 31 -43 67t-10 80v116q0 22 -2 45.5t-9.5 43t-22.5 32t-40 12.5h-44v68h46q49 0 77.5 -19.5t42.5 -49t18 -65t4 -66.5v-109q0 -22 3.5 -42.5t11 -36.5t18.5 -25.5t27 -9.5h8v-82h-8
q-16 0 -27 -9.5t-18.5 -25.5t-11 -36.5t-3.5 -42.5v-105q0 -32 -4 -67t-18 -64.5t-42.5 -49t-77.5 -19.5h-46v68z" />
    <glyph glyph-name="slash" unicode="/" horiz-adv-x="383" 
d="M288 648h85l-277 -648h-86z" />
    <glyph glyph-name="backslash" unicode="\" horiz-adv-x="383" 
d="M10 648h85l278 -648h-85z" />
    <glyph glyph-name="quotesinglbase" unicode="&#x201a;" horiz-adv-x="270" 
d="M63 -129q16 23 35 54t31 70q-29 5 -47 21t-18 45q0 34 20 54t52 20t51 -22.5t19 -51.5q0 -27 -11 -57t-27 -59t-35.5 -55t-35.5 -46z" />
    <glyph glyph-name="quotedblbase" unicode="&#x201e;" horiz-adv-x="471" 
d="M63 -129q16 23 35 54t31 70q-29 5 -47 21t-18 45q0 34 20 54t52 20t51 -22.5t19 -51.5q0 -27 -11 -57t-27 -59t-35.5 -55t-35.5 -46zM264 -129q16 23 35 54t31 70q-29 5 -47 21t-18 45q0 34 20 54t52 20t51 -22.5t19 -51.5q0 -27 -11 -57t-27 -59t-35.5 -55t-35.5 -46z
" />
    <glyph glyph-name="quoteleft" unicode="&#x2018;" horiz-adv-x="270" 
d="M207 705q-17 -23 -35.5 -54t-31.5 -70q29 -5 47.5 -21.5t18.5 -44.5q0 -34 -20 -54t-52 -20t-51 22.5t-19 51.5q0 27 11 57t27 59t35 55t36 46z" />
    <glyph glyph-name="quotedblleft" unicode="&#x201c;" horiz-adv-x="471" 
d="M207 705q-17 -23 -35.5 -54t-31.5 -70q29 -5 47.5 -21.5t18.5 -44.5q0 -34 -20 -54t-52 -20t-51 22.5t-19 51.5q0 27 11 57t27 59t35 55t36 46zM408 705q-17 -23 -35.5 -54t-31.5 -70q29 -5 47.5 -21.5t18.5 -44.5q0 -34 -20 -54t-52 -20t-51 22.5t-19 51.5q0 27 11 57
t27 59t35 55t36 46z" />
    <glyph glyph-name="quoteright" unicode="&#x2019;" horiz-adv-x="270" 
d="M63 468q16 23 35 53.5t31 70.5q-29 5 -47 21t-18 45q0 34 20 54t52 20t51 -22.5t19 -51.5q0 -27 -11 -57t-27 -59t-35.5 -55t-35.5 -46z" />
    <glyph glyph-name="quotedblright" unicode="&#x201d;" horiz-adv-x="471" 
d="M63 468q16 23 35 53.5t31 70.5q-29 5 -47 21t-18 45q0 34 20 54t52 20t51 -22.5t19 -51.5q0 -27 -11 -57t-27 -59t-35.5 -55t-35.5 -46zM264 468q16 23 35 53.5t31 70.5q-29 5 -47 21t-18 45q0 34 20 54t52 20t51 -22.5t19 -51.5q0 -27 -11 -57t-27 -59t-35.5 -55
t-35.5 -46z" />
    <glyph glyph-name="guilsinglleft" unicode="&#x2039;" horiz-adv-x="324" 
d="M50 234l148 234l68 -41l-124 -193l124 -193l-68 -41z" />
    <glyph glyph-name="guilsinglright" unicode="&#x203a;" horiz-adv-x="324" 
d="M182 234l-124 193l68 41l148 -234l-148 -234l-68 41z" />
    <glyph glyph-name="guillemotleft" unicode="&#xab;" horiz-adv-x="507" 
d="M50 234l148 234l68 -41l-124 -193l124 -193l-68 -41zM233 234l148 234l68 -41l-124 -193l124 -193l-68 -41z" />
    <glyph glyph-name="guillemotright" unicode="&#xbb;" horiz-adv-x="507" 
d="M182 234l-124 193l68 41l148 -234l-148 -234l-68 41zM365 234l-124 193l68 41l148 -234l-148 -234l-68 41z" />
    <glyph glyph-name="quotesingle" unicode="'" horiz-adv-x="167" 
d="M38 591v129h91v-129l-27 -139h-41z" />
    <glyph glyph-name="quotedbl" unicode="&#x22;" horiz-adv-x="301" 
d="M38 591v129h91v-129l-27 -139h-41zM172 591v129h91v-129l-27 -139h-41z" />
    <glyph glyph-name="asterisk" unicode="*" horiz-adv-x="390" 
d="M73 666l93 -54v108h58v-108l93 54l29 -50l-94 -54l94 -54l-29 -50l-93 53v-107h-58v107l-93 -53l-29 50l93 54l-93 54z" />
    <glyph glyph-name="degree" unicode="&#xb0;" horiz-adv-x="358" 
d="M174 342q-33 0 -61.5 11t-50 32t-33.5 50.5t-12 65.5t12 65.5t33.5 50.5t50 32t61.5 11t61.5 -11t50 -32t33.5 -50.5t12 -65.5t-12 -65.5t-33.5 -50.5t-50 -32t-61.5 -11zM174 413q35 0 59 23t24 65t-24 65t-59 23t-59 -23t-24 -65t24 -65t59 -23z" />
    <glyph glyph-name="bullet" unicode="&#x2022;" horiz-adv-x="290" 
d="M145 188q-25 0 -47 9.5t-38.5 26t-26 38.5t-9.5 47t9.5 47t26 38.5t38.5 26t47 9.5t47 -9.5t38.5 -26t26 -38.5t9.5 -47t-9.5 -47t-26 -38.5t-38.5 -26t-47 -9.5z" />
    <glyph glyph-name="periodcentered" unicode="&#xb7;" horiz-adv-x="246" 
d="M123 240q-29 0 -50 18.5t-21 52.5t21 53t50 19t50 -18.5t21 -52.5t-21 -53t-50 -19z" />
    <glyph glyph-name="ellipsis" unicode="&#x2026;" horiz-adv-x="810" 
d="M135 -8q-29 0 -50 18.5t-21 52.5t21 53t50 19t50 -18.5t21 -52.5t-21 -53t-50 -19zM405 -8q-29 0 -50 18.5t-21 52.5t21 53t50 19t50 -18.5t21 -52.5t-21 -53t-50 -19zM675 -8q-29 0 -50 18.5t-21 52.5t21 53t50 19t50 -18.5t21 -52.5t-21 -53t-50 -19z" />
    <glyph glyph-name="paragraph" unicode="&#xb6;" horiz-adv-x="658" 
d="M338 215h-45q-50 0 -92.5 14.5t-74.5 42.5t-50 69.5t-18 95.5q0 47 19 86t51.5 66.5t76 43t92.5 15.5h125v-852h-84v419zM504 648h84v-852h-84v852z" />
    <glyph glyph-name="section" unicode="&#xa7;" horiz-adv-x="526" 
d="M104 -55q14 -11 33 -25.5t42 -27.5t49 -21.5t54 -8.5q48 0 76 20t28 62q0 31 -27 53t-74 45l-58 28q-21 10 -46.5 23.5t-47.5 33t-37 46t-15 62.5q0 24 7 43.5t19 35.5t28.5 29t35.5 24q-17 10 -33.5 23.5t-29 31t-20 39.5t-7.5 49q0 28 12.5 54.5t36.5 47t60 32.5t84 12
q56 0 102.5 -23t80.5 -51l-45 -62q-10 8 -24.5 18.5t-33 20t-39.5 16t-45 6.5q-20 0 -38.5 -4t-33 -13t-23.5 -23t-9 -33q0 -31 21.5 -52.5t69.5 -45.5l77 -37q24 -12 48 -26.5t43 -34t31 -44t12 -56.5q0 -51 -22.5 -83t-60.5 -53q34 -23 58.5 -55t24.5 -79q0 -33 -12 -61.5
t-36 -50t-60.5 -34t-84.5 -12.5q-36 0 -68 9t-60 23.5t-51 31.5t-41 33zM244 329q-37 -13 -60 -36t-23 -53q0 -31 22.5 -52.5t73.5 -45.5l56 -27q32 12 54 34.5t22 57.5q0 34 -28.5 57t-75.5 46z" />
    <glyph glyph-name="copyright" unicode="&#xa9;" horiz-adv-x="792" 
d="M396 56q54 0 101 22t82 58.5t55.5 85t20.5 102.5t-20.5 102.5t-55.5 85t-82 58.5t-101 22t-101 -22t-82 -58.5t-55.5 -85t-20.5 -102.5t20.5 -102.5t55.5 -85t82 -58.5t101 -22zM396 -12q-66 0 -126.5 26t-106 71.5t-72.5 106.5t-27 132q0 70 27 131.5t72.5 107t106 71.5
t126.5 26t126.5 -26t106 -71.5t72.5 -107t27 -131.5q0 -71 -27 -132t-72.5 -106.5t-106 -71.5t-126.5 -26zM404 142q-40 0 -72 13.5t-54.5 38t-35 58t-12.5 72.5q0 42 14.5 75t38.5 55.5t55.5 34.5t65.5 12q39 0 64.5 -11.5t44.5 -23.5l-33 -55q-12 8 -30 16t-47 8
q-47 0 -75.5 -30.5t-28.5 -80.5q0 -53 30.5 -84.5t78.5 -31.5q34 0 56 11.5t35 22.5l32 -52q-9 -7 -21.5 -15.5t-28 -15.5t-35 -12t-42.5 -5z" />
    <glyph glyph-name="registered" unicode="&#xae;" horiz-adv-x="792" 
d="M396 -12q-66 0 -126.5 26t-106 71.5t-72.5 106.5t-27 132q0 70 27 131.5t72.5 107t106 71.5t126.5 26t126.5 -26t106 -71.5t72.5 -107t27 -131.5q0 -71 -27 -132t-72.5 -106.5t-106 -71.5t-126.5 -26zM396 56q54 0 101 22t82 58.5t55.5 85t20.5 102.5t-20.5 102.5
t-55.5 85t-82 58.5t-101 22t-101 -22t-82 -58.5t-55.5 -85t-20.5 -102.5t20.5 -102.5t55.5 -85t82 -58.5t101 -22zM282 493h108q138 0 138 -104q0 -46 -27 -71t-72 -33l114 -135h-77l-113 131h-5v-131h-66v343zM348 444v-115h39q38 0 58.5 14t20.5 46q0 26 -20 40.5
t-58 14.5h-40z" />
    <glyph glyph-name="trademark" unicode="&#x2122;" horiz-adv-x="780" 
d="M358 653h14l173 -191l174 191h14v-342h-73v188l-115 -125l-115 126v-189h-72v342zM11 648h289v-60h-108v-277h-72v277h-109v60z" />
    <glyph glyph-name="ordfeminine" unicode="&#xaa;" horiz-adv-x="472" 
d="M80 928h630v-648h-630v648z" />
    <glyph glyph-name="ordmasculine" unicode="&#xba;" horiz-adv-x="448" 
d="M80 928h630v-648h-630v648z" />
    <glyph glyph-name="hyphen.case" horiz-adv-x="348" 
d="M44 384h260v-79h-260v79z" />
    <glyph glyph-name="endash.case" horiz-adv-x="444" 
d="M24 384h396v-79h-396v79z" />
    <glyph glyph-name="emdash.case" horiz-adv-x="737" 
d="M24 384h689v-79h-689v79z" />
    <glyph glyph-name="periodcentered.case" horiz-adv-x="246" 
d="M123 260q-29 0 -50 18.5t-21 52.5t21 53t50 19t50 -18.5t21 -52.5t-21 -53t-50 -19z" />
    <glyph glyph-name="bullet.case" horiz-adv-x="290" 
d="M145 208q-25 0 -47 9.5t-38.5 26t-26 38.5t-9.5 47t9.5 47t26 38.5t38.5 26t47 9.5t47 -9.5t38.5 -26t26 -38.5t9.5 -47t-9.5 -47t-26 -38.5t-38.5 -26t-47 -9.5z" />
    <glyph glyph-name="guilsinglleft.case" horiz-adv-x="324" 
d="M50 294l148 234l68 -41l-124 -193l124 -193l-68 -41z" />
    <glyph glyph-name="guilsinglright.case" horiz-adv-x="324" 
d="M182 294l-124 193l68 41l148 -234l-148 -234l-68 41z" />
    <glyph glyph-name="guillemotleft.case" horiz-adv-x="507" 
d="M50 294l148 234l68 -41l-124 -193l124 -193l-68 -41zM233 294l148 234l68 -41l-124 -193l124 -193l-68 -41z" />
    <glyph glyph-name="guillemotright.case" horiz-adv-x="507" 
d="M182 294l-124 193l68 41l148 -234l-148 -234l-68 41zM365 294l-124 193l68 41l148 -234l-148 -234l-68 41z" />
    <glyph glyph-name="exclamdown.case" horiz-adv-x="351" 
d="M241 -28h-111l38 464h35zM184 700q29 0 50 -18.5t21 -52.5t-21 -53t-50 -19t-50 18.5t-21 52.5t21 53t50 19z" />
    <glyph glyph-name="questiondown.case" horiz-adv-x="520" 
d="M346 293l-83 -48q-37 -21 -63 -48t-26 -69q0 -38 29 -62t72 -24q31 0 54 11t38 22l41 -63q-25 -20 -59.5 -36t-75.5 -16q-45 0 -80 13.5t-59 37t-36.5 53.5t-12.5 63q0 30 9.5 55.5t25 47t36.5 39t44 31.5l61 36v100h85v-143zM301 700q29 0 50 -18.5t21 -52.5t-21 -53
t-50 -19t-50 18.5t-21 52.5t21 53t50 19z" />
    <glyph glyph-name="parenleft.case" horiz-adv-x="351" 
d="M79 434q0 75 21 130.5t56 91.5t80.5 54t94.5 18v-76q-30 0 -60.5 -10.5t-55.5 -37t-41 -70t-16 -109.5v-190q0 -65 12.5 -112.5t35 -78.5t54.5 -45.5t71 -14.5v-76q-66 0 -113.5 24.5t-78 67.5t-45.5 101t-15 125v208z" />
    <glyph glyph-name="parenright.case" horiz-adv-x="351" 
d="M272 226q0 -67 -15 -125t-45.5 -101t-78 -67.5t-113.5 -24.5v76q39 0 71 14.5t54.5 45.5t35 78.5t12.5 112.5v190q0 66 -16 109.5t-41 70t-55.5 37t-60.5 10.5v76q49 0 94.5 -18t80.5 -54t56 -91.5t21 -130.5v-208z" />
    <glyph glyph-name="bracketleft.case" horiz-adv-x="292" 
d="M75 720h193v-74h-115v-658h115v-74h-193v806z" />
    <glyph glyph-name="bracketright.case" horiz-adv-x="292" 
d="M217 -86h-193v74h115v658h-115v74h193v-806z" />
    <glyph glyph-name="braceleft.case" horiz-adv-x="288" 
d="M238 -80q-49 0 -77.5 19.5t-42.5 49t-18 64.5t-4 67v44q0 22 -3.5 42.5t-11 36.5t-18.5 25.5t-27 9.5h-8v82h8q16 0 27 9.5t18.5 25.5t11 36.5t3.5 42.5v46q0 31 4 66.5t18 65t42.5 49t77.5 19.5h46v-68h-44q-26 0 -40.5 -12.5t-22 -32t-9.5 -43t-2 -45.5v-53
q0 -44 -10 -80t-44 -67q34 -32 44 -68t10 -79v-51q0 -22 2 -45.5t9.5 -43t22 -32t40.5 -12.5h44v-68h-46z" />
    <glyph glyph-name="braceright.case" horiz-adv-x="288" 
d="M4 -80v68h44q25 0 40 12.5t22.5 32t9.5 43t2 45.5v51q0 43 10 79t43 68q-33 31 -43 67t-10 80v53q0 22 -2 45.5t-9.5 43t-22.5 32t-40 12.5h-44v68h46q49 0 77.5 -19.5t42.5 -49t18 -65t4 -66.5v-46q0 -22 3.5 -42.5t11 -36.5t18.5 -25.5t27 -9.5h8v-82h-8
q-16 0 -27 -9.5t-18.5 -25.5t-11 -36.5t-3.5 -42.5v-44q0 -32 -4 -67t-18 -64.5t-42.5 -49t-77.5 -19.5h-46z" />
    <glyph glyph-name="colon.case" horiz-adv-x="270" 
d="M135 72q-29 0 -50 18.5t-21 52.5t21 53t50 19t50 -18.5t21 -52.5t-21 -53t-50 -19zM135 393q-29 0 -50 18.5t-21 52.5t21 53t50 19t50 -18.5t21 -52.5t-21 -53t-50 -19z" />
    <glyph glyph-name="plus.case" horiz-adv-x="532" 
d="M26 365h203v199h74v-199h203v-74h-203v-203h-74v203h-203v74z" />
    <glyph glyph-name="minus.case" horiz-adv-x="532" 
d="M30 365h472v-74h-472v74z" />
    <glyph glyph-name="multiply.case" horiz-adv-x="532" 
d="M41 148l172 168l-172 168l53 51l172 -168l172 168l53 -51l-173 -168l173 -168l-53 -51l-172 168l-172 -168z" />
    <glyph glyph-name="divide.case" horiz-adv-x="532" 
d="M267 442q-24 0 -44 17.5t-20 45.5t20 45.5t44 17.5q23 0 43 -17.5t20 -45.5t-20 -45.5t-43 -17.5zM267 88q-24 0 -44 17.5t-20 45.5t20 45.5t44 17.5q23 0 43 -17.5t20 -45.5t-20 -45.5t-43 -17.5zM30 365h472v-74h-472v74z" />
    <glyph glyph-name="equal.case" horiz-adv-x="532" 
d="M30 270h476v-74h-476v74zM30 461h476v-74h-476v74z" />
    <glyph glyph-name="less.case" horiz-adv-x="532" 
d="M73 323l316 243l51 -56l-243 -187l243 -179l-51 -56z" />
    <glyph glyph-name="greater.case" horiz-adv-x="532" 
d="M459 331l-316 -243l-51 56l243 186l-243 180l51 56z" />
    <glyph glyph-name="plusminus.case" horiz-adv-x="532" 
d="M42 424h187v169h74v-169h187v-72h-187v-153h-74v153h-187v72zM46 160h440v-72h-440v72z" />
    <glyph glyph-name="lessequal.case" horiz-adv-x="532" 
d="M60 414l385 177l31 -66l-307 -136l307 -137l-31 -65l-385 178v49zM46 160h440v-72h-440v72z" />
    <glyph glyph-name="greaterequal.case" horiz-adv-x="532" 
d="M472 365l-385 -178l-31 65l306 137l-306 136l31 66l385 -177v-49zM486 88h-440v72h440v-72z" />
    <glyph glyph-name="notequal.case" horiz-adv-x="532" 
d="M30 461h277l77 131l61 -33l-57 -98h118v-74h-161l-68 -117h229v-74h-272l-77 -133l-64 30l60 103h-123v74h166l68 117h-234v74z" />
    <glyph glyph-name="logicalnot.case" horiz-adv-x="532" 
d="M39 395h453v-232h-77v158h-376v74z" />
    <glyph glyph-name="asciitilde.case" horiz-adv-x="532" 
d="M30 322q12 13 27.5 26.5t35 25t42.5 18.5t49 7q32 0 53.5 -9.5t40 -21t37 -21t44.5 -9.5q33 0 55.5 15.5t43.5 32.5l43 -49q-13 -13 -28.5 -26.5t-34.5 -24t-41 -17.5t-47 -7q-31 0 -52.5 9.5t-40 21t-37 21t-43.5 9.5q-17 0 -31.5 -5t-27 -12t-23 -15.5t-19.5 -15.5z
" />
    <glyph glyph-name="approxequal.case" horiz-adv-x="532" 
d="M29 220q12 13 27.5 26.5t35 25t42.5 18.5t49 7q32 0 54 -9.5t40.5 -21t37.5 -21t45 -9.5q33 0 56 15.5t44 32.5l43 -49q-13 -13 -28.5 -26.5t-34.5 -24t-41.5 -17.5t-47.5 -7q-31 0 -53 9.5t-40.5 21t-37.5 21t-44 9.5q-17 0 -31.5 -5t-27 -12t-23 -15.5t-19.5 -15.5z
M29 412q12 13 27.5 26.5t35 25t42.5 18.5t49 7q32 0 54 -9.5t40.5 -21t37.5 -21t45 -9.5q33 0 56 15.5t44 32.5l43 -49q-13 -13 -28.5 -26.5t-34.5 -24t-41.5 -17.5t-47.5 -7q-31 0 -53 9.5t-40.5 21t-37.5 21t-44 9.5q-17 0 -31.5 -5t-27 -12t-23 -15.5t-19.5 -15.5z" />
    <glyph glyph-name="infinity.case" horiz-adv-x="940" 
d="M276 125q-43 0 -77.5 15t-59 40.5t-38 60.5t-13.5 75q0 41 13 76t37.5 60.5t59 40t77.5 14.5q32 0 59 -10.5t50.5 -28.5t44.5 -41t40 -48q19 25 40 48t45 41t51 28.5t59 10.5q47 0 82 -16t58.5 -42.5t35.5 -61t12 -71.5t-12 -71.5t-35.5 -61t-58.5 -42.5t-82 -16
q-32 0 -59 10.5t-51 28t-45 40.5t-40 48q-19 -25 -40 -48t-44.5 -40.5t-50.5 -28t-58 -10.5zM278 198q21 0 40 9.5t37 26t34.5 37.5t33.5 45q-17 24 -33.5 45t-34.5 37t-37 25.5t-40 9.5q-54 0 -84 -32.5t-30 -84.5q0 -56 31.5 -87t82.5 -31zM664 433q-22 0 -41.5 -9.5
t-37.5 -26t-35.5 -37.5t-34.5 -45q17 -24 34.5 -45t35.5 -37t37.5 -25.5t41.5 -9.5q55 0 83.5 35t28.5 83q0 24 -7.5 45.5t-22 37t-35 25t-47.5 9.5z" />
    <glyph glyph-name="uni2113" unicode="&#x2113;" horiz-adv-x="464" 
d="M31 173l83 84v241q0 85 38 124t98 39q62 0 92 -39t30 -99q0 -36 -9 -66.5t-25 -58.5t-37.5 -54.5t-46.5 -54.5l-57 -64v-40q0 -63 26 -91t72 -28q29 0 52.5 10.5t40.5 20.5l32 -62q-23 -16 -55.5 -31.5t-79.5 -15.5q-41 0 -72.5 13t-52.5 35.5t-32.5 52.5t-13.5 63
l-83 -83v104zM197 337l14 17q21 25 35.5 46t24 41t14 40t4.5 44q0 27 -9.5 43.5t-32.5 16.5q-50 0 -50 -100v-148z" />
    <glyph glyph-name="uni2116" unicode="&#x2116;" horiz-adv-x="1100" 
d="M83 664h8l393 -466v450h85v-663h-9l-392 463v-448h-85v664zM876 268q-44 0 -79 14.5t-60.5 40t-39 61.5t-13.5 80q0 43 13.5 79.5t39 62t60.5 40t79 14.5q43 0 78.5 -14.5t61 -40t39 -62t13.5 -79.5q0 -44 -13.5 -80t-39 -61.5t-61 -40t-78.5 -14.5zM876 332
q30 0 52.5 11t37.5 29t22.5 42t7.5 50t-7.5 50t-22.5 42t-37.5 29t-52.5 11t-52.5 -11t-37.5 -29t-22.5 -42t-7.5 -50t7.5 -50t22.5 -42t37.5 -29t52.5 -11zM708 210h336v-64h-336v64z" />
    <glyph glyph-name="estimated" unicode="&#x212e;" horiz-adv-x="883" 
d="M181 141q0 -6 3 -12t8 -12q47 -49 111 -78t140 -29q80 0 147.5 32.5t116.5 89.5h59q-56 -66 -140.5 -105t-183.5 -39q-85 0 -159.5 29.5t-130 80t-88 118t-32.5 144.5q0 76 32.5 143.5t88 118.5t130 80.5t159.5 29.5t159.5 -29.5t130 -80.5t87.5 -118.5t32 -143.5v-11
h-662q-8 0 -8 -4v-204zM697 372q5 0 5 6v203q0 8 -3 13.5t-8 11.5q-48 48 -112 75.5t-136 27.5q-75 0 -138.5 -29t-111.5 -77q-5 -6 -8.5 -12.5t-3.5 -14.5v-198q0 -6 8 -6h508z" />
    <glyph glyph-name="filledbox" unicode="&#x25a0;" 
d="M80 648h630v-648h-630v648z" />
    <glyph glyph-name="H22073" unicode="&#x25a1;" 
d="M80 648h630v-648h-630v648zM636 60v520h-482v-520h482z" />
    <glyph glyph-name="uni25FC" unicode="&#x25fc;" horiz-adv-x="628" 
d="M80 468h468v-468h-468v468z" />
    <glyph glyph-name="uni25FB" unicode="&#x25fb;" horiz-adv-x="628" 
d="M80 468h468v-468h-468v468zM478 59v350h-328v-350h328z" />
    <glyph glyph-name="uni25B6" unicode="&#x25b6;" horiz-adv-x="534" 
d="M80 490l422 -255l-422 -259v514z" />
    <glyph glyph-name="uni25B7" unicode="&#x25b7;" horiz-adv-x="534" 
d="M388 235l-237 132v-268zM80 490l422 -255l-422 -259v514z" />
    <glyph glyph-name="uni25C0" unicode="&#x25c0;" horiz-adv-x="534" 
d="M454 490v-514l-422 259z" />
    <glyph glyph-name="uni25C1" unicode="&#x25c1;" horiz-adv-x="534" 
d="M383 99v268l-237 -132zM454 490v-514l-422 259z" />
    <glyph glyph-name="circle" unicode="&#x25cb;" horiz-adv-x="568" 
d="M284 46q38 0 69.5 13.5t54.5 38t36 59.5t13 77t-13 77t-36 59.5t-54.5 38t-69.5 13.5t-69.5 -13.5t-54.5 -38t-36 -59.5t-13 -77t13 -77t36 -59.5t54.5 -38t69.5 -13.5zM284 -12q-51 0 -95.5 17t-77.5 48.5t-52 77.5t-19 103t19 103t52 77.5t77.5 48.5t95.5 17t95.5 -17
t77.5 -48.5t52 -77.5t19 -103t-19 -103t-52 -77.5t-77.5 -48.5t-95.5 -17z" />
    <glyph glyph-name="H18533" unicode="&#x25cf;" horiz-adv-x="568" 
d="M40 234q0 57 19 103t52 77.5t77.5 48.5t95.5 17t95.5 -17t77.5 -48.5t52 -77.5t19 -103t-19 -103t-52 -77.5t-77.5 -48.5t-95.5 -17t-95.5 17t-77.5 48.5t-52 77.5t-19 103z" />
    <glyph glyph-name="arrowleft" unicode="&#x2190;" horiz-adv-x="966" 
d="M259 526h8v-149h651v-86h-651v-145h-8l-203 188z" />
    <glyph glyph-name="arrowup" unicode="&#x2191;" horiz-adv-x="564" 
d="M92 529l188 203l192 -203v-8h-148v-560h-84v560h-148v8z" />
    <glyph glyph-name="arrowright" unicode="&#x2192;" horiz-adv-x="966" 
d="M48 377h651v145h8l203 -188l-203 -192h-8v149h-651v86z" />
    <glyph glyph-name="arrowdown" unicode="&#x2193;" horiz-adv-x="564" 
d="M92 164v8h148v560h84v-560h148v-8l-188 -203z" />
    <glyph glyph-name="uni2196" unicode="&#x2196;" horiz-adv-x="774" 
d="M84 648h285v-11l-108 -108l463 -469l-59 -60l-464 469l-106 -106h-11v285z" />
    <glyph glyph-name="uni2197" unicode="&#x2197;" horiz-adv-x="774" 
d="M572 469l-463 -469l-59 60l462 469l-107 108v11h285v-285h-11z" />
    <glyph glyph-name="uni2198" unicode="&#x2198;" horiz-adv-x="774" 
d="M512 118l-462 470l59 60l463 -470l107 107h11v-285h-285v11z" />
    <glyph glyph-name="uni2199" unicode="&#x2199;" horiz-adv-x="774" 
d="M84 285h11l106 -107l464 470l59 -60l-463 -470l108 -107v-11h-285v285z" />
    <glyph glyph-name="uni2605" unicode="&#x2605;" horiz-adv-x="573" 
d="M181 191l-169 113l4 15l207 -8l56 200h15l56 -200l207 8l4 -15l-169 -113l71 -192l-15 -11l-162 124l-161 -124l-15 11z" />
    <glyph glyph-name="a.dnom" 
d="M80 648h630v-648h-630v648z" />
    <glyph glyph-name="b.dnom" 
d="M80 648h630v-648h-630v648z" />
    <glyph glyph-name="c.dnom" 
d="M80 648h630v-648h-630v648z" />
    <glyph glyph-name="d.dnom" 
d="M80 648h630v-648h-630v648z" />
    <glyph glyph-name="e.dnom" 
d="M80 648h630v-648h-630v648z" />
    <glyph glyph-name="f.dnom" 
d="M80 648h630v-648h-630v648z" />
    <glyph glyph-name="g.dnom" 
d="M80 648h630v-648h-630v648z" />
    <glyph glyph-name="h.dnom" 
d="M80 648h630v-648h-630v648z" />
    <glyph glyph-name="i.dnom" 
d="M80 648h630v-648h-630v648z" />
    <glyph glyph-name="j.dnom" 
d="M80 648h630v-648h-630v648z" />
    <glyph glyph-name="k.dnom" 
d="M80 648h630v-648h-630v648z" />
    <glyph glyph-name="l.dnom" 
d="M80 648h630v-648h-630v648z" />
    <glyph glyph-name="m.dnom" 
d="M80 648h630v-648h-630v648z" />
    <glyph glyph-name="n.dnom" 
d="M80 648h630v-648h-630v648z" />
    <glyph glyph-name="o.dnom" 
d="M80 648h630v-648h-630v648z" />
    <glyph glyph-name="p.dnom" 
d="M80 648h630v-648h-630v648z" />
    <glyph glyph-name="q.dnom" 
d="M80 648h630v-648h-630v648z" />
    <glyph glyph-name="r.dnom" 
d="M80 648h630v-648h-630v648z" />
    <glyph glyph-name="s.dnom" 
d="M80 648h630v-648h-630v648z" />
    <glyph glyph-name="t.dnom" 
d="M80 648h630v-648h-630v648z" />
    <glyph glyph-name="u.dnom" 
d="M80 648h630v-648h-630v648z" />
    <glyph glyph-name="v.dnom" 
d="M80 648h630v-648h-630v648z" />
    <glyph glyph-name="w.dnom" 
d="M80 648h630v-648h-630v648z" />
    <glyph glyph-name="x.dnom" 
d="M80 648h630v-648h-630v648z" />
    <glyph glyph-name="y.dnom" 
d="M80 648h630v-648h-630v648z" />
    <glyph glyph-name="z.dnom" 
d="M80 648h630v-648h-630v648z" />
    <glyph glyph-name="zero.dnom" 
d="M80 648h630v-648h-630v648z" />
    <glyph glyph-name="one.dnom" 
d="M80 648h630v-648h-630v648z" />
    <glyph glyph-name="two.dnom" 
d="M80 648h630v-648h-630v648z" />
    <glyph glyph-name="three.dnom" 
d="M80 648h630v-648h-630v648z" />
    <glyph glyph-name="four.dnom" 
d="M80 648h630v-648h-630v648z" />
    <glyph glyph-name="five.dnom" 
d="M80 648h630v-648h-630v648z" />
    <glyph glyph-name="six.dnom" 
d="M80 648h630v-648h-630v648z" />
    <glyph glyph-name="seven.dnom" 
d="M80 648h630v-648h-630v648z" />
    <glyph glyph-name="eight.dnom" 
d="M80 648h630v-648h-630v648z" />
    <glyph glyph-name="nine.dnom" 
d="M80 648h630v-648h-630v648z" />
    <glyph glyph-name="dollar.dnom" 
d="M80 648h630v-648h-630v648z" />
    <glyph glyph-name="cent.dnom" 
d="M80 648h630v-648h-630v648z" />
    <glyph glyph-name="Euro.dnom" 
d="M80 648h630v-648h-630v648z" />
    <glyph glyph-name="yen.dnom" 
d="M80 648h630v-648h-630v648z" />
    <glyph glyph-name="sterling.dnom" 
d="M80 648h630v-648h-630v648z" />
    <glyph glyph-name="plus.dnom" 
d="M80 648h630v-648h-630v648z" />
    <glyph glyph-name="minus.dnom" 
d="M80 648h630v-648h-630v648z" />
    <glyph glyph-name="multiply.dnom" 
d="M80 648h630v-648h-630v648z" />
    <glyph glyph-name="divide.dnom" 
d="M80 648h630v-648h-630v648z" />
    <glyph glyph-name="equal.dnom" 
d="M80 648h630v-648h-630v648z" />
    <glyph glyph-name="period.dnom" 
d="M80 648h630v-648h-630v648z" />
    <glyph glyph-name="comma.dnom" 
d="M80 648h630v-648h-630v648z" />
    <glyph glyph-name="hyphen.dnom" 
d="M80 648h630v-648h-630v648z" />
    <glyph glyph-name="parenleft.dnom" 
d="M80 648h630v-648h-630v648z" />
    <glyph glyph-name="parenright.dnom" 
d="M80 648h630v-648h-630v648z" />
    <glyph glyph-name="a.numr" 
d="M80 648h630v-648h-630v648z" />
    <glyph glyph-name="b.numr" 
d="M80 648h630v-648h-630v648z" />
    <glyph glyph-name="c.numr" 
d="M80 648h630v-648h-630v648z" />
    <glyph glyph-name="d.numr" 
d="M80 648h630v-648h-630v648z" />
    <glyph glyph-name="e.numr" 
d="M80 648h630v-648h-630v648z" />
    <glyph glyph-name="f.numr" 
d="M80 648h630v-648h-630v648z" />
    <glyph glyph-name="g.numr" 
d="M80 648h630v-648h-630v648z" />
    <glyph glyph-name="h.numr" 
d="M80 648h630v-648h-630v648z" />
    <glyph glyph-name="i.numr" 
d="M80 648h630v-648h-630v648z" />
    <glyph glyph-name="j.numr" 
d="M80 648h630v-648h-630v648z" />
    <glyph glyph-name="k.numr" 
d="M80 648h630v-648h-630v648z" />
    <glyph glyph-name="l.numr" 
d="M80 648h630v-648h-630v648z" />
    <glyph glyph-name="m.numr" 
d="M80 648h630v-648h-630v648z" />
    <glyph glyph-name="n.numr" 
d="M80 648h630v-648h-630v648z" />
    <glyph glyph-name="o.numr" 
d="M80 648h630v-648h-630v648z" />
    <glyph glyph-name="p.numr" 
d="M80 648h630v-648h-630v648z" />
    <glyph glyph-name="q.numr" 
d="M80 648h630v-648h-630v648z" />
    <glyph glyph-name="r.numr" 
d="M80 648h630v-648h-630v648z" />
    <glyph glyph-name="s.numr" 
d="M80 648h630v-648h-630v648z" />
    <glyph glyph-name="t.numr" 
d="M80 648h630v-648h-630v648z" />
    <glyph glyph-name="u.numr" 
d="M80 648h630v-648h-630v648z" />
    <glyph glyph-name="v.numr" 
d="M80 648h630v-648h-630v648z" />
    <glyph glyph-name="w.numr" 
d="M80 648h630v-648h-630v648z" />
    <glyph glyph-name="x.numr" 
d="M80 648h630v-648h-630v648z" />
    <glyph glyph-name="y.numr" 
d="M80 648h630v-648h-630v648z" />
    <glyph glyph-name="z.numr" 
d="M80 648h630v-648h-630v648z" />
    <glyph glyph-name="zero.numr" 
d="M80 648h630v-648h-630v648z" />
    <glyph glyph-name="one.numr" 
d="M80 648h630v-648h-630v648z" />
    <glyph glyph-name="two.numr" 
d="M80 648h630v-648h-630v648z" />
    <glyph glyph-name="three.numr" 
d="M80 648h630v-648h-630v648z" />
    <glyph glyph-name="four.numr" 
d="M80 648h630v-648h-630v648z" />
    <glyph glyph-name="five.numr" 
d="M80 648h630v-648h-630v648z" />
    <glyph glyph-name="six.numr" 
d="M80 648h630v-648h-630v648z" />
    <glyph glyph-name="seven.numr" 
d="M80 648h630v-648h-630v648z" />
    <glyph glyph-name="eight.numr" 
d="M80 648h630v-648h-630v648z" />
    <glyph glyph-name="nine.numr" 
d="M80 648h630v-648h-630v648z" />
    <glyph glyph-name="dollar.numr" 
d="M80 648h630v-648h-630v648z" />
    <glyph glyph-name="cent.numr" 
d="M80 648h630v-648h-630v648z" />
    <glyph glyph-name="Euro.numr" 
d="M80 648h630v-648h-630v648z" />
    <glyph glyph-name="yen.numr" 
d="M80 648h630v-648h-630v648z" />
    <glyph glyph-name="sterling.numr" 
d="M80 648h630v-648h-630v648z" />
    <glyph glyph-name="plus.numr" horiz-adv-x="328" 
d="M80 928h630v-648h-630v648z" />
    <glyph glyph-name="minus.numr" horiz-adv-x="328" 
d="M80 928h630v-648h-630v648z" />
    <glyph glyph-name="multiply.numr" horiz-adv-x="328" 
d="M80 928h630v-648h-630v648z" />
    <glyph glyph-name="divide.numr" horiz-adv-x="328" 
d="M80 928h630v-648h-630v648z" />
    <glyph glyph-name="equal.numr" horiz-adv-x="328" 
d="M80 928h630v-648h-630v648z" />
    <glyph glyph-name="period.numr" horiz-adv-x="200" 
d="M80 928h630v-648h-630v648z" />
    <glyph glyph-name="comma.numr" horiz-adv-x="200" 
d="M80 928h630v-648h-630v648z" />
    <glyph glyph-name="hyphen.numr" horiz-adv-x="284" 
d="M80 928h630v-648h-630v648z" />
    <glyph glyph-name="parenleft.numr" horiz-adv-x="244" 
d="M80 928h630v-648h-630v648z" />
    <glyph glyph-name="parenright.numr" horiz-adv-x="244" 
d="M80 928h630v-648h-630v648z" />
    <glyph glyph-name="uni2090" unicode="&#x2090;" horiz-adv-x="472" 
d="M80 497h630v-648h-630v648z" />
    <glyph glyph-name="b.subs" horiz-adv-x="472" 
d="M80 497h630v-648h-630v648z" />
    <glyph glyph-name="c.subs" horiz-adv-x="400" 
d="M80 497h630v-648h-630v648z" />
    <glyph glyph-name="d.subs" horiz-adv-x="472" 
d="M80 497h630v-648h-630v648z" />
    <glyph glyph-name="uni2091" unicode="&#x2091;" horiz-adv-x="417" 
d="M80 497h630v-648h-630v648z" />
    <glyph glyph-name="f.subs" horiz-adv-x="308" 
d="M80 497h630v-648h-630v648z" />
    <glyph glyph-name="g.subs" horiz-adv-x="472" 
d="M80 497h630v-648h-630v648z" />
    <glyph glyph-name="uni2095" unicode="&#x2095;" horiz-adv-x="472" 
d="M80 497h630v-648h-630v648z" />
    <glyph glyph-name="i.subs" horiz-adv-x="216" 
d="M80 497h630v-648h-630v648z" />
    <glyph glyph-name="j.subs" horiz-adv-x="276" 
d="M80 497h630v-648h-630v648z" />
    <glyph glyph-name="uni2096" unicode="&#x2096;" horiz-adv-x="412" 
d="M80 497h630v-648h-630v648z" />
    <glyph glyph-name="uni2097" unicode="&#x2097;" horiz-adv-x="216" 
d="M80 497h630v-648h-630v648z" />
    <glyph glyph-name="uni2098" unicode="&#x2098;" horiz-adv-x="716" 
d="M80 497h630v-648h-630v648z" />
    <glyph glyph-name="uni2099" unicode="&#x2099;" horiz-adv-x="472" 
d="M80 497h630v-648h-630v648z" />
    <glyph glyph-name="uni2092" unicode="&#x2092;" horiz-adv-x="448" 
d="M80 497h630v-648h-630v648z" />
    <glyph glyph-name="uni209A" unicode="&#x209a;" horiz-adv-x="472" 
d="M80 497h630v-648h-630v648z" />
    <glyph glyph-name="q.subs" horiz-adv-x="472" 
d="M80 497h630v-648h-630v648z" />
    <glyph glyph-name="r.subs" horiz-adv-x="304" 
d="M80 497h630v-648h-630v648z" />
    <glyph glyph-name="uni209B" unicode="&#x209b;" horiz-adv-x="352" 
d="M80 497h630v-648h-630v648z" />
    <glyph glyph-name="uni209C" unicode="&#x209c;" horiz-adv-x="348" 
d="M5 217h80v129l72 11v-140h152v-60h-152v-160q0 -48 21 -72t59 -24q23 0 42 8q20 8 34 16l28 -52q-19 -13 -46 -24q-27 -12 -66 -12q-35 0 -62 11t-45 31q-18 19 -28 46q-9 26 -9 56v176h-80v60z" />
    <glyph glyph-name="u.subs" horiz-adv-x="464" 
d="M80 497h630v-648h-630v648z" />
    <glyph glyph-name="v.subs" horiz-adv-x="360" 
d="M80 497h630v-648h-630v648z" />
    <glyph glyph-name="w.subs" horiz-adv-x="572" 
d="M80 497h630v-648h-630v648z" />
    <glyph glyph-name="uni2093" unicode="&#x2093;" horiz-adv-x="364" 
d="M80 497h630v-648h-630v648z" />
    <glyph glyph-name="y.subs" horiz-adv-x="368" 
d="M80 497h630v-648h-630v648z" />
    <glyph glyph-name="z.subs" horiz-adv-x="372" 
d="M80 497h630v-648h-630v648z" />
    <glyph glyph-name="uni2080" unicode="&#x2080;" horiz-adv-x="328" 
d="M80 497h630v-648h-630v648z" />
    <glyph glyph-name="uni2081" unicode="&#x2081;" horiz-adv-x="328" 
d="M80 497h630v-648h-630v648z" />
    <glyph glyph-name="uni2082" unicode="&#x2082;" horiz-adv-x="328" 
d="M80 497h630v-648h-630v648z" />
    <glyph glyph-name="uni2083" unicode="&#x2083;" horiz-adv-x="328" 
d="M80 497h630v-648h-630v648z" />
    <glyph glyph-name="uni2084" unicode="&#x2084;" horiz-adv-x="328" 
d="M80 497h630v-648h-630v648z" />
    <glyph glyph-name="uni2085" unicode="&#x2085;" horiz-adv-x="328" 
d="M80 497h630v-648h-630v648z" />
    <glyph glyph-name="uni2086" unicode="&#x2086;" horiz-adv-x="328" 
d="M80 497h630v-648h-630v648z" />
    <glyph glyph-name="uni2087" unicode="&#x2087;" horiz-adv-x="328" 
d="M80 497h630v-648h-630v648z" />
    <glyph glyph-name="uni2088" unicode="&#x2088;" horiz-adv-x="328" 
d="M80 497h630v-648h-630v648z" />
    <glyph glyph-name="uni2089" unicode="&#x2089;" horiz-adv-x="328" 
d="M80 497h630v-648h-630v648z" />
    <glyph glyph-name="dollar.subs" horiz-adv-x="328" 
d="M80 497h630v-648h-630v648z" />
    <glyph glyph-name="cent.subs" horiz-adv-x="328" 
d="M80 497h630v-648h-630v648z" />
    <glyph glyph-name="Euro.subs" horiz-adv-x="328" 
d="M80 497h630v-648h-630v648z" />
    <glyph glyph-name="yen.subs" horiz-adv-x="328" 
d="M80 497h630v-648h-630v648z" />
    <glyph glyph-name="sterling.subs" horiz-adv-x="328" 
d="M80 497h630v-648h-630v648z" />
    <glyph glyph-name="uni208A" unicode="&#x208a;" horiz-adv-x="328" 
d="M80 497h630v-648h-630v648z" />
    <glyph glyph-name="uni208B" unicode="&#x208b;" horiz-adv-x="328" 
d="M80 497h630v-648h-630v648z" />
    <glyph glyph-name="multiply.subs" horiz-adv-x="328" 
d="M80 497h630v-648h-630v648z" />
    <glyph glyph-name="divide.subs" horiz-adv-x="328" 
d="M80 497h630v-648h-630v648z" />
    <glyph glyph-name="uni208C" unicode="&#x208c;" horiz-adv-x="328" 
d="M80 497h630v-648h-630v648z" />
    <glyph glyph-name="period.subs" horiz-adv-x="200" 
d="M80 497h630v-648h-630v648z" />
    <glyph glyph-name="comma.subs" horiz-adv-x="200" 
d="M80 497h630v-648h-630v648z" />
    <glyph glyph-name="hyphen.subs" horiz-adv-x="284" 
d="M80 497h630v-648h-630v648z" />
    <glyph glyph-name="uni208D" unicode="&#x208d;" horiz-adv-x="244" 
d="M80 497h630v-648h-630v648z" />
    <glyph glyph-name="uni208E" unicode="&#x208e;" horiz-adv-x="244" 
d="M80 497h630v-648h-630v648z" />
    <glyph glyph-name="a.sups" horiz-adv-x="472" 
d="M80 1080h630v-648h-630v648z" />
    <glyph glyph-name="b.sups" horiz-adv-x="472" 
d="M80 1080h630v-648h-630v648z" />
    <glyph glyph-name="c.sups" horiz-adv-x="400" 
d="M80 1080h630v-648h-630v648z" />
    <glyph glyph-name="d.sups" horiz-adv-x="472" 
d="M80 1080h630v-648h-630v648z" />
    <glyph glyph-name="e.sups" horiz-adv-x="417" 
d="M80 1080h630v-648h-630v648z" />
    <glyph glyph-name="f.sups" horiz-adv-x="308" 
d="M80 1080h630v-648h-630v648z" />
    <glyph glyph-name="g.sups" horiz-adv-x="472" 
d="M80 1080h630v-648h-630v648z" />
    <glyph glyph-name="h.sups" horiz-adv-x="472" 
d="M80 1080h630v-648h-630v648z" />
    <glyph glyph-name="uni2071" unicode="&#x2071;" horiz-adv-x="216" 
d="M80 1080h630v-648h-630v648z" />
    <glyph glyph-name="j.sups" horiz-adv-x="276" 
d="M80 1080h630v-648h-630v648z" />
    <glyph glyph-name="k.sups" horiz-adv-x="412" 
d="M80 1080h630v-648h-630v648z" />
    <glyph glyph-name="l.sups" horiz-adv-x="216" 
d="M80 1080h630v-648h-630v648z" />
    <glyph glyph-name="m.sups" horiz-adv-x="716" 
d="M80 1080h630v-648h-630v648z" />
    <glyph glyph-name="uni207F" unicode="&#x207f;" horiz-adv-x="472" 
d="M80 1080h630v-648h-630v648z" />
    <glyph glyph-name="o.sups" horiz-adv-x="448" 
d="M80 1080h630v-648h-630v648z" />
    <glyph glyph-name="p.sups" horiz-adv-x="472" 
d="M80 1080h630v-648h-630v648z" />
    <glyph glyph-name="q.sups" horiz-adv-x="472" 
d="M80 1080h630v-648h-630v648z" />
    <glyph glyph-name="r.sups" horiz-adv-x="304" 
d="M80 1080h630v-648h-630v648z" />
    <glyph glyph-name="s.sups" horiz-adv-x="352" 
d="M80 1080h630v-648h-630v648z" />
    <glyph glyph-name="t.sups" horiz-adv-x="348" 
d="M80 1080h630v-648h-630v648z" />
    <glyph glyph-name="u.sups" horiz-adv-x="464" 
d="M80 1080h630v-648h-630v648z" />
    <glyph glyph-name="v.sups" horiz-adv-x="360" 
d="M80 1080h630v-648h-630v648z" />
    <glyph glyph-name="w.sups" horiz-adv-x="572" 
d="M80 1080h630v-648h-630v648z" />
    <glyph glyph-name="x.sups" horiz-adv-x="364" 
d="M80 1080h630v-648h-630v648z" />
    <glyph glyph-name="y.sups" horiz-adv-x="368" 
d="M80 1080h630v-648h-630v648z" />
    <glyph glyph-name="z.sups" horiz-adv-x="372" 
d="M80 1080h630v-648h-630v648z" />
    <glyph glyph-name="uni2070" unicode="&#x2070;" horiz-adv-x="328" 
d="M80 1080h630v-648h-630v648z" />
    <glyph glyph-name="uni00B9" unicode="&#xb9;" horiz-adv-x="328" 
d="M80 1080h630v-648h-630v648z" />
    <glyph glyph-name="uni00B2" unicode="&#xb2;" horiz-adv-x="328" 
d="M80 1080h630v-648h-630v648z" />
    <glyph glyph-name="uni00B3" unicode="&#xb3;" horiz-adv-x="328" 
d="M80 1080h630v-648h-630v648z" />
    <glyph glyph-name="uni2074" unicode="&#x2074;" horiz-adv-x="328" 
d="M80 1080h630v-648h-630v648z" />
    <glyph glyph-name="uni2075" unicode="&#x2075;" horiz-adv-x="328" 
d="M80 1080h630v-648h-630v648z" />
    <glyph glyph-name="uni2076" unicode="&#x2076;" horiz-adv-x="328" 
d="M80 1080h630v-648h-630v648z" />
    <glyph glyph-name="uni2077" unicode="&#x2077;" horiz-adv-x="328" 
d="M80 1080h630v-648h-630v648z" />
    <glyph glyph-name="uni2078" unicode="&#x2078;" horiz-adv-x="328" 
d="M80 1080h630v-648h-630v648z" />
    <glyph glyph-name="uni2079" unicode="&#x2079;" horiz-adv-x="328" 
d="M80 1080h630v-648h-630v648z" />
    <glyph glyph-name="dollar.sups" horiz-adv-x="328" 
d="M80 1080h630v-648h-630v648z" />
    <glyph glyph-name="cent.sups" horiz-adv-x="328" 
d="M80 1080h630v-648h-630v648z" />
    <glyph glyph-name="Euro.sups" horiz-adv-x="328" 
d="M80 1080h630v-648h-630v648z" />
    <glyph glyph-name="yen.sups" horiz-adv-x="328" 
d="M80 1080h630v-648h-630v648z" />
    <glyph glyph-name="sterling.sups" horiz-adv-x="328" 
d="M80 1080h630v-648h-630v648z" />
    <glyph glyph-name="uni207A" unicode="&#x207a;" horiz-adv-x="328" 
d="M80 1080h630v-648h-630v648z" />
    <glyph glyph-name="uni207B" unicode="&#x207b;" horiz-adv-x="328" 
d="M80 1080h630v-648h-630v648z" />
    <glyph glyph-name="multiply.sups" horiz-adv-x="328" 
d="M80 1080h630v-648h-630v648z" />
    <glyph glyph-name="divide.sups" horiz-adv-x="328" 
d="M80 1080h630v-648h-630v648z" />
    <glyph glyph-name="uni207C" unicode="&#x207c;" horiz-adv-x="328" 
d="M80 1080h630v-648h-630v648z" />
    <glyph glyph-name="period.sups" horiz-adv-x="200" 
d="M80 1080h630v-648h-630v648z" />
    <glyph glyph-name="comma.sups" horiz-adv-x="200" 
d="M80 1080h630v-648h-630v648z" />
    <glyph glyph-name="hyphen.sups" horiz-adv-x="284" 
d="M80 1080h630v-648h-630v648z" />
    <glyph glyph-name="uni207D" unicode="&#x207d;" horiz-adv-x="244" 
d="M80 1080h630v-648h-630v648z" />
    <glyph glyph-name="uni207E" unicode="&#x207e;" horiz-adv-x="244" 
d="M80 1080h630v-648h-630v648z" />
    <glyph glyph-name="fraction" unicode="&#x2044;" horiz-adv-x="107" 
d="M238 648h61l-429 -648h-62z" />
    <glyph glyph-name="percent" unicode="%" horiz-adv-x="763" 
d="M566 648h61l-429 -648h-62zM80 928h630v-648h-630v648zM515 648h630v-648h-630v648z" />
    <glyph glyph-name="perthousand" unicode="&#x2030;" horiz-adv-x="1091" 
d="M566 648h61l-429 -648h-62zM80 928h630v-648h-630v648zM515 648h630v-648h-630v648zM843 648h630v-648h-630v648z" />
    <glyph glyph-name="onehalf" unicode="&#xbd;" horiz-adv-x="763" 
d="M566 648h61l-429 -648h-62zM80 928h630v-648h-630v648zM515 648h630v-648h-630v648z" />
    <glyph glyph-name="onethird" unicode="&#x2153;" horiz-adv-x="763" 
d="M546 648h61l-429 -648h-62zM80 928h630v-648h-630v648zM515 648h630v-648h-630v648z" />
    <glyph glyph-name="twothirds" unicode="&#x2154;" horiz-adv-x="763" 
d="M566 648h61l-429 -648h-62zM80 928h630v-648h-630v648zM515 648h630v-648h-630v648z" />
    <glyph glyph-name="onequarter" unicode="&#xbc;" horiz-adv-x="763" 
d="M586 648h61l-429 -648h-62zM80 928h630v-648h-630v648zM515 648h630v-648h-630v648z" />
    <glyph glyph-name="threequarters" unicode="&#xbe;" horiz-adv-x="763" 
d="M594 648h61l-429 -648h-62zM80 928h630v-648h-630v648zM515 648h630v-648h-630v648z" />
    <glyph glyph-name="uni2155" unicode="&#x2155;" horiz-adv-x="763" 
d="M558 648h61l-429 -648h-62zM80 928h630v-648h-630v648zM515 648h630v-648h-630v648z" />
    <glyph glyph-name="uni2156" unicode="&#x2156;" horiz-adv-x="763" 
d="M566 648h61l-429 -648h-62zM80 928h630v-648h-630v648zM515 648h630v-648h-630v648z" />
    <glyph glyph-name="uni2157" unicode="&#x2157;" horiz-adv-x="763" 
d="M554 648h61l-429 -648h-62zM80 928h630v-648h-630v648zM515 648h630v-648h-630v648z" />
    <glyph glyph-name="uni2158" unicode="&#x2158;" horiz-adv-x="763" 
d="M566 648h61l-429 -648h-62zM80 928h630v-648h-630v648zM515 648h630v-648h-630v648z" />
    <glyph glyph-name="uni2159" unicode="&#x2159;" horiz-adv-x="763" 
d="M574 648h61l-429 -648h-62zM80 928h630v-648h-630v648zM515 648h630v-648h-630v648z" />
    <glyph glyph-name="uni215A" unicode="&#x215a;" horiz-adv-x="763" 
d="M578 648h61l-429 -648h-62zM80 928h630v-648h-630v648zM515 648h630v-648h-630v648z" />
    <glyph glyph-name="oneeighth" unicode="&#x215b;" horiz-adv-x="763" 
d="M554 648h61l-429 -648h-62zM80 928h630v-648h-630v648zM515 648h630v-648h-630v648z" />
    <glyph glyph-name="threeeighths" unicode="&#x215c;" horiz-adv-x="763" 
d="M566 648h61l-429 -648h-62zM80 928h630v-648h-630v648zM515 648h630v-648h-630v648z" />
    <glyph glyph-name="fiveeighths" unicode="&#x215d;" horiz-adv-x="763" 
d="M566 648h61l-429 -648h-62zM80 928h630v-648h-630v648zM515 648h630v-648h-630v648z" />
    <glyph glyph-name="seveneighths" unicode="&#x215e;" horiz-adv-x="763" 
d="M530 648h61l-429 -648h-62zM80 928h630v-648h-630v648zM515 648h630v-648h-630v648z" />
    <glyph glyph-name="uni03A9" unicode="&#x3a9;" horiz-adv-x="799" 
d="M88 76h159q-73 37 -115.5 109.5t-42.5 163.5q0 66 23 123t64 99t98 65.5t125 23.5q67 0 124 -23.5t98.5 -65.5t64.5 -99t23 -123q0 -91 -42 -163.5t-115 -109.5h156v-76h-267v118q35 6 67 24t56.5 47t39 69t14.5 91q0 57 -18.5 101t-49.5 73t-70 44t-81 15t-81.5 -15
t-70 -44t-49 -73t-18.5 -101q0 -51 14.5 -91t39 -69t57 -47t67.5 -24v-118h-270v76z" />
    <glyph glyph-name="uni0394" unicode="&#x394;" horiz-adv-x="615" 
d="M299 660h15l272 -660h-557zM150 79h315l-160 391z" />
    <glyph glyph-name="uni03BC" unicode="&#x3bc;" horiz-adv-x="569" 
d="M85 468h84v-303q2 -52 31.5 -76.5t73.5 -24.5q23 0 45.5 9t40.5 28t29 49.5t11 73.5v244h84v-468h-84v74q-20 -34 -57.5 -60t-83.5 -26q-21 0 -45 7t-45 24v-223h-84v672z" />
    <glyph glyph-name="uni00AD" unicode="&#xad;" horiz-adv-x="348" 
d="M44 324h260v-79h-260v79z" />
    <glyph glyph-name="uni2219" unicode="&#x2219;" horiz-adv-x="246" 
d="M123 240q-29 0 -50 18.5t-21 52.5t21 53t50 19t50 -18.5t21 -52.5t-21 -53t-50 -19z" />
    <glyph glyph-name="uni02C9" unicode="&#x2c9;" horiz-adv-x="545" 
d="M132 633h280v-70h-280v70z" />
    <glyph glyph-name="uni2215" unicode="&#x2215;" horiz-adv-x="107" 
d="M238 648h61l-429 -648h-62z" />
    <glyph glyph-name="AEacute" unicode="&#x1fc;" horiz-adv-x="829" 
d="M391 156h-207l-94 -156h-90l391 646v2h380v-79h-295v-198h278v-76h-278v-216h295v-79h-380v156zM391 233v266l-161 -266h161zM511 912l56 -45l-134 -172l-55 43z" />
    <glyph glyph-name="Agrave" unicode="&#xc0;" horiz-adv-x="615" 
d="M299 660h15l272 -660h-89l-55 134h-270l-53 -134h-90zM203 213h207l-105 257zM169 868l57 44l133 -175l-56 -43z" />
    <glyph glyph-name="Aacute" unicode="&#xc1;" horiz-adv-x="615" 
d="M299 660h15l272 -660h-89l-55 134h-270l-53 -134h-90zM203 213h207l-105 257zM389 912l56 -45l-134 -172l-55 43z" />
    <glyph glyph-name="Adieresis" unicode="&#xc4;" horiz-adv-x="615" 
d="M299 660h15l272 -660h-89l-55 134h-270l-53 -134h-90zM203 213h207l-105 257zM139 792q0 29 19 46.5t45 17.5q25 0 44.5 -17.5t19.5 -46.5t-19.5 -46.5t-44.5 -17.5q-26 0 -45 17.5t-19 46.5zM347 792q0 29 19 46.5t45 17.5q25 0 44.5 -17.5t19.5 -46.5t-19.5 -46.5
t-44.5 -17.5q-26 0 -45 17.5t-19 46.5z" />
    <glyph glyph-name="Acircumflex" unicode="&#xc2;" horiz-adv-x="615" 
d="M299 660h15l272 -660h-89l-55 134h-270l-53 -134h-90zM203 213h207l-105 257zM159 740l148 128l148 -128l-41 -50l-107 91l-107 -91z" />
    <glyph glyph-name="Amacron" unicode="&#x100;" horiz-adv-x="615" 
d="M299 660h15l272 -660h-89l-55 134h-270l-53 -134h-90zM203 213h207l-105 257zM167 801h280v-70h-280v70z" />
    <glyph glyph-name="Atilde" unicode="&#xc3;" horiz-adv-x="615" 
d="M299 660h15l272 -660h-89l-55 134h-270l-53 -134h-90zM203 213h207l-105 257zM158 714q0 27 4.5 50.5t15 40.5t27.5 27t42 10q28 0 45.5 -11t32.5 -26l6 -6q9 -9 17.5 -15t18.5 -6q13 0 21 13t10 51h63q0 -27 -4.5 -50.5t-15 -40.5t-27.5 -27t-42 -10q-28 0 -45.5 11
t-32.5 26l-6 6q-9 9 -17.5 15t-18.5 6q-13 0 -21.5 -12t-10.5 -52h-62z" />
    <glyph glyph-name="Aring" unicode="&#xc5;" horiz-adv-x="615" 
d="M299 660h15l272 -660h-89l-55 134h-270l-53 -134h-90zM203 213h207l-105 257zM306 690q-42 0 -71.5 27t-29.5 72t29.5 72t71.5 27t71.5 -27t29.5 -72t-29.5 -72t-71.5 -27zM306 745q18 0 30 12t12 32t-12 32t-30 12t-30 -12t-12 -32t12 -32t30 -12z" />
    <glyph glyph-name="Abreve" unicode="&#x102;" horiz-adv-x="615" 
d="M299 660h15l272 -660h-89l-55 134h-270l-53 -134h-90zM203 213h207l-105 257zM236 842q7 -31 23.5 -48.5t47.5 -17.5q30 0 48.5 17.5t26.5 48.5h69q-4 -26 -15 -49t-29 -40.5t-43 -28t-57 -10.5t-57 10.5t-43 28t-29 40.5t-15 49h73z" />
    <glyph glyph-name="Aogonek" unicode="&#x104;" horiz-adv-x="615" 
d="M628 -192q-14 -7 -37.5 -15.5t-52.5 -8.5q-45 0 -73.5 27t-28.5 67q0 21 3 37t10.5 29.5t19 27t28.5 28.5l-55 134h-270l-53 -134h-90l270 660h15l272 -660q-12 -6 -25.5 -17.5t-25.5 -26t-19.5 -31.5t-7.5 -33q0 -23 14.5 -33.5t31.5 -10.5t29.5 4t23.5 9zM203 213h207
l-105 257z" />
    <glyph glyph-name="Cacute" unicode="&#x106;" horiz-adv-x="632" 
d="M600 77q-17 -11 -39 -26.5t-50.5 -29.5t-65.5 -23.5t-84 -9.5q-72 0 -131 25.5t-101.5 71t-65.5 107.5t-23 136q0 80 27.5 142t72.5 104t102.5 64t118.5 22q41 0 72.5 -6t56.5 -15t44 -20t35 -20l-39 -68q-28 17 -68 32.5t-101 15.5q-48 0 -90.5 -18.5t-73.5 -51.5
t-49 -79.5t-18 -101.5q0 -57 18.5 -104.5t51 -81.5t75.5 -53t92 -19q39 0 69 8t53.5 19.5t40 23.5t28.5 20zM438 912l56 -45l-134 -172l-55 43z" />
    <glyph glyph-name="Cdotaccent" unicode="&#x10a;" horiz-adv-x="632" 
d="M600 77q-17 -11 -39 -26.5t-50.5 -29.5t-65.5 -23.5t-84 -9.5q-72 0 -131 25.5t-101.5 71t-65.5 107.5t-23 136q0 80 27.5 142t72.5 104t102.5 64t118.5 22q41 0 72.5 -6t56.5 -15t44 -20t35 -20l-39 -68q-28 17 -68 32.5t-101 15.5q-48 0 -90.5 -18.5t-73.5 -51.5
t-49 -79.5t-18 -101.5q0 -57 18.5 -104.5t51 -81.5t75.5 -53t92 -19q39 0 69 8t53.5 19.5t40 23.5t28.5 20zM356 728q-26 0 -45 17.5t-19 46.5t19 46.5t45 17.5q25 0 44.5 -17.5t19.5 -46.5t-19.5 -46.5t-44.5 -17.5z" />
    <glyph glyph-name="Ccircumflex" unicode="&#x108;" horiz-adv-x="632" 
d="M600 77q-17 -11 -39 -26.5t-50.5 -29.5t-65.5 -23.5t-84 -9.5q-72 0 -131 25.5t-101.5 71t-65.5 107.5t-23 136q0 80 27.5 142t72.5 104t102.5 64t118.5 22q41 0 72.5 -6t56.5 -15t44 -20t35 -20l-39 -68q-28 17 -68 32.5t-101 15.5q-48 0 -90.5 -18.5t-73.5 -51.5
t-49 -79.5t-18 -101.5q0 -57 18.5 -104.5t51 -81.5t75.5 -53t92 -19q39 0 69 8t53.5 19.5t40 23.5t28.5 20zM208 740l148 128l148 -128l-41 -50l-107 91l-107 -91z" />
    <glyph glyph-name="Ccaron" unicode="&#x10c;" horiz-adv-x="632" 
d="M600 77q-17 -11 -39 -26.5t-50.5 -29.5t-65.5 -23.5t-84 -9.5q-72 0 -131 25.5t-101.5 71t-65.5 107.5t-23 136q0 80 27.5 142t72.5 104t102.5 64t118.5 22q41 0 72.5 -6t56.5 -15t44 -20t35 -20l-39 -68q-28 17 -68 32.5t-101 15.5q-48 0 -90.5 -18.5t-73.5 -51.5
t-49 -79.5t-18 -101.5q0 -57 18.5 -104.5t51 -81.5t75.5 -53t92 -19q39 0 69 8t53.5 19.5t40 23.5t28.5 20zM249 864l107 -91l107 91l41 -50l-148 -128l-148 128z" />
    <glyph glyph-name="Ccedilla" unicode="&#xc7;" horiz-adv-x="632" 
d="M600 77q-17 -11 -39 -26.5t-50.5 -29.5t-65.5 -23.5t-84 -9.5q-72 0 -131 25.5t-101.5 71t-65.5 107.5t-23 136q0 80 27.5 142t72.5 104t102.5 64t118.5 22q41 0 72.5 -6t56.5 -15t44 -20t35 -20l-39 -68q-28 17 -68 32.5t-101 15.5q-48 0 -90.5 -18.5t-73.5 -51.5
t-49 -79.5t-18 -101.5q0 -57 18.5 -104.5t51 -81.5t75.5 -53t92 -19q39 0 69 8t53.5 19.5t40 23.5t28.5 20zM302 -143q11 -5 24 -13t35 -8q18 0 29.5 9t11.5 26q0 16 -11.5 25t-27.5 9t-24 -3t-19 -7l-26 36l43 77l58 -7l-31 -48h7q39 0 64.5 -21t25.5 -59q0 -41 -28 -65
t-70 -24q-32 0 -52 10t-34 19z" />
    <glyph glyph-name="Dcaron" unicode="&#x10e;" horiz-adv-x="665" 
d="M83 648h192q79 0 144 -24t110.5 -67t70.5 -101t25 -126q0 -64 -20.5 -123.5t-64 -105.5t-111.5 -73.5t-162 -27.5h-184v648zM168 572v-495h108q59 0 106.5 15t81 46t51.5 79t18 113q0 59 -20.5 104.5t-55 76t-80.5 46t-96 15.5h-113zM194 864l107 -91l107 91l41 -50
l-148 -128l-148 128z" />
    <glyph glyph-name="Egrave" unicode="&#xc8;" horiz-adv-x="521" 
d="M83 648h380v-79h-295v-198h278v-76h-278v-216h295v-79h-380v648zM145 868l57 44l133 -175l-56 -43z" />
    <glyph glyph-name="Eacute" unicode="&#xc9;" horiz-adv-x="521" 
d="M83 648h380v-79h-295v-198h278v-76h-278v-216h295v-79h-380v648zM365 912l56 -45l-134 -172l-55 43z" />
    <glyph glyph-name="Edotaccent" unicode="&#x116;" horiz-adv-x="521" 
d="M83 648h380v-79h-295v-198h278v-76h-278v-216h295v-79h-380v648zM283 728q-26 0 -45 17.5t-19 46.5t19 46.5t45 17.5q25 0 44.5 -17.5t19.5 -46.5t-19.5 -46.5t-44.5 -17.5z" />
    <glyph glyph-name="Edieresis" unicode="&#xcb;" horiz-adv-x="521" 
d="M83 648h380v-79h-295v-198h278v-76h-278v-216h295v-79h-380v648zM115 792q0 29 19 46.5t45 17.5q25 0 44.5 -17.5t19.5 -46.5t-19.5 -46.5t-44.5 -17.5q-26 0 -45 17.5t-19 46.5zM323 792q0 29 19 46.5t45 17.5q25 0 44.5 -17.5t19.5 -46.5t-19.5 -46.5t-44.5 -17.5
q-26 0 -45 17.5t-19 46.5z" />
    <glyph glyph-name="Ecircumflex" unicode="&#xca;" horiz-adv-x="521" 
d="M83 648h380v-79h-295v-198h278v-76h-278v-216h295v-79h-380v648zM135 740l148 128l148 -128l-41 -50l-107 91l-107 -91z" />
    <glyph glyph-name="Ecaron" unicode="&#x11a;" horiz-adv-x="521" 
d="M83 648h380v-79h-295v-198h278v-76h-278v-216h295v-79h-380v648zM176 864l107 -91l107 91l41 -50l-148 -128l-148 128z" />
    <glyph glyph-name="Emacron" unicode="&#x112;" horiz-adv-x="521" 
d="M83 648h380v-79h-295v-198h278v-76h-278v-216h295v-79h-380v648zM143 801h280v-70h-280v70z" />
    <glyph glyph-name="Ebreve" unicode="&#x114;" horiz-adv-x="521" 
d="M83 648h380v-79h-295v-198h278v-76h-278v-216h295v-79h-380v648zM212 842q7 -31 23.5 -48.5t47.5 -17.5q30 0 48.5 17.5t26.5 48.5h69q-4 -26 -15 -49t-29 -40.5t-43 -28t-57 -10.5t-57 10.5t-43 28t-29 40.5t-15 49h73z" />
    <glyph glyph-name="Eogonek" unicode="&#x118;" horiz-adv-x="521" 
d="M474 -192q-14 -7 -37.5 -15.5t-52.5 -8.5q-45 0 -73.5 25t-28.5 65q0 42 19 73.5t54 52.5h-272v648h380v-79h-295v-198h278v-76h-278v-216h295v-79h-23q-14 -5 -29.5 -15t-28 -24.5t-20.5 -32t-8 -36.5q0 -23 14.5 -33.5t31.5 -10.5t29.5 4t23.5 9z" />
    <glyph glyph-name="Gdotaccent" unicode="&#x120;" horiz-adv-x="677" 
d="M361 337h244v-274q-17 -12 -40 -25t-52.5 -24t-65 -18.5t-78.5 -7.5q-73 0 -133.5 25t-104 69.5t-67.5 106t-24 135.5q0 79 25 141.5t68.5 105.5t102 66t124.5 23q47 0 85 -9.5t67.5 -22.5t49.5 -26.5t31 -22.5l-45 -62q-8 5 -23.5 15.5t-38.5 21.5t-52.5 19t-65.5 8
q-54 0 -98 -18.5t-75 -52.5t-47.5 -81t-16.5 -105q0 -62 20 -109.5t53 -80t76.5 -49.5t91.5 -17q27 0 48 3t38.5 8t32.5 12t29 15v153h-159v78zM360 728q-26 0 -45 17.5t-19 46.5t19 46.5t45 17.5q25 0 44.5 -17.5t19.5 -46.5t-19.5 -46.5t-44.5 -17.5z" />
    <glyph glyph-name="Gcircumflex" unicode="&#x11c;" horiz-adv-x="677" 
d="M361 337h244v-274q-17 -12 -40 -25t-52.5 -24t-65 -18.5t-78.5 -7.5q-73 0 -133.5 25t-104 69.5t-67.5 106t-24 135.5q0 79 25 141.5t68.5 105.5t102 66t124.5 23q47 0 85 -9.5t67.5 -22.5t49.5 -26.5t31 -22.5l-45 -62q-8 5 -23.5 15.5t-38.5 21.5t-52.5 19t-65.5 8
q-54 0 -98 -18.5t-75 -52.5t-47.5 -81t-16.5 -105q0 -62 20 -109.5t53 -80t76.5 -49.5t91.5 -17q27 0 48 3t38.5 8t32.5 12t29 15v153h-159v78zM212 740l148 128l148 -128l-41 -50l-107 91l-107 -91z" />
    <glyph glyph-name="Gbreve" unicode="&#x11e;" horiz-adv-x="677" 
d="M361 337h244v-274q-17 -12 -40 -25t-52.5 -24t-65 -18.5t-78.5 -7.5q-73 0 -133.5 25t-104 69.5t-67.5 106t-24 135.5q0 79 25 141.5t68.5 105.5t102 66t124.5 23q47 0 85 -9.5t67.5 -22.5t49.5 -26.5t31 -22.5l-45 -62q-8 5 -23.5 15.5t-38.5 21.5t-52.5 19t-65.5 8
q-54 0 -98 -18.5t-75 -52.5t-47.5 -81t-16.5 -105q0 -62 20 -109.5t53 -80t76.5 -49.5t91.5 -17q27 0 48 3t38.5 8t32.5 12t29 15v153h-159v78zM289 842q7 -31 23.5 -48.5t47.5 -17.5q30 0 48.5 17.5t26.5 48.5h69q-4 -26 -15 -49t-29 -40.5t-43 -28t-57 -10.5t-57 10.5
t-43 28t-29 40.5t-15 49h73z" />
    <glyph glyph-name="uni0122" unicode="&#x122;" horiz-adv-x="677" 
d="M361 337h244v-274q-17 -12 -40 -25t-52.5 -24t-65 -18.5t-78.5 -7.5q-73 0 -133.5 25t-104 69.5t-67.5 106t-24 135.5q0 79 25 141.5t68.5 105.5t102 66t124.5 23q47 0 85 -9.5t67.5 -22.5t49.5 -26.5t31 -22.5l-45 -62q-8 5 -23.5 15.5t-38.5 21.5t-52.5 19t-65.5 8
q-54 0 -98 -18.5t-75 -52.5t-47.5 -81t-16.5 -105q0 -62 20 -109.5t53 -80t76.5 -49.5t91.5 -17q27 0 48 3t38.5 8t32.5 12t29 15v153h-159v78zM312 -263q14 20 26 42t22 54q-25 5 -40 19t-15 37q0 28 17 45t44 17q26 0 42.5 -18.5t16.5 -43.5q0 -23 -8 -47t-20 -47t-27 -44
t-29 -37z" />
    <glyph glyph-name="Hcircumflex" unicode="&#x124;" horiz-adv-x="665" 
d="M497 295h-329v-295h-85v648h85v-277h329v277h85v-648h-85v295zM184 740l148 128l148 -128l-41 -50l-107 91l-107 -91z" />
    <glyph glyph-name="Igrave" unicode="&#xcc;" horiz-adv-x="251" 
d="M83 648h85v-648h-85v648zM-12 868l57 44l133 -175l-56 -43z" />
    <glyph glyph-name="Iacute" unicode="&#xcd;" horiz-adv-x="251" 
d="M83 648h85v-648h-85v648zM208 912l56 -45l-134 -172l-55 43z" />
    <glyph glyph-name="Idotaccent" unicode="&#x130;" horiz-adv-x="251" 
d="M83 648h85v-648h-85v648zM126 728q-26 0 -45 17.5t-19 46.5t19 46.5t45 17.5q25 0 44.5 -17.5t19.5 -46.5t-19.5 -46.5t-44.5 -17.5z" />
    <glyph glyph-name="Idieresis" unicode="&#xcf;" horiz-adv-x="251" 
d="M83 648h85v-648h-85v648zM-42 792q0 29 19 46.5t45 17.5q25 0 44.5 -17.5t19.5 -46.5t-19.5 -46.5t-44.5 -17.5q-26 0 -45 17.5t-19 46.5zM166 792q0 29 19 46.5t45 17.5q25 0 44.5 -17.5t19.5 -46.5t-19.5 -46.5t-44.5 -17.5q-26 0 -45 17.5t-19 46.5z" />
    <glyph glyph-name="Icircumflex" unicode="&#xce;" horiz-adv-x="251" 
d="M83 648h85v-648h-85v648zM-22 740l148 128l148 -128l-41 -50l-107 91l-107 -91z" />
    <glyph glyph-name="Imacron" unicode="&#x12a;" horiz-adv-x="251" 
d="M83 648h85v-648h-85v648zM-14 801h280v-70h-280v70z" />
    <glyph glyph-name="Itilde" unicode="&#x128;" horiz-adv-x="251" 
d="M83 648h85v-648h-85v648zM-23 714q0 27 4.5 50.5t15 40.5t27.5 27t42 10q28 0 45.5 -11t32.5 -26l6 -6q9 -9 17.5 -15t18.5 -6q13 0 21 13t10 51h63q0 -27 -4.5 -50.5t-15 -40.5t-27.5 -27t-42 -10q-28 0 -45.5 11t-32.5 26l-6 6q-9 9 -17.5 15t-18.5 6q-13 0 -21.5 -12
t-10.5 -52h-62z" />
    <glyph glyph-name="Ibreve" unicode="&#x12c;" horiz-adv-x="251" 
d="M83 648h85v-648h-85v648zM55 842q7 -31 23.5 -48.5t47.5 -17.5q30 0 48.5 17.5t26.5 48.5h69q-4 -26 -15 -49t-29 -40.5t-43 -28t-57 -10.5t-57 10.5t-43 28t-29 40.5t-15 49h73z" />
    <glyph glyph-name="Iogonek" unicode="&#x12e;" horiz-adv-x="251" 
d="M214 -192q-14 -7 -37.5 -15.5t-52.5 -8.5q-45 0 -73.5 27t-28.5 67q0 38 13.5 64.5t47.5 57.5v648h85v-648q-27 -20 -50.5 -47.5t-23.5 -60.5q0 -23 14.5 -33.5t31.5 -10.5t29.5 4t23.5 9z" />
    <glyph glyph-name="Jcircumflex" unicode="&#x134;" horiz-adv-x="475" 
d="M72 136q9 -9 21 -20.5t28 -21t35.5 -16t44.5 -6.5q58 0 86 31.5t28 90.5v454h85v-464q0 -48 -15 -85t-42 -61.5t-64 -37t-81 -12.5q-59 0 -102 24.5t-77 58.5zM209 740l148 128l148 -128l-41 -50l-107 91l-107 -91z" />
    <glyph glyph-name="uni0136" unicode="&#x136;" horiz-adv-x="578" 
d="M168 307v-307h-85v648h85v-302l254 302h105l-266 -311l305 -337h-113zM245 -263q14 20 26 42t22 54q-25 5 -40 19t-15 37q0 28 17 45t44 17q26 0 42.5 -18.5t16.5 -43.5q0 -23 -8 -47t-20 -47t-27 -44t-29 -37z" />
    <glyph glyph-name="Lacute" unicode="&#x139;" horiz-adv-x="495" 
d="M83 648h85v-569h295v-79h-380v648zM208 912l56 -45l-134 -172l-55 43z" />
    <glyph glyph-name="uni013B" unicode="&#x13b;" horiz-adv-x="495" 
d="M83 648h85v-569h295v-79h-380v648zM227 -263q14 20 26 42t22 54q-25 5 -40 19t-15 37q0 28 17 45t44 17q26 0 42.5 -18.5t16.5 -43.5q0 -23 -8 -47t-20 -47t-27 -44t-29 -37z" />
    <glyph glyph-name="Nacute" unicode="&#x143;" horiz-adv-x="652" 
d="M83 664h8l393 -466v450h85v-663h-9l-392 463v-448h-85v664zM408 912l56 -45l-134 -172l-55 43z" />
    <glyph glyph-name="Ncaron" unicode="&#x147;" horiz-adv-x="652" 
d="M83 664h8l393 -466v450h85v-663h-9l-392 463v-448h-85v664zM219 864l107 -91l107 91l41 -50l-148 -128l-148 128z" />
    <glyph glyph-name="Ntilde" unicode="&#xd1;" horiz-adv-x="652" 
d="M83 664h8l393 -466v450h85v-663h-9l-392 463v-448h-85v664zM177 714q0 27 4.5 50.5t15 40.5t27.5 27t42 10q28 0 45.5 -11t32.5 -26l6 -6q9 -9 17.5 -15t18.5 -6q13 0 21 13t10 51h63q0 -27 -4.5 -50.5t-15 -40.5t-27.5 -27t-42 -10q-28 0 -45.5 11t-32.5 26l-6 6
q-9 9 -17.5 15t-18.5 6q-13 0 -21.5 -12t-10.5 -52h-62z" />
    <glyph glyph-name="uni0145" unicode="&#x145;" horiz-adv-x="652" 
d="M83 664h8l393 -466v450h85v-663h-9l-392 463v-448h-85v664zM272 -263q14 20 26 42t22 54q-25 5 -40 19t-15 37q0 28 17 45t44 17q26 0 42.5 -18.5t16.5 -43.5q0 -23 -8 -47t-20 -47t-27 -44t-29 -37z" />
    <glyph glyph-name="Ograve" unicode="&#xd2;" horiz-adv-x="700" 
d="M350 67q43 0 82.5 16t70 48.5t48.5 80.5t18 113q0 64 -18 112t-48.5 80.5t-70 48.5t-82.5 16q-44 0 -83.5 -16t-69.5 -48.5t-48 -80.5t-18 -112q0 -65 18 -113t48 -80.5t69.5 -48.5t83.5 -16zM350 -12q-70 0 -127.5 26.5t-98 72t-62.5 107t-22 131.5q0 71 22.5 132
t63 106t98 71t126.5 26t126 -26t98 -71t63.5 -106t22.5 -132q0 -70 -21.5 -131.5t-61.5 -107t-97.5 -72t-129.5 -26.5zM212 868l57 44l133 -175l-56 -43z" />
    <glyph glyph-name="Oacute" unicode="&#xd3;" horiz-adv-x="700" 
d="M350 67q43 0 82.5 16t70 48.5t48.5 80.5t18 113q0 64 -18 112t-48.5 80.5t-70 48.5t-82.5 16q-44 0 -83.5 -16t-69.5 -48.5t-48 -80.5t-18 -112q0 -65 18 -113t48 -80.5t69.5 -48.5t83.5 -16zM350 -12q-70 0 -127.5 26.5t-98 72t-62.5 107t-22 131.5q0 71 22.5 132
t63 106t98 71t126.5 26t126 -26t98 -71t63.5 -106t22.5 -132q0 -70 -21.5 -131.5t-61.5 -107t-97.5 -72t-129.5 -26.5zM432 912l56 -45l-134 -172l-55 43z" />
    <glyph glyph-name="Ohungarumlaut" unicode="&#x150;" horiz-adv-x="700" 
d="M350 67q43 0 82.5 16t70 48.5t48.5 80.5t18 113q0 64 -18 112t-48.5 80.5t-70 48.5t-82.5 16q-44 0 -83.5 -16t-69.5 -48.5t-48 -80.5t-18 -112q0 -65 18 -113t48 -80.5t69.5 -48.5t83.5 -16zM350 -12q-70 0 -127.5 26.5t-98 72t-62.5 107t-22 131.5q0 71 22.5 132
t63 106t98 71t126.5 26t126 -26t98 -71t63.5 -106t22.5 -132q0 -70 -21.5 -131.5t-61.5 -107t-97.5 -72t-129.5 -26.5zM364 912l57 -44l-134 -174l-56 43zM492 912l57 -44l-134 -174l-56 43z" />
    <glyph glyph-name="Odieresis" unicode="&#xd6;" horiz-adv-x="700" 
d="M350 67q43 0 82.5 16t70 48.5t48.5 80.5t18 113q0 64 -18 112t-48.5 80.5t-70 48.5t-82.5 16q-44 0 -83.5 -16t-69.5 -48.5t-48 -80.5t-18 -112q0 -65 18 -113t48 -80.5t69.5 -48.5t83.5 -16zM350 -12q-70 0 -127.5 26.5t-98 72t-62.5 107t-22 131.5q0 71 22.5 132
t63 106t98 71t126.5 26t126 -26t98 -71t63.5 -106t22.5 -132q0 -70 -21.5 -131.5t-61.5 -107t-97.5 -72t-129.5 -26.5zM182 792q0 29 19 46.5t45 17.5q25 0 44.5 -17.5t19.5 -46.5t-19.5 -46.5t-44.5 -17.5q-26 0 -45 17.5t-19 46.5zM390 792q0 29 19 46.5t45 17.5
q25 0 44.5 -17.5t19.5 -46.5t-19.5 -46.5t-44.5 -17.5q-26 0 -45 17.5t-19 46.5z" />
    <glyph glyph-name="Ocircumflex" unicode="&#xd4;" horiz-adv-x="700" 
d="M350 67q43 0 82.5 16t70 48.5t48.5 80.5t18 113q0 64 -18 112t-48.5 80.5t-70 48.5t-82.5 16q-44 0 -83.5 -16t-69.5 -48.5t-48 -80.5t-18 -112q0 -65 18 -113t48 -80.5t69.5 -48.5t83.5 -16zM350 -12q-70 0 -127.5 26.5t-98 72t-62.5 107t-22 131.5q0 71 22.5 132
t63 106t98 71t126.5 26t126 -26t98 -71t63.5 -106t22.5 -132q0 -70 -21.5 -131.5t-61.5 -107t-97.5 -72t-129.5 -26.5zM202 740l148 128l148 -128l-41 -50l-107 91l-107 -91z" />
    <glyph glyph-name="Omacron" unicode="&#x14c;" horiz-adv-x="700" 
d="M350 67q43 0 82.5 16t70 48.5t48.5 80.5t18 113q0 64 -18 112t-48.5 80.5t-70 48.5t-82.5 16q-44 0 -83.5 -16t-69.5 -48.5t-48 -80.5t-18 -112q0 -65 18 -113t48 -80.5t69.5 -48.5t83.5 -16zM350 -12q-70 0 -127.5 26.5t-98 72t-62.5 107t-22 131.5q0 71 22.5 132
t63 106t98 71t126.5 26t126 -26t98 -71t63.5 -106t22.5 -132q0 -70 -21.5 -131.5t-61.5 -107t-97.5 -72t-129.5 -26.5zM210 801h280v-70h-280v70z" />
    <glyph glyph-name="Obreve" unicode="&#x14e;" horiz-adv-x="700" 
d="M350 67q43 0 82.5 16t70 48.5t48.5 80.5t18 113q0 64 -18 112t-48.5 80.5t-70 48.5t-82.5 16q-44 0 -83.5 -16t-69.5 -48.5t-48 -80.5t-18 -112q0 -65 18 -113t48 -80.5t69.5 -48.5t83.5 -16zM350 -12q-70 0 -127.5 26.5t-98 72t-62.5 107t-22 131.5q0 71 22.5 132
t63 106t98 71t126.5 26t126 -26t98 -71t63.5 -106t22.5 -132q0 -70 -21.5 -131.5t-61.5 -107t-97.5 -72t-129.5 -26.5zM279 842q7 -31 23.5 -48.5t47.5 -17.5q30 0 48.5 17.5t26.5 48.5h69q-4 -26 -15 -49t-29 -40.5t-43 -28t-57 -10.5t-57 10.5t-43 28t-29 40.5t-15 49h73z
" />
    <glyph glyph-name="Otilde" unicode="&#xd5;" horiz-adv-x="700" 
d="M350 67q43 0 82.5 16t70 48.5t48.5 80.5t18 113q0 64 -18 112t-48.5 80.5t-70 48.5t-82.5 16q-44 0 -83.5 -16t-69.5 -48.5t-48 -80.5t-18 -112q0 -65 18 -113t48 -80.5t69.5 -48.5t83.5 -16zM350 -12q-70 0 -127.5 26.5t-98 72t-62.5 107t-22 131.5q0 71 22.5 132
t63 106t98 71t126.5 26t126 -26t98 -71t63.5 -106t22.5 -132q0 -70 -21.5 -131.5t-61.5 -107t-97.5 -72t-129.5 -26.5zM201 714q0 27 4.5 50.5t15 40.5t27.5 27t42 10q28 0 45.5 -11t32.5 -26l6 -6q9 -9 17.5 -15t18.5 -6q13 0 21 13t10 51h63q0 -27 -4.5 -50.5t-15 -40.5
t-27.5 -27t-42 -10q-28 0 -45.5 11t-32.5 26l-6 6q-9 9 -17.5 15t-18.5 6q-13 0 -21.5 -12t-10.5 -52h-62z" />
    <glyph glyph-name="Oslashacute" unicode="&#x1fe;" horiz-adv-x="700" 
d="M104 112q-31 44 -47.5 98t-16.5 115q0 71 22.5 132t63 106t98 71t126.5 26q58 0 107.5 -18.5t88.5 -51.5l62 66l53 -51l-65 -70q31 -43 47.5 -96.5t16.5 -113.5q0 -70 -21.5 -131.5t-61.5 -107t-97.5 -72t-129.5 -26.5q-59 0 -108 18.5t-88 50.5l-61 -66l-53 51zM131 325
q0 -45 8.5 -82t24.5 -66l326 352q-29 26 -65 39.5t-75 13.5q-44 0 -83.5 -16t-69.5 -48.5t-48 -80.5t-18 -112zM350 67q43 0 82.5 16t70 48.5t48.5 80.5t18 113q0 44 -8.5 80t-24.5 65l-326 -352q29 -26 65 -38.5t75 -12.5zM432 912l56 -45l-134 -172l-55 43z" />
    <glyph glyph-name="Racute" unicode="&#x154;" horiz-adv-x="537" 
d="M318 288l178 -288h-98l-171 281h-76v-281h-85v648h184q103 0 160 -47q57 -48 57 -136q0 -42 -16 -75q-15 -34 -42 -57q-27 -24 -65 -37q-12 -5 -26 -8zM151 350h91q20 0 37 2q42 7 67 28q36 29 36 82q0 54 -36 83t-93 29h-102v-224zM342 912l56 -45l-134 -172l-55 43z
" />
    <glyph glyph-name="Rcaron" unicode="&#x158;" horiz-adv-x="537" 
d="M318 288l178 -288h-98l-171 281h-76v-281h-85v648h184q103 0 160 -47q57 -48 57 -136q0 -42 -16 -75q-15 -34 -42 -57q-27 -24 -65 -37q-12 -5 -26 -8zM151 350h91q20 0 37 2q42 7 67 28q36 29 36 82q0 54 -36 83t-93 29h-102v-224zM153 864l107 -91l107 91l41 -50
l-148 -128l-148 128z" />
    <glyph glyph-name="uni0156" unicode="&#x156;" horiz-adv-x="537" 
d="M318 288l178 -288h-98l-171 281h-76v-281h-85v648h184q103 0 160 -47q57 -48 57 -136q0 -42 -16 -75q-15 -34 -42 -57q-27 -24 -65 -37q-12 -5 -26 -8zM151 350h91q20 0 37 2q42 7 67 28q36 29 36 82q0 54 -36 83t-93 29h-102v-224zM221 -263q14 20 26 42t22 54
q-25 5 -40 19t-15 37q0 28 17 45t44 17q26 0 42.5 -18.5t16.5 -43.5q0 -23 -8 -47t-20 -47t-27 -44t-29 -37z" />
    <glyph glyph-name="Sacute" unicode="&#x15a;" horiz-adv-x="526" 
d="M99 159q14 -13 33.5 -29t43 -30.5t50 -24t54.5 -9.5q51 0 78.5 25.5t27.5 69.5q0 38 -26.5 63t-74.5 51l-58 31q-21 11 -47.5 26.5t-49 37t-38 51t-15.5 69.5q0 35 12.5 66t37 54t61.5 36.5t86 13.5q32 0 58.5 -7t48.5 -18.5t40.5 -26.5t35.5 -31l-44 -57q-10 9 -25 20
t-33 21t-39.5 17t-45.5 7q-20 0 -39 -6t-34 -17.5t-24 -28.5t-9 -38q0 -34 21 -58t72 -51l77 -41q24 -13 48.5 -29.5t44.5 -37.5t32.5 -48.5t12.5 -63.5t-12.5 -68.5t-37.5 -56.5t-62.5 -38.5t-86.5 -14.5q-36 0 -68.5 10t-61 26t-52 35t-41.5 37zM350 912l56 -45l-134 -172
l-55 43z" />
    <glyph glyph-name="Scaron" unicode="&#x160;" horiz-adv-x="526" 
d="M99 159q14 -13 33.5 -29t43 -30.5t50 -24t54.5 -9.5q51 0 78.5 25.5t27.5 69.5q0 38 -26.5 63t-74.5 51l-58 31q-21 11 -47.5 26.5t-49 37t-38 51t-15.5 69.5q0 35 12.5 66t37 54t61.5 36.5t86 13.5q32 0 58.5 -7t48.5 -18.5t40.5 -26.5t35.5 -31l-44 -57q-10 9 -25 20
t-33 21t-39.5 17t-45.5 7q-20 0 -39 -6t-34 -17.5t-24 -28.5t-9 -38q0 -34 21 -58t72 -51l77 -41q24 -13 48.5 -29.5t44.5 -37.5t32.5 -48.5t12.5 -63.5t-12.5 -68.5t-37.5 -56.5t-62.5 -38.5t-86.5 -14.5q-36 0 -68.5 10t-61 26t-52 35t-41.5 37zM161 864l107 -91l107 91
l41 -50l-148 -128l-148 128z" />
    <glyph glyph-name="Scircumflex" unicode="&#x15c;" horiz-adv-x="526" 
d="M99 159q14 -13 33.5 -29t43 -30.5t50 -24t54.5 -9.5q51 0 78.5 25.5t27.5 69.5q0 38 -26.5 63t-74.5 51l-58 31q-21 11 -47.5 26.5t-49 37t-38 51t-15.5 69.5q0 35 12.5 66t37 54t61.5 36.5t86 13.5q32 0 58.5 -7t48.5 -18.5t40.5 -26.5t35.5 -31l-44 -57q-10 9 -25 20
t-33 21t-39.5 17t-45.5 7q-20 0 -39 -6t-34 -17.5t-24 -28.5t-9 -38q0 -34 21 -58t72 -51l77 -41q24 -13 48.5 -29.5t44.5 -37.5t32.5 -48.5t12.5 -63.5t-12.5 -68.5t-37.5 -56.5t-62.5 -38.5t-86.5 -14.5q-36 0 -68.5 10t-61 26t-52 35t-41.5 37zM120 740l148 128l148 -128
l-41 -50l-107 91l-107 -91z" />
    <glyph glyph-name="uni0218" unicode="&#x218;" horiz-adv-x="526" 
d="M99 159q14 -13 33.5 -29t43 -30.5t50 -24t54.5 -9.5q51 0 78.5 25.5t27.5 69.5q0 38 -26.5 63t-74.5 51l-58 31q-21 11 -47.5 26.5t-49 37t-38 51t-15.5 69.5q0 35 12.5 66t37 54t61.5 36.5t86 13.5q32 0 58.5 -7t48.5 -18.5t40.5 -26.5t35.5 -31l-44 -57q-10 9 -25 20
t-33 21t-39.5 17t-45.5 7q-20 0 -39 -6t-34 -17.5t-24 -28.5t-9 -38q0 -34 21 -58t72 -51l77 -41q24 -13 48.5 -29.5t44.5 -37.5t32.5 -48.5t12.5 -63.5t-12.5 -68.5t-37.5 -56.5t-62.5 -38.5t-86.5 -14.5q-36 0 -68.5 10t-61 26t-52 35t-41.5 37zM221 -263q14 20 26 42
t22 54q-25 5 -40 19t-15 37q0 28 17 45t44 17q26 0 42.5 -18.5t16.5 -43.5q0 -23 -8 -47t-20 -47t-27 -44t-29 -37z" />
    <glyph glyph-name="Scedilla" unicode="&#x15e;" horiz-adv-x="526" 
d="M99 159q14 -13 33.5 -29t43 -30.5t50 -24t54.5 -9.5q51 0 78.5 25.5t27.5 69.5q0 38 -26.5 63t-74.5 51l-58 31q-21 11 -47.5 26.5t-49 37t-38 51t-15.5 69.5q0 35 12.5 66t37 54t61.5 36.5t86 13.5q32 0 58.5 -7t48.5 -18.5t40.5 -26.5t35.5 -31l-44 -57q-10 9 -25 20
t-33 21t-39.5 17t-45.5 7q-20 0 -39 -6t-34 -17.5t-24 -28.5t-9 -38q0 -34 21 -58t72 -51l77 -41q24 -13 48.5 -29.5t44.5 -37.5t32.5 -48.5t12.5 -63.5t-12.5 -68.5t-37.5 -56.5t-62.5 -38.5t-86.5 -14.5q-36 0 -68.5 10t-61 26t-52 35t-41.5 37zM213 -143q11 -5 24 -13
t35 -8q18 0 29.5 9t11.5 26q0 16 -11.5 25t-27.5 9t-24 -3t-19 -7l-26 36l43 77l58 -7l-31 -48h7q39 0 64.5 -21t25.5 -59q0 -41 -28 -65t-70 -24q-32 0 -52 10t-34 19z" />
    <glyph glyph-name="Tcaron" unicode="&#x164;" horiz-adv-x="522" 
d="M23 648h476v-77h-195v-571h-85v571h-196v77zM155 864l107 -91l107 91l41 -50l-148 -128l-148 128z" />
    <glyph glyph-name="uni021A" unicode="&#x21a;" horiz-adv-x="522" 
d="M23 648h476v-77h-195v-571h-85v571h-196v77zM208 -263q14 20 26 42t22 54q-25 5 -40 19t-15 37q0 28 17 45t44 17q26 0 42.5 -18.5t16.5 -43.5q0 -23 -8 -47t-20 -47t-27 -44t-29 -37z" />
    <glyph glyph-name="uni0162" unicode="&#x162;" horiz-adv-x="522" 
d="M23 648h476v-77h-195v-571h-85v571h-196v77zM200 -143q11 -5 24 -13t35 -8q18 0 29.5 9t11.5 26q0 16 -11.5 25t-27.5 9t-24 -3t-19 -7l-26 36l43 77l58 -7l-31 -48h7q39 0 64.5 -21t25.5 -59q0 -41 -28 -65t-70 -24q-32 0 -52 10t-34 19z" />
    <glyph glyph-name="Ugrave" unicode="&#xd9;" horiz-adv-x="641" 
d="M75 648h85v-407q0 -41 12 -73t33.5 -54.5t51 -34.5t64.5 -12q34 0 63.5 12t51 34.5t33.5 54.5t12 73v407h85v-419q0 -48 -15.5 -92t-46.5 -77t-76.5 -52.5t-106.5 -19.5q-60 0 -106 19.5t-77 52.5t-47 77t-16 92v419zM182 868l57 44l133 -175l-56 -43z" />
    <glyph glyph-name="Uacute" unicode="&#xda;" horiz-adv-x="641" 
d="M75 648h85v-407q0 -41 12 -73t33.5 -54.5t51 -34.5t64.5 -12q34 0 63.5 12t51 34.5t33.5 54.5t12 73v407h85v-419q0 -48 -15.5 -92t-46.5 -77t-76.5 -52.5t-106.5 -19.5q-60 0 -106 19.5t-77 52.5t-47 77t-16 92v419zM402 912l56 -45l-134 -172l-55 43z" />
    <glyph glyph-name="Uhungarumlaut" unicode="&#x170;" horiz-adv-x="641" 
d="M75 648h85v-407q0 -41 12 -73t33.5 -54.5t51 -34.5t64.5 -12q34 0 63.5 12t51 34.5t33.5 54.5t12 73v407h85v-419q0 -48 -15.5 -92t-46.5 -77t-76.5 -52.5t-106.5 -19.5q-60 0 -106 19.5t-77 52.5t-47 77t-16 92v419zM334 912l57 -44l-134 -174l-56 43zM462 912l57 -44
l-134 -174l-56 43z" />
    <glyph glyph-name="Udieresis" unicode="&#xdc;" horiz-adv-x="641" 
d="M75 648h85v-407q0 -41 12 -73t33.5 -54.5t51 -34.5t64.5 -12q34 0 63.5 12t51 34.5t33.5 54.5t12 73v407h85v-419q0 -48 -15.5 -92t-46.5 -77t-76.5 -52.5t-106.5 -19.5q-60 0 -106 19.5t-77 52.5t-47 77t-16 92v419zM152 792q0 29 19 46.5t45 17.5q25 0 44.5 -17.5
t19.5 -46.5t-19.5 -46.5t-44.5 -17.5q-26 0 -45 17.5t-19 46.5zM360 792q0 29 19 46.5t45 17.5q25 0 44.5 -17.5t19.5 -46.5t-19.5 -46.5t-44.5 -17.5q-26 0 -45 17.5t-19 46.5z" />
    <glyph glyph-name="Ucircumflex" unicode="&#xdb;" horiz-adv-x="641" 
d="M75 648h85v-407q0 -41 12 -73t33.5 -54.5t51 -34.5t64.5 -12q34 0 63.5 12t51 34.5t33.5 54.5t12 73v407h85v-419q0 -48 -15.5 -92t-46.5 -77t-76.5 -52.5t-106.5 -19.5q-60 0 -106 19.5t-77 52.5t-47 77t-16 92v419zM172 740l148 128l148 -128l-41 -50l-107 91l-107 -91
z" />
    <glyph glyph-name="Umacron" unicode="&#x16a;" horiz-adv-x="641" 
d="M75 648h85v-407q0 -41 12 -73t33.5 -54.5t51 -34.5t64.5 -12q34 0 63.5 12t51 34.5t33.5 54.5t12 73v407h85v-419q0 -48 -15.5 -92t-46.5 -77t-76.5 -52.5t-106.5 -19.5q-60 0 -106 19.5t-77 52.5t-47 77t-16 92v419zM180 801h280v-70h-280v70z" />
    <glyph glyph-name="Utilde" unicode="&#x168;" horiz-adv-x="641" 
d="M75 648h85v-407q0 -41 12 -73t33.5 -54.5t51 -34.5t64.5 -12q34 0 63.5 12t51 34.5t33.5 54.5t12 73v407h85v-419q0 -48 -15.5 -92t-46.5 -77t-76.5 -52.5t-106.5 -19.5q-60 0 -106 19.5t-77 52.5t-47 77t-16 92v419zM171 714q0 27 4.5 50.5t15 40.5t27.5 27t42 10
q28 0 45.5 -11t32.5 -26l6 -6q9 -9 17.5 -15t18.5 -6q13 0 21 13t10 51h63q0 -27 -4.5 -50.5t-15 -40.5t-27.5 -27t-42 -10q-28 0 -45.5 11t-32.5 26l-6 6q-9 9 -17.5 15t-18.5 6q-13 0 -21.5 -12t-10.5 -52h-62z" />
    <glyph glyph-name="Ubreve" unicode="&#x16c;" horiz-adv-x="641" 
d="M75 648h85v-407q0 -41 12 -73t33.5 -54.5t51 -34.5t64.5 -12q34 0 63.5 12t51 34.5t33.5 54.5t12 73v407h85v-419q0 -48 -15.5 -92t-46.5 -77t-76.5 -52.5t-106.5 -19.5q-60 0 -106 19.5t-77 52.5t-47 77t-16 92v419zM249 842q7 -31 23.5 -48.5t47.5 -17.5
q30 0 48.5 17.5t26.5 48.5h69q-4 -26 -15 -49t-29 -40.5t-43 -28t-57 -10.5t-57 10.5t-43 28t-29 40.5t-15 49h73z" />
    <glyph glyph-name="Uring" unicode="&#x16e;" horiz-adv-x="641" 
d="M75 648h85v-407q0 -41 12 -73t33.5 -54.5t51 -34.5t64.5 -12q34 0 63.5 12t51 34.5t33.5 54.5t12 73v407h85v-419q0 -48 -15.5 -92t-46.5 -77t-76.5 -52.5t-106.5 -19.5q-60 0 -106 19.5t-77 52.5t-47 77t-16 92v419zM319 690q-42 0 -71.5 27t-29.5 72t29.5 72t71.5 27
t71.5 -27t29.5 -72t-29.5 -72t-71.5 -27zM319 745q18 0 30 12t12 32t-12 32t-30 12t-30 -12t-12 -32t12 -32t30 -12z" />
    <glyph glyph-name="Wgrave" unicode="&#x1e80;" horiz-adv-x="801" 
d="M14 648h84l136 -441l168 441l166 -441l139 441h80l-202 -660h-14l-170 442l-170 -442h-15zM262 868l57 44l133 -175l-56 -43z" />
    <glyph glyph-name="Wacute" unicode="&#x1e82;" horiz-adv-x="801" 
d="M14 648h84l136 -441l168 441l166 -441l139 441h80l-202 -660h-14l-170 442l-170 -442h-15zM482 912l56 -45l-134 -172l-55 43z" />
    <glyph glyph-name="Wdieresis" unicode="&#x1e84;" horiz-adv-x="801" 
d="M14 648h84l136 -441l168 441l166 -441l139 441h80l-202 -660h-14l-170 442l-170 -442h-15zM232 792q0 29 19 46.5t45 17.5q25 0 44.5 -17.5t19.5 -46.5t-19.5 -46.5t-44.5 -17.5q-26 0 -45 17.5t-19 46.5zM440 792q0 29 19 46.5t45 17.5q25 0 44.5 -17.5t19.5 -46.5
t-19.5 -46.5t-44.5 -17.5q-26 0 -45 17.5t-19 46.5z" />
    <glyph glyph-name="Wcircumflex" unicode="&#x174;" horiz-adv-x="801" 
d="M14 648h84l136 -441l168 441l166 -441l139 441h80l-202 -660h-14l-170 442l-170 -442h-15zM252 740l148 128l148 -128l-41 -50l-107 91l-107 -91z" />
    <glyph glyph-name="Ygrave" unicode="&#x1ef2;" horiz-adv-x="531" 
d="M225 286l-213 362h109l148 -273l150 273h100l-209 -357v-291h-85v286zM129 868l57 44l133 -175l-56 -43z" />
    <glyph glyph-name="Yacute" unicode="&#xdd;" horiz-adv-x="531" 
d="M225 286l-213 362h109l148 -273l150 273h100l-209 -357v-291h-85v286zM349 912l56 -45l-134 -172l-55 43z" />
    <glyph glyph-name="Ydieresis" unicode="&#x178;" horiz-adv-x="531" 
d="M225 286l-213 362h109l148 -273l150 273h100l-209 -357v-291h-85v286zM99 792q0 29 19 46.5t45 17.5q25 0 44.5 -17.5t19.5 -46.5t-19.5 -46.5t-44.5 -17.5q-26 0 -45 17.5t-19 46.5zM307 792q0 29 19 46.5t45 17.5q25 0 44.5 -17.5t19.5 -46.5t-19.5 -46.5t-44.5 -17.5
q-26 0 -45 17.5t-19 46.5z" />
    <glyph glyph-name="Ycircumflex" unicode="&#x176;" horiz-adv-x="531" 
d="M225 286l-213 362h109l148 -273l150 273h100l-209 -357v-291h-85v286zM119 740l148 128l148 -128l-41 -50l-107 91l-107 -91z" />
    <glyph glyph-name="Zacute" unicode="&#x179;" horiz-adv-x="567" 
d="M391 567h-321v81h473l-367 -563h337v-85h-489zM379 912l56 -45l-134 -172l-55 43z" />
    <glyph glyph-name="Zdotaccent" unicode="&#x17b;" horiz-adv-x="567" 
d="M391 567h-321v81h473l-367 -563h337v-85h-489zM297 728q-26 0 -45 17.5t-19 46.5t19 46.5t45 17.5q25 0 44.5 -17.5t19.5 -46.5t-19.5 -46.5t-44.5 -17.5z" />
    <glyph glyph-name="Zcaron" unicode="&#x17d;" horiz-adv-x="567" 
d="M391 567h-321v81h473l-367 -563h337v-85h-489zM190 864l107 -91l107 91l41 -50l-148 -128l-148 128z" />
    <glyph glyph-name="aeacute" unicode="&#x1fd;" horiz-adv-x="874" 
d="M403 64q-24 -28 -59.5 -51t-89.5 -23q-47 0 -86 16t-67.5 47.5t-44.5 77.5t-16 105q0 52 16 96.5t44.5 76t68 49.5t86.5 18q55 0 90.5 -20.5t57.5 -44.5v57h80v-53q26 31 63 48t82 17q55 0 94.5 -20.5t64.5 -54t36 -76.5q10 -39 10 -81v-7l-1 -30h-344q4 -31 16 -57.5
t32 -46.5t49 -31.5t66 -11.5q26 0 46.5 5.5t37.5 13.5t30.5 17.5t24.5 18.5l37 -58q-15 -11 -33 -24t-40.5 -24t-50 -18t-61.5 -7q-50 0 -90 19t-69 53v-60h-80v64zM265 63q33 0 59 13t44 35.5t28 54t10 67.5q0 48 -12.5 80.5t-32.5 53t-46 29.5t-53 9q-33 0 -58.5 -13
t-43 -36t-27 -54.5t-9.5 -68.5q0 -77 37.5 -123.5t103.5 -46.5zM628 412q-57 0 -92.5 -36.5t-45.5 -95.5h260q0 25 -7.5 48.5t-22.5 42t-38 30t-54 11.5zM524 744l56 -45l-134 -172l-55 43z" />
    <glyph glyph-name="agrave" unicode="&#xe0;" horiz-adv-x="572" 
d="M403 64q-24 -28 -59.5 -51t-89.5 -23q-47 0 -86 16t-67.5 47.5t-44.5 77.5t-16 105q0 52 16 96.5t44.5 76t68 49.5t86.5 18q55 0 90.5 -20.5t57.5 -44.5v57h84v-468h-84v64zM265 63q33 0 59 13t44 35.5t28 54t10 67.5q0 48 -12.5 80.5t-32.5 53t-46 29.5t-53 9
q-33 0 -58.5 -13t-43 -36t-27 -54.5t-9.5 -68.5q0 -77 37.5 -123.5t103.5 -46.5zM144 700l57 44l133 -175l-56 -43z" />
    <glyph glyph-name="aacute" unicode="&#xe1;" horiz-adv-x="572" 
d="M403 64q-24 -28 -59.5 -51t-89.5 -23q-47 0 -86 16t-67.5 47.5t-44.5 77.5t-16 105q0 52 16 96.5t44.5 76t68 49.5t86.5 18q55 0 90.5 -20.5t57.5 -44.5v57h84v-468h-84v64zM265 63q33 0 59 13t44 35.5t28 54t10 67.5q0 48 -12.5 80.5t-32.5 53t-46 29.5t-53 9
q-33 0 -58.5 -13t-43 -36t-27 -54.5t-9.5 -68.5q0 -77 37.5 -123.5t103.5 -46.5zM364 744l56 -45l-134 -172l-55 43z" />
    <glyph glyph-name="adieresis" unicode="&#xe4;" horiz-adv-x="572" 
d="M403 64q-24 -28 -59.5 -51t-89.5 -23q-47 0 -86 16t-67.5 47.5t-44.5 77.5t-16 105q0 52 16 96.5t44.5 76t68 49.5t86.5 18q55 0 90.5 -20.5t57.5 -44.5v57h84v-468h-84v64zM265 63q33 0 59 13t44 35.5t28 54t10 67.5q0 48 -12.5 80.5t-32.5 53t-46 29.5t-53 9
q-33 0 -58.5 -13t-43 -36t-27 -54.5t-9.5 -68.5q0 -77 37.5 -123.5t103.5 -46.5zM114 624q0 29 19 46.5t45 17.5q25 0 44.5 -17.5t19.5 -46.5t-19.5 -46.5t-44.5 -17.5q-26 0 -45 17.5t-19 46.5zM322 624q0 29 19 46.5t45 17.5q25 0 44.5 -17.5t19.5 -46.5t-19.5 -46.5
t-44.5 -17.5q-26 0 -45 17.5t-19 46.5z" />
    <glyph glyph-name="acircumflex" unicode="&#xe2;" horiz-adv-x="572" 
d="M403 64q-24 -28 -59.5 -51t-89.5 -23q-47 0 -86 16t-67.5 47.5t-44.5 77.5t-16 105q0 52 16 96.5t44.5 76t68 49.5t86.5 18q55 0 90.5 -20.5t57.5 -44.5v57h84v-468h-84v64zM265 63q33 0 59 13t44 35.5t28 54t10 67.5q0 48 -12.5 80.5t-32.5 53t-46 29.5t-53 9
q-33 0 -58.5 -13t-43 -36t-27 -54.5t-9.5 -68.5q0 -77 37.5 -123.5t103.5 -46.5zM134 572l148 128l148 -128l-41 -50l-107 91l-107 -91z" />
    <glyph glyph-name="amacron" unicode="&#x101;" horiz-adv-x="572" 
d="M403 64q-24 -28 -59.5 -51t-89.5 -23q-47 0 -86 16t-67.5 47.5t-44.5 77.5t-16 105q0 52 16 96.5t44.5 76t68 49.5t86.5 18q55 0 90.5 -20.5t57.5 -44.5v57h84v-468h-84v64zM265 63q33 0 59 13t44 35.5t28 54t10 67.5q0 48 -12.5 80.5t-32.5 53t-46 29.5t-53 9
q-33 0 -58.5 -13t-43 -36t-27 -54.5t-9.5 -68.5q0 -77 37.5 -123.5t103.5 -46.5zM142 633h280v-70h-280v70z" />
    <glyph glyph-name="atilde" unicode="&#xe3;" horiz-adv-x="572" 
d="M403 64q-24 -28 -59.5 -51t-89.5 -23q-47 0 -86 16t-67.5 47.5t-44.5 77.5t-16 105q0 52 16 96.5t44.5 76t68 49.5t86.5 18q55 0 90.5 -20.5t57.5 -44.5v57h84v-468h-84v64zM265 63q33 0 59 13t44 35.5t28 54t10 67.5q0 48 -12.5 80.5t-32.5 53t-46 29.5t-53 9
q-33 0 -58.5 -13t-43 -36t-27 -54.5t-9.5 -68.5q0 -77 37.5 -123.5t103.5 -46.5zM133 546q0 27 4.5 50.5t15 40.5t27.5 27t42 10q28 0 45.5 -11t32.5 -26l6 -6q9 -9 17.5 -15t18.5 -6q13 0 21 13t10 51h63q0 -27 -4.5 -50.5t-15 -40.5t-27.5 -27t-42 -10q-28 0 -45.5 11
t-32.5 26l-6 6q-9 9 -17.5 15t-18.5 6q-13 0 -21.5 -12t-10.5 -52h-62z" />
    <glyph glyph-name="aring" unicode="&#xe5;" horiz-adv-x="572" 
d="M403 64q-24 -28 -59.5 -51t-89.5 -23q-47 0 -86 16t-67.5 47.5t-44.5 77.5t-16 105q0 52 16 96.5t44.5 76t68 49.5t86.5 18q55 0 90.5 -20.5t57.5 -44.5v57h84v-468h-84v64zM265 63q33 0 59 13t44 35.5t28 54t10 67.5q0 48 -12.5 80.5t-32.5 53t-46 29.5t-53 9
q-33 0 -58.5 -13t-43 -36t-27 -54.5t-9.5 -68.5q0 -77 37.5 -123.5t103.5 -46.5zM281 522q-42 0 -71.5 27t-29.5 72t29.5 72t71.5 27t71.5 -27t29.5 -72t-29.5 -72t-71.5 -27zM281 577q18 0 30 12t12 32t-12 32t-30 12t-30 -12t-12 -32t12 -32t30 -12z" />
    <glyph glyph-name="abreve" unicode="&#x103;" horiz-adv-x="572" 
d="M403 64q-24 -28 -59.5 -51t-89.5 -23q-47 0 -86 16t-67.5 47.5t-44.5 77.5t-16 105q0 52 16 96.5t44.5 76t68 49.5t86.5 18q55 0 90.5 -20.5t57.5 -44.5v57h84v-468h-84v64zM265 63q33 0 59 13t44 35.5t28 54t10 67.5q0 48 -12.5 80.5t-32.5 53t-46 29.5t-53 9
q-33 0 -58.5 -13t-43 -36t-27 -54.5t-9.5 -68.5q0 -77 37.5 -123.5t103.5 -46.5zM211 674q7 -31 23.5 -48.5t47.5 -17.5q30 0 48.5 17.5t26.5 48.5h69q-4 -26 -15 -49t-29 -40.5t-43 -28t-57 -10.5t-57 10.5t-43 28t-29 40.5t-15 49h73z" />
    <glyph glyph-name="aogonek" unicode="&#x105;" horiz-adv-x="572" 
d="M533 -192q-14 -7 -37.5 -15.5t-52.5 -8.5q-45 0 -73.5 27t-28.5 67q0 34 14 62.5t48 59.5v64q-24 -28 -59.5 -51t-89.5 -23q-47 0 -86 16t-67.5 47.5t-44.5 77.5t-16 105q0 52 16 96.5t44.5 76t68 49.5t86.5 18q55 0 90.5 -20.5t57.5 -44.5v57h84v-468
q-13 -7 -26.5 -18.5t-24 -26t-17 -31t-6.5 -32.5q0 -23 14.5 -33.5t31.5 -10.5t29.5 4t23.5 9zM265 63q33 0 59 13t44 35.5t28 54t10 67.5q0 48 -12.5 80.5t-32.5 53t-46 29.5t-53 9q-33 0 -58.5 -13t-43 -36t-27 -54.5t-9.5 -68.5q0 -77 37.5 -123.5t103.5 -46.5z" />
    <glyph glyph-name="cacute" unicode="&#x107;" horiz-adv-x="489" 
d="M463 61q-13 -11 -30 -23.5t-38.5 -23.5t-49.5 -18.5t-63 -7.5q-51 0 -95.5 18t-77 51t-51 78.5t-18.5 101.5q0 51 17.5 95.5t49.5 77t76 51.5t98 19q29 0 53.5 -5.5t44.5 -13.5t36.5 -17.5t28.5 -18.5l-39 -60q-18 10 -47.5 24.5t-75.5 14.5q-30 0 -58 -11.5t-50 -32.5
t-35.5 -52t-13.5 -70q0 -41 13.5 -73.5t37 -55t54 -34t63.5 -11.5q23 0 43 6t36 14t28.5 17t21.5 15zM356 744l56 -45l-134 -172l-55 43z" />
    <glyph glyph-name="cdotaccent" unicode="&#x10b;" horiz-adv-x="489" 
d="M463 61q-13 -11 -30 -23.5t-38.5 -23.5t-49.5 -18.5t-63 -7.5q-51 0 -95.5 18t-77 51t-51 78.5t-18.5 101.5q0 51 17.5 95.5t49.5 77t76 51.5t98 19q29 0 53.5 -5.5t44.5 -13.5t36.5 -17.5t28.5 -18.5l-39 -60q-18 10 -47.5 24.5t-75.5 14.5q-30 0 -58 -11.5t-50 -32.5
t-35.5 -52t-13.5 -70q0 -41 13.5 -73.5t37 -55t54 -34t63.5 -11.5q23 0 43 6t36 14t28.5 17t21.5 15zM274 560q-26 0 -45 17.5t-19 46.5t19 46.5t45 17.5q25 0 44.5 -17.5t19.5 -46.5t-19.5 -46.5t-44.5 -17.5z" />
    <glyph glyph-name="ccircumflex" unicode="&#x109;" horiz-adv-x="489" 
d="M463 61q-13 -11 -30 -23.5t-38.5 -23.5t-49.5 -18.5t-63 -7.5q-51 0 -95.5 18t-77 51t-51 78.5t-18.5 101.5q0 51 17.5 95.5t49.5 77t76 51.5t98 19q29 0 53.5 -5.5t44.5 -13.5t36.5 -17.5t28.5 -18.5l-39 -60q-18 10 -47.5 24.5t-75.5 14.5q-30 0 -58 -11.5t-50 -32.5
t-35.5 -52t-13.5 -70q0 -41 13.5 -73.5t37 -55t54 -34t63.5 -11.5q23 0 43 6t36 14t28.5 17t21.5 15zM126 572l148 128l148 -128l-41 -50l-107 91l-107 -91z" />
    <glyph glyph-name="ccaron" unicode="&#x10d;" horiz-adv-x="489" 
d="M463 61q-13 -11 -30 -23.5t-38.5 -23.5t-49.5 -18.5t-63 -7.5q-51 0 -95.5 18t-77 51t-51 78.5t-18.5 101.5q0 51 17.5 95.5t49.5 77t76 51.5t98 19q29 0 53.5 -5.5t44.5 -13.5t36.5 -17.5t28.5 -18.5l-39 -60q-18 10 -47.5 24.5t-75.5 14.5q-30 0 -58 -11.5t-50 -32.5
t-35.5 -52t-13.5 -70q0 -41 13.5 -73.5t37 -55t54 -34t63.5 -11.5q23 0 43 6t36 14t28.5 17t21.5 15zM167 696l107 -91l107 91l41 -50l-148 -128l-148 128z" />
    <glyph glyph-name="ccedilla" unicode="&#xe7;" horiz-adv-x="489" 
d="M463 61q-13 -11 -30 -23.5t-38.5 -23.5t-49.5 -18.5t-63 -7.5q-51 0 -95.5 18t-77 51t-51 78.5t-18.5 101.5q0 51 17.5 95.5t49.5 77t76 51.5t98 19q29 0 53.5 -5.5t44.5 -13.5t36.5 -17.5t28.5 -18.5l-39 -60q-18 10 -47.5 24.5t-75.5 14.5q-30 0 -58 -11.5t-50 -32.5
t-35.5 -52t-13.5 -70q0 -41 13.5 -73.5t37 -55t54 -34t63.5 -11.5q23 0 43 6t36 14t28.5 17t21.5 15zM221 -143q11 -5 24 -13t35 -8q18 0 29.5 9t11.5 26q0 16 -11.5 25t-27.5 9t-24 -3t-19 -7l-26 36l43 77l58 -7l-31 -48h7q39 0 64.5 -21t25.5 -59q0 -41 -28 -65t-70 -24
q-32 0 -52 10t-34 19z" />
    <glyph glyph-name="egrave" unicode="&#xe8;" horiz-adv-x="509" 
d="M123 211q4 -31 16 -57.5t32 -46.5t49 -31.5t66 -11.5q26 0 46.5 5.5t37.5 13.5t30.5 17.5t24.5 18.5l37 -58q-15 -11 -33 -24t-40.5 -24t-50 -18t-61.5 -7q-53 0 -96.5 18.5t-74.5 51.5t-48.5 79t-17.5 101q0 54 16.5 98.5t46 76.5t70.5 49.5t90 17.5q55 0 93.5 -20.5
t63.5 -54t36.5 -76.5t11.5 -88l-1 -30h-344zM263 412q-57 0 -92.5 -36.5t-45.5 -95.5h260q0 25 -7.5 48.5t-22.5 42t-38 30t-54 11.5zM125 700l57 44l133 -175l-56 -43z" />
    <glyph glyph-name="eacute" unicode="&#xe9;" horiz-adv-x="509" 
d="M123 211q4 -31 16 -57.5t32 -46.5t49 -31.5t66 -11.5q26 0 46.5 5.5t37.5 13.5t30.5 17.5t24.5 18.5l37 -58q-15 -11 -33 -24t-40.5 -24t-50 -18t-61.5 -7q-53 0 -96.5 18.5t-74.5 51.5t-48.5 79t-17.5 101q0 54 16.5 98.5t46 76.5t70.5 49.5t90 17.5q55 0 93.5 -20.5
t63.5 -54t36.5 -76.5t11.5 -88l-1 -30h-344zM263 412q-57 0 -92.5 -36.5t-45.5 -95.5h260q0 25 -7.5 48.5t-22.5 42t-38 30t-54 11.5zM345 744l56 -45l-134 -172l-55 43z" />
    <glyph glyph-name="edotaccent" unicode="&#x117;" horiz-adv-x="509" 
d="M123 211q4 -31 16 -57.5t32 -46.5t49 -31.5t66 -11.5q26 0 46.5 5.5t37.5 13.5t30.5 17.5t24.5 18.5l37 -58q-15 -11 -33 -24t-40.5 -24t-50 -18t-61.5 -7q-53 0 -96.5 18.5t-74.5 51.5t-48.5 79t-17.5 101q0 54 16.5 98.5t46 76.5t70.5 49.5t90 17.5q55 0 93.5 -20.5
t63.5 -54t36.5 -76.5t11.5 -88l-1 -30h-344zM263 412q-57 0 -92.5 -36.5t-45.5 -95.5h260q0 25 -7.5 48.5t-22.5 42t-38 30t-54 11.5zM263 560q-26 0 -45 17.5t-19 46.5t19 46.5t45 17.5q25 0 44.5 -17.5t19.5 -46.5t-19.5 -46.5t-44.5 -17.5z" />
    <glyph glyph-name="edieresis" unicode="&#xeb;" horiz-adv-x="509" 
d="M123 211q4 -31 16 -57.5t32 -46.5t49 -31.5t66 -11.5q26 0 46.5 5.5t37.5 13.5t30.5 17.5t24.5 18.5l37 -58q-15 -11 -33 -24t-40.5 -24t-50 -18t-61.5 -7q-53 0 -96.5 18.5t-74.5 51.5t-48.5 79t-17.5 101q0 54 16.5 98.5t46 76.5t70.5 49.5t90 17.5q55 0 93.5 -20.5
t63.5 -54t36.5 -76.5t11.5 -88l-1 -30h-344zM263 412q-57 0 -92.5 -36.5t-45.5 -95.5h260q0 25 -7.5 48.5t-22.5 42t-38 30t-54 11.5zM95 624q0 29 19 46.5t45 17.5q25 0 44.5 -17.5t19.5 -46.5t-19.5 -46.5t-44.5 -17.5q-26 0 -45 17.5t-19 46.5zM303 624q0 29 19 46.5
t45 17.5q25 0 44.5 -17.5t19.5 -46.5t-19.5 -46.5t-44.5 -17.5q-26 0 -45 17.5t-19 46.5z" />
    <glyph glyph-name="ecircumflex" unicode="&#xea;" horiz-adv-x="509" 
d="M123 211q4 -31 16 -57.5t32 -46.5t49 -31.5t66 -11.5q26 0 46.5 5.5t37.5 13.5t30.5 17.5t24.5 18.5l37 -58q-15 -11 -33 -24t-40.5 -24t-50 -18t-61.5 -7q-53 0 -96.5 18.5t-74.5 51.5t-48.5 79t-17.5 101q0 54 16.5 98.5t46 76.5t70.5 49.5t90 17.5q55 0 93.5 -20.5
t63.5 -54t36.5 -76.5t11.5 -88l-1 -30h-344zM263 412q-57 0 -92.5 -36.5t-45.5 -95.5h260q0 25 -7.5 48.5t-22.5 42t-38 30t-54 11.5zM115 572l148 128l148 -128l-41 -50l-107 91l-107 -91z" />
    <glyph glyph-name="ecaron" unicode="&#x11b;" horiz-adv-x="509" 
d="M123 211q4 -31 16 -57.5t32 -46.5t49 -31.5t66 -11.5q26 0 46.5 5.5t37.5 13.5t30.5 17.5t24.5 18.5l37 -58q-15 -11 -33 -24t-40.5 -24t-50 -18t-61.5 -7q-53 0 -96.5 18.5t-74.5 51.5t-48.5 79t-17.5 101q0 54 16.5 98.5t46 76.5t70.5 49.5t90 17.5q55 0 93.5 -20.5
t63.5 -54t36.5 -76.5t11.5 -88l-1 -30h-344zM263 412q-57 0 -92.5 -36.5t-45.5 -95.5h260q0 25 -7.5 48.5t-22.5 42t-38 30t-54 11.5zM156 696l107 -91l107 91l41 -50l-148 -128l-148 128z" />
    <glyph glyph-name="emacron" unicode="&#x113;" horiz-adv-x="509" 
d="M123 211q4 -31 16 -57.5t32 -46.5t49 -31.5t66 -11.5q26 0 46.5 5.5t37.5 13.5t30.5 17.5t24.5 18.5l37 -58q-15 -11 -33 -24t-40.5 -24t-50 -18t-61.5 -7q-53 0 -96.5 18.5t-74.5 51.5t-48.5 79t-17.5 101q0 54 16.5 98.5t46 76.5t70.5 49.5t90 17.5q55 0 93.5 -20.5
t63.5 -54t36.5 -76.5t11.5 -88l-1 -30h-344zM263 412q-57 0 -92.5 -36.5t-45.5 -95.5h260q0 25 -7.5 48.5t-22.5 42t-38 30t-54 11.5zM123 633h280v-70h-280v70z" />
    <glyph glyph-name="ebreve" unicode="&#x115;" horiz-adv-x="509" 
d="M123 211q4 -31 16 -57.5t32 -46.5t49 -31.5t66 -11.5q26 0 46.5 5.5t37.5 13.5t30.5 17.5t24.5 18.5l37 -58q-15 -11 -33 -24t-40.5 -24t-50 -18t-61.5 -7q-53 0 -96.5 18.5t-74.5 51.5t-48.5 79t-17.5 101q0 54 16.5 98.5t46 76.5t70.5 49.5t90 17.5q55 0 93.5 -20.5
t63.5 -54t36.5 -76.5t11.5 -88l-1 -30h-344zM263 412q-57 0 -92.5 -36.5t-45.5 -95.5h260q0 25 -7.5 48.5t-22.5 42t-38 30t-54 11.5zM192 674q7 -31 23.5 -48.5t47.5 -17.5q30 0 48.5 17.5t26.5 48.5h69q-4 -26 -15 -49t-29 -40.5t-43 -28t-57 -10.5t-57 10.5t-43 28
t-29 40.5t-15 49h73z" />
    <glyph glyph-name="gdotaccent" unicode="&#x121;" horiz-adv-x="572" 
d="M107 -85q27 -22 67 -38.5t91 -16.5q28 0 53.5 9.5t44 28.5t29.5 47t11 65v84q-23 -31 -58.5 -54.5t-86.5 -23.5q-47 0 -87 15.5t-69 45.5t-45.5 73.5t-16.5 99.5q0 50 16.5 92t46 72t69.5 46.5t88 16.5q28 0 50 -6t39 -16t30.5 -23t23.5 -26v62h84v-458q0 -47 -16.5 -88
t-46.5 -71.5t-71 -48.5t-89 -18q-65 0 -115.5 18.5t-82.5 47.5zM265 89q34 0 60.5 12t44.5 33t27 50t9 63q0 42 -12.5 72.5t-32.5 49.5t-45 28t-51 9q-34 0 -60 -12t-44 -33.5t-27.5 -50.5t-9.5 -63q0 -70 37.5 -114t103.5 -44zM271 560q-26 0 -45 17.5t-19 46.5t19 46.5
t45 17.5q25 0 44.5 -17.5t19.5 -46.5t-19.5 -46.5t-44.5 -17.5z" />
    <glyph glyph-name="gcircumflex" unicode="&#x11d;" horiz-adv-x="572" 
d="M107 -85q27 -22 67 -38.5t91 -16.5q28 0 53.5 9.5t44 28.5t29.5 47t11 65v84q-23 -31 -58.5 -54.5t-86.5 -23.5q-47 0 -87 15.5t-69 45.5t-45.5 73.5t-16.5 99.5q0 50 16.5 92t46 72t69.5 46.5t88 16.5q28 0 50 -6t39 -16t30.5 -23t23.5 -26v62h84v-458q0 -47 -16.5 -88
t-46.5 -71.5t-71 -48.5t-89 -18q-65 0 -115.5 18.5t-82.5 47.5zM265 89q34 0 60.5 12t44.5 33t27 50t9 63q0 42 -12.5 72.5t-32.5 49.5t-45 28t-51 9q-34 0 -60 -12t-44 -33.5t-27.5 -50.5t-9.5 -63q0 -70 37.5 -114t103.5 -44zM123 572l148 128l148 -128l-41 -50l-107 91
l-107 -91z" />
    <glyph glyph-name="gbreve" unicode="&#x11f;" horiz-adv-x="572" 
d="M107 -85q27 -22 67 -38.5t91 -16.5q28 0 53.5 9.5t44 28.5t29.5 47t11 65v84q-23 -31 -58.5 -54.5t-86.5 -23.5q-47 0 -87 15.5t-69 45.5t-45.5 73.5t-16.5 99.5q0 50 16.5 92t46 72t69.5 46.5t88 16.5q28 0 50 -6t39 -16t30.5 -23t23.5 -26v62h84v-458q0 -47 -16.5 -88
t-46.5 -71.5t-71 -48.5t-89 -18q-65 0 -115.5 18.5t-82.5 47.5zM265 89q34 0 60.5 12t44.5 33t27 50t9 63q0 42 -12.5 72.5t-32.5 49.5t-45 28t-51 9q-34 0 -60 -12t-44 -33.5t-27.5 -50.5t-9.5 -63q0 -70 37.5 -114t103.5 -44zM200 674q7 -31 23.5 -48.5t47.5 -17.5
q30 0 48.5 17.5t26.5 48.5h69q-4 -26 -15 -49t-29 -40.5t-43 -28t-57 -10.5t-57 10.5t-43 28t-29 40.5t-15 49h73z" />
    <glyph glyph-name="uni0123" unicode="&#x123;" horiz-adv-x="572" 
d="M107 -85q27 -22 67 -38.5t91 -16.5q28 0 53.5 9.5t44 28.5t29.5 47t11 65v84q-23 -31 -58.5 -54.5t-86.5 -23.5q-47 0 -87 15.5t-69 45.5t-45.5 73.5t-16.5 99.5q0 50 16.5 92t46 72t69.5 46.5t88 16.5q28 0 50 -6t39 -16t30.5 -23t23.5 -26v62h84v-458q0 -47 -16.5 -88
t-46.5 -71.5t-71 -48.5t-89 -18q-65 0 -115.5 18.5t-82.5 47.5zM265 89q34 0 60.5 12t44.5 33t27 50t9 63q0 42 -12.5 72.5t-32.5 49.5t-45 28t-51 9q-34 0 -60 -12t-44 -33.5t-27.5 -50.5t-9.5 -63q0 -70 37.5 -114t103.5 -44zM326 742q-14 -20 -26.5 -42t-21.5 -54
q24 -5 39.5 -19t15.5 -37q0 -28 -17 -45t-44 -17q-26 0 -42.5 18.5t-16.5 43.5q0 23 8 47t20 47t27 43.5t29 37.5z" />
    <glyph glyph-name="hcircumflex" unicode="&#x125;" horiz-adv-x="566" 
d="M85 720h84v-329q10 17 23.5 33t31.5 28.5t40.5 20t51.5 7.5q37 0 67.5 -10.5t53 -31t35 -50.5t12.5 -69v-319h-84v297q0 55 -30 81t-75 26q-23 0 -45 -8.5t-39.5 -26.5t-29 -47t-12.5 -70v-252h-84v720zM-19 824l148 128l148 -128l-41 -50l-107 91l-107 -91z" />
    <glyph glyph-name="igrave" unicode="&#xec;" horiz-adv-x="255" 
d="M85 468h85v-468h-85v468zM-10 700l57 44l133 -175l-56 -43z" />
    <glyph glyph-name="iacute" unicode="&#xed;" horiz-adv-x="255" 
d="M85 468h85v-468h-85v468zM210 744l56 -45l-134 -172l-55 43z" />
    <glyph glyph-name="idieresis" unicode="&#xef;" horiz-adv-x="255" 
d="M85 468h85v-468h-85v468zM-40 624q0 29 19 46.5t45 17.5q25 0 44.5 -17.5t19.5 -46.5t-19.5 -46.5t-44.5 -17.5q-26 0 -45 17.5t-19 46.5zM168 624q0 29 19 46.5t45 17.5q25 0 44.5 -17.5t19.5 -46.5t-19.5 -46.5t-44.5 -17.5q-26 0 -45 17.5t-19 46.5z" />
    <glyph glyph-name="icircumflex" unicode="&#xee;" horiz-adv-x="255" 
d="M85 468h85v-468h-85v468zM-20 572l148 128l148 -128l-41 -50l-107 91l-107 -91z" />
    <glyph glyph-name="imacron" unicode="&#x12b;" horiz-adv-x="255" 
d="M85 468h85v-468h-85v468zM-12 633h280v-70h-280v70z" />
    <glyph glyph-name="itilde" unicode="&#x129;" horiz-adv-x="255" 
d="M85 468h85v-468h-85v468zM-21 546q0 27 4.5 50.5t15 40.5t27.5 27t42 10q28 0 45.5 -11t32.5 -26l6 -6q9 -9 17.5 -15t18.5 -6q13 0 21 13t10 51h63q0 -27 -4.5 -50.5t-15 -40.5t-27.5 -27t-42 -10q-28 0 -45.5 11t-32.5 26l-6 6q-9 9 -17.5 15t-18.5 6q-13 0 -21.5 -12
t-10.5 -52h-62z" />
    <glyph glyph-name="ibreve" unicode="&#x12d;" horiz-adv-x="255" 
d="M85 468h85v-468h-85v468zM57 674q7 -31 23.5 -48.5t47.5 -17.5q30 0 48.5 17.5t26.5 48.5h69q-4 -26 -15 -49t-29 -40.5t-43 -28t-57 -10.5t-57 10.5t-43 28t-29 40.5t-15 49h73z" />
    <glyph glyph-name="iogonek" unicode="&#x12f;" horiz-adv-x="255" 
d="M216 -192q-14 -7 -37.5 -15.5t-52.5 -8.5q-45 0 -73.5 27t-28.5 67q0 36 13.5 63.5t47.5 58.5v468h85v-468q-14 -8 -27 -20t-23.5 -26t-17 -30t-6.5 -32q0 -23 14.5 -33.5t31.5 -10.5t29.5 4t23.5 9zM127 560q-26 0 -45 17.5t-19 46.5t19 46.5t45 17.5q25 0 44.5 -17.5
t19.5 -46.5t-19.5 -46.5t-44.5 -17.5z" />
    <glyph glyph-name="jcircumflex" unicode="&#x135;" horiz-adv-x="334" 
d="M-16 -79q8 -10 17 -21.5t21 -21t27 -15.5t34 -6q38 0 60 21.5t22 64.5v452h-126v73h210v-515q0 -37 -11 -68t-32 -53.5t-50.5 -35t-66.5 -12.5q-35 0 -59.5 8.5t-43.5 22t-33 30t-26 33.5zM57 572l148 128l148 -128l-41 -50l-107 91l-107 -91z" />
    <glyph glyph-name="uni0137" unicode="&#x137;" horiz-adv-x="495" 
d="M169 235v-235h-84v720h84v-441l179 189h101l-195 -202l237 -266h-104zM209 -263q14 20 26 42t22 54q-25 5 -40 19t-15 37q0 28 17 45t44 17q26 0 42.5 -18.5t16.5 -43.5q0 -23 -8 -47t-20 -47t-27 -44t-29 -37z" />
    <glyph glyph-name="lacute" unicode="&#x13a;" horiz-adv-x="255" 
d="M85 720h85v-720h-85v720zM210 996l56 -45l-134 -172l-55 43z" />
    <glyph glyph-name="uni013C" unicode="&#x13c;" horiz-adv-x="255" 
d="M85 720h85v-720h-85v720zM74 -263q14 20 26 42t22 54q-25 5 -40 19t-15 37q0 28 17 45t44 17q26 0 42.5 -18.5t16.5 -43.5q0 -23 -8 -47t-20 -47t-27 -44t-29 -37z" />
    <glyph glyph-name="nacute" unicode="&#x144;" horiz-adv-x="566" 
d="M85 468h84v-77q10 17 23.5 33t31.5 28.5t40.5 20t51.5 7.5q37 0 67.5 -10.5t53 -31t35 -50.5t12.5 -69v-319h-84v297q0 55 -30 81t-75 26q-23 0 -45 -8.5t-39.5 -26.5t-29 -47t-12.5 -70v-252h-84v468zM366 744l56 -45l-134 -172l-55 43z" />
    <glyph glyph-name="ncaron" unicode="&#x148;" horiz-adv-x="566" 
d="M85 468h84v-77q10 17 23.5 33t31.5 28.5t40.5 20t51.5 7.5q37 0 67.5 -10.5t53 -31t35 -50.5t12.5 -69v-319h-84v297q0 55 -30 81t-75 26q-23 0 -45 -8.5t-39.5 -26.5t-29 -47t-12.5 -70v-252h-84v468zM177 696l107 -91l107 91l41 -50l-148 -128l-148 128z" />
    <glyph glyph-name="ntilde" unicode="&#xf1;" horiz-adv-x="566" 
d="M85 468h84v-77q10 17 23.5 33t31.5 28.5t40.5 20t51.5 7.5q37 0 67.5 -10.5t53 -31t35 -50.5t12.5 -69v-319h-84v297q0 55 -30 81t-75 26q-23 0 -45 -8.5t-39.5 -26.5t-29 -47t-12.5 -70v-252h-84v468zM135 546q0 27 4.5 50.5t15 40.5t27.5 27t42 10q28 0 45.5 -11
t32.5 -26l6 -6q9 -9 17.5 -15t18.5 -6q13 0 21 13t10 51h63q0 -27 -4.5 -50.5t-15 -40.5t-27.5 -27t-42 -10q-28 0 -45.5 11t-32.5 26l-6 6q-9 9 -17.5 15t-18.5 6q-13 0 -21.5 -12t-10.5 -52h-62z" />
    <glyph glyph-name="uni0146" unicode="&#x146;" horiz-adv-x="566" 
d="M85 468h84v-77q10 17 23.5 33t31.5 28.5t40.5 20t51.5 7.5q37 0 67.5 -10.5t53 -31t35 -50.5t12.5 -69v-319h-84v297q0 55 -30 81t-75 26q-23 0 -45 -8.5t-39.5 -26.5t-29 -47t-12.5 -70v-252h-84v468zM229 -263q14 20 26 42t22 54q-25 5 -40 19t-15 37q0 28 17 45t44 17
q26 0 42.5 -18.5t16.5 -43.5q0 -23 -8 -47t-20 -47t-27 -44t-29 -37z" />
    <glyph glyph-name="napostrophe" unicode="&#x149;" horiz-adv-x="566" 
d="M85 468h84v-77q10 17 23.5 33t31.5 28.5t40.5 20t51.5 7.5q37 0 67.5 -10.5t53 -31t35 -50.5t12.5 -69v-319h-84v297q0 55 -30 81t-75 26q-23 0 -45.5 -9t-40.5 -28t-29 -49.5t-11 -73.5v-244h-84v468zM7 547q14 20 26 42t22 54q-25 4 -40 18.5t-15 37.5q0 28 17 45
t44 17q26 0 42.5 -18.5t16.5 -43.5q0 -23 -8 -47t-20 -47t-27 -44t-29 -37z" />
    <glyph glyph-name="ograve" unicode="&#xf2;" horiz-adv-x="545" 
d="M272 62q37 0 65 14.5t47 38.5t28 55t9 64q0 34 -9 65.5t-28 55.5t-47 38.5t-65 14.5t-65 -14.5t-46.5 -38.5t-28 -55.5t-9.5 -65.5q0 -33 9.5 -64t28 -55t46.5 -38.5t65 -14.5zM272 -14q-53 0 -96 19t-73 52t-46.5 78.5t-16.5 98.5t16.5 98.5t46.5 78.5t73 52t96 19
t96 -19t73.5 -52t47 -78.5t16.5 -98.5t-16.5 -98.5t-47 -78.5t-73.5 -52t-96 -19zM134 700l57 44l133 -175l-56 -43z" />
    <glyph glyph-name="oacute" unicode="&#xf3;" horiz-adv-x="545" 
d="M272 62q37 0 65 14.5t47 38.5t28 55t9 64q0 34 -9 65.5t-28 55.5t-47 38.5t-65 14.5t-65 -14.5t-46.5 -38.5t-28 -55.5t-9.5 -65.5q0 -33 9.5 -64t28 -55t46.5 -38.5t65 -14.5zM272 -14q-53 0 -96 19t-73 52t-46.5 78.5t-16.5 98.5t16.5 98.5t46.5 78.5t73 52t96 19
t96 -19t73.5 -52t47 -78.5t16.5 -98.5t-16.5 -98.5t-47 -78.5t-73.5 -52t-96 -19zM354 744l56 -45l-134 -172l-55 43z" />
    <glyph glyph-name="ohungarumlaut" unicode="&#x151;" horiz-adv-x="545" 
d="M272 62q37 0 65 14.5t47 38.5t28 55t9 64q0 34 -9 65.5t-28 55.5t-47 38.5t-65 14.5t-65 -14.5t-46.5 -38.5t-28 -55.5t-9.5 -65.5q0 -33 9.5 -64t28 -55t46.5 -38.5t65 -14.5zM272 -14q-53 0 -96 19t-73 52t-46.5 78.5t-16.5 98.5t16.5 98.5t46.5 78.5t73 52t96 19
t96 -19t73.5 -52t47 -78.5t16.5 -98.5t-16.5 -98.5t-47 -78.5t-73.5 -52t-96 -19zM286 744l57 -44l-134 -174l-56 43zM414 744l57 -44l-134 -174l-56 43z" />
    <glyph glyph-name="odieresis" unicode="&#xf6;" horiz-adv-x="545" 
d="M272 62q37 0 65 14.5t47 38.5t28 55t9 64q0 34 -9 65.5t-28 55.5t-47 38.5t-65 14.5t-65 -14.5t-46.5 -38.5t-28 -55.5t-9.5 -65.5q0 -33 9.5 -64t28 -55t46.5 -38.5t65 -14.5zM272 -14q-53 0 -96 19t-73 52t-46.5 78.5t-16.5 98.5t16.5 98.5t46.5 78.5t73 52t96 19
t96 -19t73.5 -52t47 -78.5t16.5 -98.5t-16.5 -98.5t-47 -78.5t-73.5 -52t-96 -19zM104 624q0 29 19 46.5t45 17.5q25 0 44.5 -17.5t19.5 -46.5t-19.5 -46.5t-44.5 -17.5q-26 0 -45 17.5t-19 46.5zM312 624q0 29 19 46.5t45 17.5q25 0 44.5 -17.5t19.5 -46.5t-19.5 -46.5
t-44.5 -17.5q-26 0 -45 17.5t-19 46.5z" />
    <glyph glyph-name="ocircumflex" unicode="&#xf4;" horiz-adv-x="545" 
d="M272 62q37 0 65 14.5t47 38.5t28 55t9 64q0 34 -9 65.5t-28 55.5t-47 38.5t-65 14.5t-65 -14.5t-46.5 -38.5t-28 -55.5t-9.5 -65.5q0 -33 9.5 -64t28 -55t46.5 -38.5t65 -14.5zM272 -14q-53 0 -96 19t-73 52t-46.5 78.5t-16.5 98.5t16.5 98.5t46.5 78.5t73 52t96 19
t96 -19t73.5 -52t47 -78.5t16.5 -98.5t-16.5 -98.5t-47 -78.5t-73.5 -52t-96 -19zM124 572l148 128l148 -128l-41 -50l-107 91l-107 -91z" />
    <glyph glyph-name="omacron" unicode="&#x14d;" horiz-adv-x="545" 
d="M272 62q37 0 65 14.5t47 38.5t28 55t9 64q0 34 -9 65.5t-28 55.5t-47 38.5t-65 14.5t-65 -14.5t-46.5 -38.5t-28 -55.5t-9.5 -65.5q0 -33 9.5 -64t28 -55t46.5 -38.5t65 -14.5zM272 -14q-53 0 -96 19t-73 52t-46.5 78.5t-16.5 98.5t16.5 98.5t46.5 78.5t73 52t96 19
t96 -19t73.5 -52t47 -78.5t16.5 -98.5t-16.5 -98.5t-47 -78.5t-73.5 -52t-96 -19zM132 633h280v-70h-280v70z" />
    <glyph glyph-name="obreve" unicode="&#x14f;" horiz-adv-x="545" 
d="M272 62q37 0 65 14.5t47 38.5t28 55t9 64q0 34 -9 65.5t-28 55.5t-47 38.5t-65 14.5t-65 -14.5t-46.5 -38.5t-28 -55.5t-9.5 -65.5q0 -33 9.5 -64t28 -55t46.5 -38.5t65 -14.5zM272 -14q-53 0 -96 19t-73 52t-46.5 78.5t-16.5 98.5t16.5 98.5t46.5 78.5t73 52t96 19
t96 -19t73.5 -52t47 -78.5t16.5 -98.5t-16.5 -98.5t-47 -78.5t-73.5 -52t-96 -19zM201 674q7 -31 23.5 -48.5t47.5 -17.5q30 0 48.5 17.5t26.5 48.5h69q-4 -26 -15 -49t-29 -40.5t-43 -28t-57 -10.5t-57 10.5t-43 28t-29 40.5t-15 49h73z" />
    <glyph glyph-name="otilde" unicode="&#xf5;" horiz-adv-x="545" 
d="M272 62q37 0 65 14.5t47 38.5t28 55t9 64q0 34 -9 65.5t-28 55.5t-47 38.5t-65 14.5t-65 -14.5t-46.5 -38.5t-28 -55.5t-9.5 -65.5q0 -33 9.5 -64t28 -55t46.5 -38.5t65 -14.5zM272 -14q-53 0 -96 19t-73 52t-46.5 78.5t-16.5 98.5t16.5 98.5t46.5 78.5t73 52t96 19
t96 -19t73.5 -52t47 -78.5t16.5 -98.5t-16.5 -98.5t-47 -78.5t-73.5 -52t-96 -19zM123 546q0 27 4.5 50.5t15 40.5t27.5 27t42 10q28 0 45.5 -11t32.5 -26l6 -6q9 -9 17.5 -15t18.5 -6q13 0 21 13t10 51h63q0 -27 -4.5 -50.5t-15 -40.5t-27.5 -27t-42 -10q-28 0 -45.5 11
t-32.5 26l-6 6q-9 9 -17.5 15t-18.5 6q-13 0 -21.5 -12t-10.5 -52h-62z" />
    <glyph glyph-name="oslashacute" unicode="&#x1ff;" horiz-adv-x="545" 
d="M32 34l49 51q-20 31 -30.5 68.5t-10.5 80.5q0 53 16.5 98.5t46.5 78.5t73 52t96 19q44 0 80.5 -13t65.5 -36l50 51l45 -47l-51 -52q43 -63 43 -151q0 -53 -16.5 -98.5t-47 -78.5t-73.5 -52t-96 -19q-45 0 -82 13t-66 37l-47 -49zM272 62q37 0 65 14.5t47 38.5t28 55t9 64
q0 50 -18 89l-223 -229q18 -15 40.5 -23.5t51.5 -8.5zM123 234q0 -49 18 -88l222 230q-17 15 -39.5 23.5t-51.5 8.5q-37 0 -65 -14.5t-46.5 -38.5t-28 -55.5t-9.5 -65.5zM354 744l56 -45l-134 -172l-55 43z" />
    <glyph glyph-name="racute" unicode="&#x155;" horiz-adv-x="371" 
d="M85 468h85v-91q23 44 53 71.5t81 27.5q11 0 22.5 -1t25.5 -5l-14 -78l-24.5 3.5t-19.5 1.5q-25 0 -47.5 -11.5t-39.5 -31t-27 -45.5t-10 -56v-253h-85v468zM290 744l56 -45l-134 -172l-55 43z" />
    <glyph glyph-name="rcaron" unicode="&#x159;" horiz-adv-x="371" 
d="M85 468h85v-91q23 44 53 71.5t81 27.5q11 0 22.5 -1t25.5 -5l-14 -78l-24.5 3.5t-19.5 1.5q-25 0 -47.5 -11.5t-39.5 -31t-27 -45.5t-10 -56v-253h-85v468zM101 696l107 -91l107 91l41 -50l-148 -128l-148 128z" />
    <glyph glyph-name="uni0157" unicode="&#x157;" horiz-adv-x="371" 
d="M85 468h85v-91q23 44 53 71.5t81 27.5q11 0 22.5 -1t25.5 -5l-14 -78l-24.5 3.5t-19.5 1.5q-25 0 -47.5 -11.5t-39.5 -31t-27 -45.5t-10 -56v-253h-85v468zM74 -263q14 20 26 42t22 54q-25 5 -40 19t-15 37q0 28 17 45t44 17q26 0 42.5 -18.5t16.5 -43.5q0 -23 -8 -47
t-20 -47t-27 -44t-29 -37z" />
    <glyph glyph-name="sacute" unicode="&#x15b;" horiz-adv-x="434" 
d="M79 125q14 -9 30 -20.5t34.5 -21t39.5 -16t45 -6.5q40 0 62.5 15t22.5 44q0 30 -22.5 44t-66.5 31l-53 21q-49 20 -79.5 50.5t-30.5 84.5q0 27 11.5 50.5t32 41t48.5 27.5t61 10q53 0 89 -14t70 -39l-37 -57q-21 13 -50.5 26.5t-68.5 13.5q-30 0 -52 -15t-22 -41
q0 -25 13.5 -39.5t54.5 -30.5l63 -25q24 -10 45.5 -21.5t38 -27t26 -35.5t9.5 -47q0 -32 -12 -57.5t-34.5 -44t-53.5 -28.5t-68 -10q-57 0 -103.5 23t-83.5 50zM297 756l56 -45l-134 -172l-55 43z" />
    <glyph glyph-name="scaron" unicode="&#x161;" horiz-adv-x="434" 
d="M79 125q14 -9 30 -20.5t34.5 -21t39.5 -16t45 -6.5q40 0 62.5 15t22.5 44q0 30 -22.5 44t-66.5 31l-53 21q-49 20 -79.5 50.5t-30.5 84.5q0 27 11.5 50.5t32 41t48.5 27.5t61 10q53 0 89 -14t70 -39l-37 -57q-21 13 -50.5 26.5t-68.5 13.5q-30 0 -52 -15t-22 -41
q0 -25 13.5 -39.5t54.5 -30.5l63 -25q24 -10 45.5 -21.5t38 -27t26 -35.5t9.5 -47q0 -32 -12 -57.5t-34.5 -44t-53.5 -28.5t-68 -10q-57 0 -103.5 23t-83.5 50zM108 708l107 -91l107 91l41 -50l-148 -128l-148 128z" />
    <glyph glyph-name="scircumflex" unicode="&#x15d;" horiz-adv-x="434" 
d="M79 125q14 -9 30 -20.5t34.5 -21t39.5 -16t45 -6.5q40 0 62.5 15t22.5 44q0 30 -22.5 44t-66.5 31l-53 21q-49 20 -79.5 50.5t-30.5 84.5q0 27 11.5 50.5t32 41t48.5 27.5t61 10q53 0 89 -14t70 -39l-37 -57q-21 13 -50.5 26.5t-68.5 13.5q-30 0 -52 -15t-22 -41
q0 -25 13.5 -39.5t54.5 -30.5l63 -25q24 -10 45.5 -21.5t38 -27t26 -35.5t9.5 -47q0 -32 -12 -57.5t-34.5 -44t-53.5 -28.5t-68 -10q-57 0 -103.5 23t-83.5 50zM67 584l148 128l148 -128l-41 -50l-107 91l-107 -91z" />
    <glyph glyph-name="uni0219" unicode="&#x219;" horiz-adv-x="434" 
d="M79 125q14 -9 30 -20.5t34.5 -21t39.5 -16t45 -6.5q40 0 62.5 15t22.5 44q0 30 -22.5 44t-66.5 31l-53 21q-49 20 -79.5 50.5t-30.5 84.5q0 27 11.5 50.5t32 41t48.5 27.5t61 10q53 0 89 -14t70 -39l-37 -57q-21 13 -50.5 26.5t-68.5 13.5q-30 0 -52 -15t-22 -41
q0 -25 13.5 -39.5t54.5 -30.5l63 -25q24 -10 45.5 -21.5t38 -27t26 -35.5t9.5 -47q0 -32 -12 -57.5t-34.5 -44t-53.5 -28.5t-68 -10q-57 0 -103.5 23t-83.5 50zM167 -263q14 20 26 42t22 54q-25 5 -40 19t-15 37q0 28 17 45t44 17q26 0 42.5 -18.5t16.5 -43.5q0 -23 -8 -47
t-20 -47t-27 -44t-29 -37z" />
    <glyph glyph-name="scedilla" unicode="&#x15f;" horiz-adv-x="434" 
d="M79 125q14 -9 30 -20.5t34.5 -21t39.5 -16t45 -6.5q40 0 62.5 15t22.5 44q0 30 -22.5 44t-66.5 31l-53 21q-49 20 -79.5 50.5t-30.5 84.5q0 27 11.5 50.5t32 41t48.5 27.5t61 10q53 0 89 -14t70 -39l-37 -57q-21 13 -50.5 26.5t-68.5 13.5q-30 0 -52 -15t-22 -41
q0 -25 13.5 -39.5t54.5 -30.5l63 -25q24 -10 45.5 -21.5t38 -27t26 -35.5t9.5 -47q0 -32 -12 -57.5t-34.5 -44t-53.5 -28.5t-68 -10q-57 0 -103.5 23t-83.5 50zM159 -143q11 -5 24 -13t35 -8q18 0 29.5 9t11.5 26q0 16 -11.5 25t-27.5 9t-24 -3t-19 -7l-26 36l43 77l58 -7
l-31 -48h7q39 0 64.5 -21t25.5 -59q0 -41 -28 -65t-70 -24q-32 0 -52 10t-34 19z" />
    <glyph glyph-name="uni021B" unicode="&#x21b;" horiz-adv-x="420" 
d="M9 466h98v166l83 12v-178h185v-73h-185v-210q0 -63 26 -91t72 -28q29 0 52 11q24 10 41 20l32 -62q-23 -16 -56 -31q-32 -16 -79 -16q-43 0 -75 15q-32 14 -54 39q-21 24 -32 56q-10 32 -10 67v230h-98v73zM217 -263q14 20 26 42t22 54q-25 5 -40 19t-15 37q0 28 17 45
t44 17q26 0 42.5 -18.5t16.5 -43.5q0 -23 -8 -47t-20 -47t-27 -44t-29 -37z" />
    <glyph glyph-name="uni0163" unicode="&#x163;" horiz-adv-x="420" 
d="M9 466h98v166l83 12v-178h185v-73h-185v-210q0 -63 26 -91t72 -28q29 0 52 11q24 10 41 20l32 -62q-23 -16 -56 -31q-32 -16 -79 -16q-43 0 -75 15q-32 14 -54 39q-21 24 -32 56q-10 32 -10 67v230h-98v73zM209 -143q11 -5 24 -13t35 -8q18 0 29.5 9t11.5 26
q0 16 -11.5 25t-27.5 9t-24 -3t-19 -7l-26 36l43 77l58 -7l-31 -48h7q39 0 64.5 -21t25.5 -59q0 -41 -28 -65t-70 -24q-32 0 -52 10t-34 19z" />
    <glyph glyph-name="ugrave" unicode="&#xf9;" horiz-adv-x="539" 
d="M72 468h84v-275q0 -63 30 -97t83 -34q54 0 83.5 34t29.5 97v275h85v-276q0 -48 -14.5 -85.5t-40.5 -64t-62.5 -40.5t-80.5 -14t-80 14t-62 40.5t-40.5 64t-14.5 85.5v276zM132 700l57 44l133 -175l-56 -43z" />
    <glyph glyph-name="uacute" unicode="&#xfa;" horiz-adv-x="539" 
d="M72 468h84v-275q0 -63 30 -97t83 -34q54 0 83.5 34t29.5 97v275h85v-276q0 -48 -14.5 -85.5t-40.5 -64t-62.5 -40.5t-80.5 -14t-80 14t-62 40.5t-40.5 64t-14.5 85.5v276zM352 744l56 -45l-134 -172l-55 43z" />
    <glyph glyph-name="uhungarumlaut" unicode="&#x171;" horiz-adv-x="539" 
d="M72 468h84v-275q0 -63 30 -97t83 -34q54 0 83.5 34t29.5 97v275h85v-276q0 -48 -14.5 -85.5t-40.5 -64t-62.5 -40.5t-80.5 -14t-80 14t-62 40.5t-40.5 64t-14.5 85.5v276zM284 744l57 -44l-134 -174l-56 43zM412 744l57 -44l-134 -174l-56 43z" />
    <glyph glyph-name="udieresis" unicode="&#xfc;" horiz-adv-x="539" 
d="M72 468h84v-275q0 -63 30 -97t83 -34q54 0 83.5 34t29.5 97v275h85v-276q0 -48 -14.5 -85.5t-40.5 -64t-62.5 -40.5t-80.5 -14t-80 14t-62 40.5t-40.5 64t-14.5 85.5v276zM102 624q0 29 19 46.5t45 17.5q25 0 44.5 -17.5t19.5 -46.5t-19.5 -46.5t-44.5 -17.5
q-26 0 -45 17.5t-19 46.5zM310 624q0 29 19 46.5t45 17.5q25 0 44.5 -17.5t19.5 -46.5t-19.5 -46.5t-44.5 -17.5q-26 0 -45 17.5t-19 46.5z" />
    <glyph glyph-name="ucircumflex" unicode="&#xfb;" horiz-adv-x="539" 
d="M72 468h84v-275q0 -63 30 -97t83 -34q54 0 83.5 34t29.5 97v275h85v-276q0 -48 -14.5 -85.5t-40.5 -64t-62.5 -40.5t-80.5 -14t-80 14t-62 40.5t-40.5 64t-14.5 85.5v276zM122 572l148 128l148 -128l-41 -50l-107 91l-107 -91z" />
    <glyph glyph-name="umacron" unicode="&#x16b;" horiz-adv-x="539" 
d="M72 468h84v-275q0 -63 30 -97t83 -34q54 0 83.5 34t29.5 97v275h85v-276q0 -48 -14.5 -85.5t-40.5 -64t-62.5 -40.5t-80.5 -14t-80 14t-62 40.5t-40.5 64t-14.5 85.5v276zM130 633h280v-70h-280v70z" />
    <glyph glyph-name="utilde" unicode="&#x169;" horiz-adv-x="539" 
d="M72 468h84v-275q0 -63 30 -97t83 -34q54 0 83.5 34t29.5 97v275h85v-276q0 -48 -14.5 -85.5t-40.5 -64t-62.5 -40.5t-80.5 -14t-80 14t-62 40.5t-40.5 64t-14.5 85.5v276zM121 546q0 27 4.5 50.5t15 40.5t27.5 27t42 10q28 0 45.5 -11t32.5 -26l6 -6q9 -9 17.5 -15
t18.5 -6q13 0 21 13t10 51h63q0 -27 -4.5 -50.5t-15 -40.5t-27.5 -27t-42 -10q-28 0 -45.5 11t-32.5 26l-6 6q-9 9 -17.5 15t-18.5 6q-13 0 -21.5 -12t-10.5 -52h-62z" />
    <glyph glyph-name="ubreve" unicode="&#x16d;" horiz-adv-x="539" 
d="M72 468h84v-275q0 -63 30 -97t83 -34q54 0 83.5 34t29.5 97v275h85v-276q0 -48 -14.5 -85.5t-40.5 -64t-62.5 -40.5t-80.5 -14t-80 14t-62 40.5t-40.5 64t-14.5 85.5v276zM199 674q7 -31 23.5 -48.5t47.5 -17.5q30 0 48.5 17.5t26.5 48.5h69q-4 -26 -15 -49t-29 -40.5
t-43 -28t-57 -10.5t-57 10.5t-43 28t-29 40.5t-15 49h73z" />
    <glyph glyph-name="uring" unicode="&#x16f;" horiz-adv-x="539" 
d="M72 468h84v-275q0 -63 30 -97t83 -34q54 0 83.5 34t29.5 97v275h85v-276q0 -48 -14.5 -85.5t-40.5 -64t-62.5 -40.5t-80.5 -14t-80 14t-62 40.5t-40.5 64t-14.5 85.5v276zM269 522q-42 0 -71.5 27t-29.5 72t29.5 72t71.5 27t71.5 -27t29.5 -72t-29.5 -72t-71.5 -27z
M269 577q18 0 30 12t12 32t-12 32t-30 12t-30 -12t-12 -32t12 -32t30 -12z" />
    <glyph glyph-name="uogonek" unicode="&#x173;" horiz-adv-x="539" 
d="M400 -192q-14 -7 -37.5 -15.5t-52.5 -8.5q-45 0 -73.5 27t-28.5 67q0 63 50 110q-42 2 -76 16.5t-58.5 41t-38 63.5t-13.5 83v276h84v-275q0 -63 30 -97t83 -34q54 0 83.5 34t29.5 97v275h85v-276q0 -64 -25 -109.5t-70 -69.5q-18 -12 -34.5 -26.5t-29.5 -30t-20.5 -32
t-7.5 -32.5q0 -23 14.5 -33.5t31.5 -10.5t29.5 4t23.5 9z" />
    <glyph glyph-name="wgrave" unicode="&#x1e81;" horiz-adv-x="696" 
d="M14 468h86l109 -307l135 307h12l141 -307l104 307h81l-169 -480h-21l-145 312l-143 -312h-21zM210 700l57 44l133 -175l-56 -43z" />
    <glyph glyph-name="wacute" unicode="&#x1e83;" horiz-adv-x="696" 
d="M14 468h86l109 -307l135 307h12l141 -307l104 307h81l-169 -480h-21l-145 312l-143 -312h-21zM430 744l56 -45l-134 -172l-55 43z" />
    <glyph glyph-name="wdieresis" unicode="&#x1e85;" horiz-adv-x="696" 
d="M14 468h86l109 -307l135 307h12l141 -307l104 307h81l-169 -480h-21l-145 312l-143 -312h-21zM180 624q0 29 19 46.5t45 17.5q25 0 44.5 -17.5t19.5 -46.5t-19.5 -46.5t-44.5 -17.5q-26 0 -45 17.5t-19 46.5zM388 624q0 29 19 46.5t45 17.5q25 0 44.5 -17.5t19.5 -46.5
t-19.5 -46.5t-44.5 -17.5q-26 0 -45 17.5t-19 46.5z" />
    <glyph glyph-name="wcircumflex" unicode="&#x175;" horiz-adv-x="696" 
d="M14 468h86l109 -307l135 307h12l141 -307l104 307h81l-169 -480h-21l-145 312l-143 -312h-21zM200 572l148 128l148 -128l-41 -50l-107 91l-107 -91z" />
    <glyph glyph-name="ygrave" unicode="&#x1ef3;" horiz-adv-x="449" 
d="M-32 -112q16 -8 36.5 -18.5t46.5 -10.5q18 0 34 4t30 14t26 28t24 47l23 58l-168 458h91l122 -341l123 341h89l-210 -537q-28 -70 -70.5 -108.5t-116.5 -38.5q-64 0 -116 37zM87 700l57 44l133 -175l-56 -43z" />
    <glyph glyph-name="yacute" unicode="&#xfd;" horiz-adv-x="449" 
d="M-32 -112q16 -8 36.5 -18.5t46.5 -10.5q18 0 34 4t30 14t26 28t24 47l23 58l-168 458h91l122 -341l123 341h89l-210 -537q-28 -70 -70.5 -108.5t-116.5 -38.5q-64 0 -116 37zM307 744l56 -45l-134 -172l-55 43z" />
    <glyph glyph-name="ydieresis" unicode="&#xff;" horiz-adv-x="449" 
d="M-32 -112q16 -8 36.5 -18.5t46.5 -10.5q18 0 34 4t30 14t26 28t24 47l23 58l-168 458h91l122 -341l123 341h89l-210 -537q-28 -70 -70.5 -108.5t-116.5 -38.5q-64 0 -116 37zM57 624q0 29 19 46.5t45 17.5q25 0 44.5 -17.5t19.5 -46.5t-19.5 -46.5t-44.5 -17.5
q-26 0 -45 17.5t-19 46.5zM265 624q0 29 19 46.5t45 17.5q25 0 44.5 -17.5t19.5 -46.5t-19.5 -46.5t-44.5 -17.5q-26 0 -45 17.5t-19 46.5z" />
    <glyph glyph-name="ycircumflex" unicode="&#x177;" horiz-adv-x="449" 
d="M-32 -112q16 -8 36.5 -18.5t46.5 -10.5q18 0 34 4t30 14t26 28t24 47l23 58l-168 458h91l122 -341l123 341h89l-210 -537q-28 -70 -70.5 -108.5t-116.5 -38.5q-64 0 -116 37zM77 572l148 128l148 -128l-41 -50l-107 91l-107 -91z" />
    <glyph glyph-name="zacute" unicode="&#x17a;" horiz-adv-x="454" 
d="M294 394h-247v74h387l-276 -395h261v-73h-399zM317 744l56 -45l-134 -172l-55 43z" />
    <glyph glyph-name="zdotaccent" unicode="&#x17c;" horiz-adv-x="454" 
d="M294 394h-247v74h387l-276 -395h261v-73h-399zM235 560q-26 0 -45 17.5t-19 46.5t19 46.5t45 17.5q25 0 44.5 -17.5t19.5 -46.5t-19.5 -46.5t-44.5 -17.5z" />
    <glyph glyph-name="zcaron" unicode="&#x17e;" horiz-adv-x="454" 
d="M294 394h-247v74h387l-276 -395h261v-73h-399zM128 696l107 -91l107 91l41 -50l-148 -128l-148 128z" />
    <glyph glyph-name="uni00A0" unicode="&#xa0;" horiz-adv-x="242" 
 />
    <glyph glyph-name="uni00AD.case" horiz-adv-x="348" 
d="M44 384h260v-79h-260v79z" />
    <glyph glyph-name="Ldot.latn_CAT" horiz-adv-x="495" 
d="M83 648h85v-569h295v-79h-380v648zM320 261q-26 0 -45 17.5t-19 46.5t19 46.5t45 17.5q25 0 44.5 -17.5t19.5 -46.5t-19.5 -46.5t-44.5 -17.5z" />
    <glyph glyph-name="ldot.latn_CAT" horiz-adv-x="357" 
d="M85 720h85v-720h-85v720zM300 261q-26 0 -45 17.5t-19 46.5t19 46.5t45 17.5q25 0 44.5 -17.5t19.5 -46.5t-19.5 -46.5t-44.5 -17.5z" />
    <glyph glyph-name="i.latn_TRK" horiz-adv-x="255" 
d="M127 560q-26 0 -45 17.5t-19 46.5t19 46.5t45 17.5q25 0 44.5 -17.5t19.5 -46.5t-19.5 -46.5t-44.5 -17.5zM85 468h85v-468h-85v468z" />
    <glyph glyph-name="f_f" horiz-adv-x="701" 
d="M445 395h-242v-395h-85v395h-98v73h98v51q0 43 13 82t37.5 68t61 46t84.5 17q44 0 72.5 -10t53.5 -23l-35 -66q-20 11 -40.5 17t-51.5 6q-51 0 -80.5 -37t-29.5 -98v-53h242v51q0 43 13 82t37.5 68t60.5 46t83 17q26 0 46.5 -4t37.5 -11t31.5 -16.5t28.5 -19.5l-42 -61
q-22 16 -44 26t-59 10q-50 0 -79 -37t-29 -98v-53h177v-73h-177v-395h-85v395z" />
    <glyph glyph-name="f_f_i" horiz-adv-x="942" 
d="M20 468h98v51q0 43 13 82t37.5 68t61 46t84.5 17q44 0 72.5 -10t53.5 -23l-35 -66q-20 11 -40.5 17t-51.5 6q-51 0 -80.5 -37t-29.5 -98v-53h242v51q0 43 13 82t37.5 68t61 46t84.5 17q17 0 31.5 -1.5t26.5 -5.5l-14 -73q-9 2 -19 3t-26 1q-51 0 -80.5 -37t-29.5 -98v-53
h327v-468h-85v395h-242v-395h-85v395h-242v-395h-85v395h-98v73zM814 560q-26 0 -45 17.5t-19 46.5t19 46.5t45 17.5q25 0 44.5 -17.5t19.5 -46.5t-19.5 -46.5t-44.5 -17.5z" />
    <glyph glyph-name="f_f_l" horiz-adv-x="942" 
d="M203 0h-85v395h-98v73h98v51q0 43 13 82t37.5 68t61 46t84.5 17q44 0 72.5 -10t53.5 -23l-35 -66q-20 11 -40.5 17t-51.5 6q-51 0 -80.5 -37t-29.5 -98v-53h242v51q0 43 13.5 82t38.5 68t61 46t81 17q33 0 49 -4t34 -9l-18 -73q-14 4 -26.5 7t-37.5 3q-28 0 -48.5 -10.5
t-34 -29t-20.5 -43t-7 -52.5v-53h173v-73h-173v-395h-85v395h-242v-395zM772 720h85v-720h-85v720z" />
    <glyph glyph-name="f_i" horiz-adv-x="615" 
d="M20 468h98v51q0 43 13 82t37.5 68t61 46t84.5 17q17 0 31.5 -1.5t26.5 -5.5l-14 -73q-9 2 -19 3t-26 1q-51 0 -80.5 -37t-29.5 -98v-53h327v-468h-85v395h-242v-395h-85v395h-98v73zM487 560q-26 0 -45 17.5t-19 46.5t19 46.5t45 17.5q25 0 44.5 -17.5t19.5 -46.5
t-19.5 -46.5t-44.5 -17.5z" />
    <glyph glyph-name="f_l" horiz-adv-x="615" 
d="M20 468h98v51q0 43 13.5 82t38.5 68t61 46t81 17q33 0 49 -4t34 -9l-18 -73q-14 4 -26.5 7t-37.5 3q-28 0 -48.5 -10.5t-34 -29t-20.5 -43t-7 -52.5v-53h173v-73h-173v-395h-85v395h-98v73zM445 720h85v-720h-85v720z" />
    <glyph glyph-name="a.alt" horiz-adv-x="509" 
d="M302 288q8 1 20.5 3.5t24.5 4.5v22q0 46 -30.5 65.5t-78.5 19.5q-35 0 -71 -18.5t-61 -40.5l-42 53q13 13 32.5 27.5t43.5 27t51.5 20.5t56.5 8q34 0 66.5 -9.5t57.5 -30.5t40 -53.5t15 -77.5v-309h-81v71q-11 -15 -24.5 -30t-32 -26.5t-42.5 -19t-55 -7.5q-35 0 -62 11
t-45 29.5t-27.5 43t-9.5 51.5q0 33 12.5 59t34.5 44.5t52 30.5t66 17zM216 208q-41 -6 -64 -28t-23 -53q0 -33 22.5 -50.5t60.5 -17.5q27 0 51 9.5t42 25.5t29 37.5t11 46.5v51q-4 -1 -11 -3q-12 -3 -37 -6z" />
    <glyph glyph-name="g.alt" horiz-adv-x="467" 
d="M52 311q0 31 11.5 61.5t34 54.5t55.5 38.5t76 14.5q32 0 59.5 -9t49.5 -25l73 60l46 -56l-73 -56q21 -38 21 -83q0 -33 -11.5 -64t-34 -55.5t-55 -39t-75.5 -14.5h-8q-36 -2 -61 -11t-25 -29q0 -38 59 -39l119 -2q33 0 62.5 -7.5t51 -22.5t34 -38t12.5 -54
q0 -38 -19.5 -66.5t-52 -47t-75 -28t-89.5 -9.5q-109 0 -168.5 37t-59.5 100q0 22 7 39t18 30.5t24 22.5t26 15q-11 14 -18 29t-7 31q0 29 15 50.5t46 32.5q-34 25 -51 62t-17 78zM170 -14q-38 -2 -58 -18t-20 -41q0 -34 38.5 -53t110.5 -19q79 0 114.5 21t35.5 54
q0 28 -25 42t-88 14h-108zM133 311q0 -45 25.5 -75t70.5 -30t72 30t27 75q0 42 -27 71.5t-72 29.5q-44 0 -70 -29.5t-26 -71.5z" />
    <glyph glyph-name="ampersand.alt" horiz-adv-x="683" 
d="M262 660q40 0 70.5 -14.5t51 -38t30.5 -52t10 -55.5q0 -32 -12 -58.5t-31.5 -48.5t-43.5 -39.5t-47 -32.5l133 -158l189 216v-105l-143 -165q20 -22 41.5 -35.5t47.5 -13.5q25 0 41 7.5t27 14.5l33 -59q-18 -12 -42.5 -23.5t-60.5 -11.5q-42 0 -76 17.5t-64 47.5
q-35 -29 -76.5 -47t-94.5 -18q-43 0 -78 13t-59.5 35.5t-38 54t-13.5 68.5q0 31 9.5 56.5t26 47t38.5 39t46 32.5q-12 14 -26 31.5t-25.5 38t-19 44.5t-7.5 52t11 56.5t32 51.5t51.5 37.5t69.5 14.5zM253 60q32 0 60.5 13t54.5 34l-145 172q-41 -27 -62.5 -52.5t-21.5 -65.5
q0 -24 9.5 -42.5t25.5 -31.5t36.5 -20t42.5 -7zM178 495q0 -32 19 -60.5t48 -61.5q28 17 47.5 31.5t31 28.5t16.5 29t5 33q0 42 -21.5 68.5t-59.5 26.5q-41 0 -63.5 -28t-22.5 -67z" />
    <glyph glyph-name="a.dnom.alt" horiz-adv-x="408" 
d="M236 232l32 5v15q0 33 -23 48.5t-61 15.5q-28 0 -55 -15t-49 -33l-40 44q10 12 26.5 24t36 22t42.5 16t47 6q29 0 55.5 -7.5t47 -24t33 -42.5t12.5 -62v-244h-72v46q-18 -21 -46 -37.5t-74 -16.5q-59 0 -89.5 32t-30.5 76q0 26 10.5 46t29 35t43.5 24.5t53 14.5zM168 164
q-36 -6 -52 -23.5t-16 -40.5t17 -35.5t47 -12.5q21 0 39.5 7t33 19.5t23 29.5t8.5 36v36l-32 -4z" />
    <glyph glyph-name="g.dnom.alt" horiz-adv-x="388" 
d="M40 244q0 25 10 49.5t28.5 43.5t46 31t63.5 12q26 0 48 -7t39 -18l57 45l44 -44l-58 -46q18 -32 18 -66q0 -25 -10 -49.5t-28.5 -43.5t-46 -31t-63.5 -12h-6q-29 -2 -47.5 -8t-18.5 -20q0 -13 8.5 -20.5t31.5 -7.5h96q28 0 52.5 -6.5t43 -19t29.5 -31t11 -43.5
q0 -31 -16 -54t-43 -38.5t-62.5 -23.5t-74.5 -8q-90 0 -139 32.5t-49 83.5q0 33 19.5 53t40.5 31q-9 10 -14.5 21t-5.5 23q0 23 11.5 40t37.5 26q-26 20 -39.5 48t-13.5 58zM196 -112q62 0 91 17.5t29 42.5q0 19 -21.5 31.5t-70.5 12.5h-84q-30 0 -47 -13t-17 -31
q0 -25 28.5 -42.5t91.5 -17.5zM112 244q0 -31 21 -53.5t55 -22.5t55 22.5t21 53.5t-21 53.5t-55 22.5t-55 -22.5t-21 -53.5z" />
    <glyph glyph-name="a.numr.alt" 
d="M80 648h630v-648h-630v648z" />
    <glyph glyph-name="g.numr.alt" 
d="M80 648h630v-648h-630v648z" />
    <glyph glyph-name="a.subs.alt" horiz-adv-x="408" 
d="M236 81l32 5v15q0 33 -23 48.5t-61 15.5q-28 0 -55 -15t-49 -33l-40 44q10 12 26.5 24t36 22t42.5 16t47 6q29 0 55.5 -7.5t47 -24t33 -42.5t12.5 -62v-244h-72v46q-18 -21 -46 -37.5t-74 -16.5q-59 0 -89.5 32t-30.5 76q0 26 10.5 46t29 35t43.5 24.5t53 14.5zM168 13
q-36 -6 -52 -23.5t-16 -40.5t17 -35.5t47 -12.5q21 0 39.5 7t33 19.5t23 29.5t8.5 36v36l-32 -4z" />
    <glyph glyph-name="g.subs.alt" horiz-adv-x="388" 
d="M40 93q0 25 10 49.5t28.5 43.5t46 31t63.5 12q26 0 48 -7t39 -18l57 45l44 -44l-58 -46q18 -32 18 -66q0 -25 -10 -49.5t-28.5 -43.5t-46 -31t-63.5 -12h-6q-29 -2 -47.5 -8t-18.5 -20q0 -13 8.5 -20.5t31.5 -7.5h96q28 0 52.5 -6.5t43 -19t29.5 -31t11 -43.5
q0 -31 -16 -54t-43 -38.5t-62.5 -23.5t-74.5 -8q-90 0 -139 32.5t-49 83.5q0 33 19.5 53t40.5 31q-9 10 -14.5 21t-5.5 23q0 23 11.5 40t37.5 26q-26 20 -39.5 48t-13.5 58zM196 -263q62 0 91 17.5t29 42.5q0 19 -21.5 31.5t-70.5 12.5h-84q-30 0 -47 -13t-17 -31
q0 -25 28.5 -42.5t91.5 -17.5zM112 93q0 -31 21 -53.5t55 -22.5t55 22.5t21 53.5t-21 53.5t-55 22.5t-55 -22.5t-21 -53.5z" />
    <glyph glyph-name="a.sups.alt" 
d="M80 648h630v-648h-630v648z" />
    <glyph glyph-name="g.sups.alt" 
d="M80 648h630v-648h-630v648z" />
    <glyph glyph-name="ae.alt" horiz-adv-x="818" 
d="M64 397q13 13 32.5 27.5t43.5 27t51.5 20.5t56.5 8q51 0 94.5 -21t66.5 -67q27 42 68.5 65t94.5 23q55 0 94.5 -20.5t64.5 -54t36 -76.5q10 -39 10 -81v-7l-1 -30h-344q4 -31 16 -57.5t32 -46.5t49 -31.5t66 -11.5q26 0 46.5 5.5t37.5 13.5t30.5 17.5t24.5 18.5l37 -58
q-15 -11 -33 -24t-40.5 -24t-50 -18t-61.5 -7q-67 0 -116.5 33.5t-75.5 92.5q-12 -26 -29.5 -48.5t-42 -40t-56.5 -27.5t-74 -10q-35 0 -62 11t-45 29.5t-27.5 43t-9.5 51.5q0 33 12.5 59t34.5 44.5t52 30.5t66 17l89 14q8 1 20.5 3.5t24.5 4.5v22q0 46 -30.5 65.5
t-78.5 19.5q-35 0 -71 -18.5t-61 -40.5zM216 208q-41 -6 -64 -28t-23 -53q0 -33 22.5 -50.5t60.5 -17.5q27 0 51 9.5t42 25.5t29 37.5t11 46.5v51q-4 -1 -11 -3q-12 -3 -37 -6zM572 412q-57 0 -92.5 -36.5t-45.5 -95.5h260q0 25 -7.5 48.5t-22.5 42t-38 30t-54 11.5z" />
    <glyph glyph-name="aeacute.alt" horiz-adv-x="818" 
d="M64 397q13 13 32.5 27.5t43.5 27t51.5 20.5t56.5 8q51 0 94.5 -21t66.5 -67q27 42 68.5 65t94.5 23q55 0 94.5 -20.5t64.5 -54t36 -76.5q10 -39 10 -81v-7l-1 -30h-344q4 -31 16 -57.5t32 -46.5t49 -31.5t66 -11.5q26 0 46.5 5.5t37.5 13.5t30.5 17.5t24.5 18.5l37 -58
q-15 -11 -33 -24t-40.5 -24t-50 -18t-61.5 -7q-67 0 -116.5 33.5t-75.5 92.5q-12 -26 -29.5 -48.5t-42 -40t-56.5 -27.5t-74 -10q-35 0 -62 11t-45 29.5t-27.5 43t-9.5 51.5q0 33 12.5 59t34.5 44.5t52 30.5t66 17l89 14q8 1 20.5 3.5t24.5 4.5v22q0 46 -30.5 65.5
t-78.5 19.5q-35 0 -71 -18.5t-61 -40.5zM216 208q-41 -6 -64 -28t-23 -53q0 -33 22.5 -50.5t60.5 -17.5q27 0 51 9.5t42 25.5t29 37.5t11 46.5v51q-4 -1 -11 -3q-12 -3 -37 -6zM572 412q-57 0 -92.5 -36.5t-45.5 -95.5h260q0 25 -7.5 48.5t-22.5 42t-38 30t-54 11.5z
M476 744l56 -45l-134 -172l-55 43z" />
    <glyph glyph-name="agrave.alt" horiz-adv-x="509" 
d="M302 288q8 1 20.5 3.5t24.5 4.5v22q0 46 -30.5 65.5t-78.5 19.5q-35 0 -71 -18.5t-61 -40.5l-42 53q13 13 32.5 27.5t43.5 27t51.5 20.5t56.5 8q34 0 66.5 -9.5t57.5 -30.5t40 -53.5t15 -77.5v-309h-81v71q-11 -15 -24.5 -30t-32 -26.5t-42.5 -19t-55 -7.5q-35 0 -62 11
t-45 29.5t-27.5 43t-9.5 51.5q0 33 12.5 59t34.5 44.5t52 30.5t66 17zM216 208q-41 -6 -64 -28t-23 -53q0 -33 22.5 -50.5t60.5 -17.5q27 0 51 9.5t42 25.5t29 37.5t11 46.5v51q-4 -1 -11 -3q-12 -3 -37 -6zM107 700l57 44l133 -175l-56 -43z" />
    <glyph glyph-name="aacute.alt" horiz-adv-x="509" 
d="M302 288q8 1 20.5 3.5t24.5 4.5v22q0 46 -30.5 65.5t-78.5 19.5q-35 0 -71 -18.5t-61 -40.5l-42 53q13 13 32.5 27.5t43.5 27t51.5 20.5t56.5 8q34 0 66.5 -9.5t57.5 -30.5t40 -53.5t15 -77.5v-309h-81v71q-11 -15 -24.5 -30t-32 -26.5t-42.5 -19t-55 -7.5q-35 0 -62 11
t-45 29.5t-27.5 43t-9.5 51.5q0 33 12.5 59t34.5 44.5t52 30.5t66 17zM216 208q-41 -6 -64 -28t-23 -53q0 -33 22.5 -50.5t60.5 -17.5q27 0 51 9.5t42 25.5t29 37.5t11 46.5v51q-4 -1 -11 -3q-12 -3 -37 -6zM327 744l56 -45l-134 -172l-55 43z" />
    <glyph glyph-name="adieresis.alt" horiz-adv-x="509" 
d="M302 288q8 1 20.5 3.5t24.5 4.5v22q0 46 -30.5 65.5t-78.5 19.5q-35 0 -71 -18.5t-61 -40.5l-42 53q13 13 32.5 27.5t43.5 27t51.5 20.5t56.5 8q34 0 66.5 -9.5t57.5 -30.5t40 -53.5t15 -77.5v-309h-81v71q-11 -15 -24.5 -30t-32 -26.5t-42.5 -19t-55 -7.5q-35 0 -62 11
t-45 29.5t-27.5 43t-9.5 51.5q0 33 12.5 59t34.5 44.5t52 30.5t66 17zM216 208q-41 -6 -64 -28t-23 -53q0 -33 22.5 -50.5t60.5 -17.5q27 0 51 9.5t42 25.5t29 37.5t11 46.5v51q-4 -1 -11 -3q-12 -3 -37 -6zM77 624q0 29 19 46.5t45 17.5q25 0 44.5 -17.5t19.5 -46.5
t-19.5 -46.5t-44.5 -17.5q-26 0 -45 17.5t-19 46.5zM285 624q0 29 19 46.5t45 17.5q25 0 44.5 -17.5t19.5 -46.5t-19.5 -46.5t-44.5 -17.5q-26 0 -45 17.5t-19 46.5z" />
    <glyph glyph-name="acircumflex.alt" horiz-adv-x="509" 
d="M302 288q8 1 20.5 3.5t24.5 4.5v22q0 46 -30.5 65.5t-78.5 19.5q-35 0 -71 -18.5t-61 -40.5l-42 53q13 13 32.5 27.5t43.5 27t51.5 20.5t56.5 8q34 0 66.5 -9.5t57.5 -30.5t40 -53.5t15 -77.5v-309h-81v71q-11 -15 -24.5 -30t-32 -26.5t-42.5 -19t-55 -7.5q-35 0 -62 11
t-45 29.5t-27.5 43t-9.5 51.5q0 33 12.5 59t34.5 44.5t52 30.5t66 17zM216 208q-41 -6 -64 -28t-23 -53q0 -33 22.5 -50.5t60.5 -17.5q27 0 51 9.5t42 25.5t29 37.5t11 46.5v51q-4 -1 -11 -3q-12 -3 -37 -6zM97 572l148 128l148 -128l-41 -50l-107 91l-107 -91z" />
    <glyph glyph-name="amacron.alt" horiz-adv-x="509" 
d="M302 288q8 1 20.5 3.5t24.5 4.5v22q0 46 -30.5 65.5t-78.5 19.5q-35 0 -71 -18.5t-61 -40.5l-42 53q13 13 32.5 27.5t43.5 27t51.5 20.5t56.5 8q34 0 66.5 -9.5t57.5 -30.5t40 -53.5t15 -77.5v-309h-81v71q-11 -15 -24.5 -30t-32 -26.5t-42.5 -19t-55 -7.5q-35 0 -62 11
t-45 29.5t-27.5 43t-9.5 51.5q0 33 12.5 59t34.5 44.5t52 30.5t66 17zM216 208q-41 -6 -64 -28t-23 -53q0 -33 22.5 -50.5t60.5 -17.5q27 0 51 9.5t42 25.5t29 37.5t11 46.5v51q-4 -1 -11 -3q-12 -3 -37 -6zM105 633h280v-70h-280v70z" />
    <glyph glyph-name="atilde.alt" horiz-adv-x="509" 
d="M302 288q8 1 20.5 3.5t24.5 4.5v22q0 46 -30.5 65.5t-78.5 19.5q-35 0 -71 -18.5t-61 -40.5l-42 53q13 13 32.5 27.5t43.5 27t51.5 20.5t56.5 8q34 0 66.5 -9.5t57.5 -30.5t40 -53.5t15 -77.5v-309h-81v71q-11 -15 -24.5 -30t-32 -26.5t-42.5 -19t-55 -7.5q-35 0 -62 11
t-45 29.5t-27.5 43t-9.5 51.5q0 33 12.5 59t34.5 44.5t52 30.5t66 17zM216 208q-41 -6 -64 -28t-23 -53q0 -33 22.5 -50.5t60.5 -17.5q27 0 51 9.5t42 25.5t29 37.5t11 46.5v51q-4 -1 -11 -3q-12 -3 -37 -6zM96 546q0 27 4.5 50.5t15 40.5t27.5 27t42 10q28 0 45.5 -11
t32.5 -26l6 -6q9 -9 17.5 -15t18.5 -6q13 0 21 13t10 51h63q0 -27 -4.5 -50.5t-15 -40.5t-27.5 -27t-42 -10q-28 0 -45.5 11t-32.5 26l-6 6q-9 9 -17.5 15t-18.5 6q-13 0 -21.5 -12t-10.5 -52h-62z" />
    <glyph glyph-name="aring.alt" horiz-adv-x="509" 
d="M302 288q8 1 20.5 3.5t24.5 4.5v22q0 46 -30.5 65.5t-78.5 19.5q-35 0 -71 -18.5t-61 -40.5l-42 53q13 13 32.5 27.5t43.5 27t51.5 20.5t56.5 8q34 0 66.5 -9.5t57.5 -30.5t40 -53.5t15 -77.5v-309h-81v71q-11 -15 -24.5 -30t-32 -26.5t-42.5 -19t-55 -7.5q-35 0 -62 11
t-45 29.5t-27.5 43t-9.5 51.5q0 33 12.5 59t34.5 44.5t52 30.5t66 17zM216 208q-41 -6 -64 -28t-23 -53q0 -33 22.5 -50.5t60.5 -17.5q27 0 51 9.5t42 25.5t29 37.5t11 46.5v51q-4 -1 -11 -3q-12 -3 -37 -6zM244 522q-42 0 -71.5 27t-29.5 72t29.5 72t71.5 27t71.5 -27
t29.5 -72t-29.5 -72t-71.5 -27zM244 577q18 0 30 12t12 32t-12 32t-30 12t-30 -12t-12 -32t12 -32t30 -12z" />
    <glyph glyph-name="abreve.alt" horiz-adv-x="509" 
d="M302 288q8 1 20.5 3.5t24.5 4.5v22q0 46 -30.5 65.5t-78.5 19.5q-35 0 -71 -18.5t-61 -40.5l-42 53q13 13 32.5 27.5t43.5 27t51.5 20.5t56.5 8q34 0 66.5 -9.5t57.5 -30.5t40 -53.5t15 -77.5v-309h-81v71q-11 -15 -24.5 -30t-32 -26.5t-42.5 -19t-55 -7.5q-35 0 -62 11
t-45 29.5t-27.5 43t-9.5 51.5q0 33 12.5 59t34.5 44.5t52 30.5t66 17zM216 208q-41 -6 -64 -28t-23 -53q0 -33 22.5 -50.5t60.5 -17.5q27 0 51 9.5t42 25.5t29 37.5t11 46.5v51q-4 -1 -11 -3q-12 -3 -37 -6zM174 674q7 -31 23.5 -48.5t47.5 -17.5q30 0 48.5 17.5t26.5 48.5
h69q-4 -26 -15 -49t-29 -40.5t-43 -28t-57 -10.5t-57 10.5t-43 28t-29 40.5t-15 49h73z" />
    <glyph glyph-name="aogonek.alt" horiz-adv-x="509" 
d="M302 288q8 1 20.5 3.5t24.5 4.5v22q0 46 -30.5 65.5t-78.5 19.5q-35 0 -71 -18.5t-61 -40.5l-42 53q13 13 32.5 27.5t43.5 27t51.5 20.5t56.5 8q34 0 66.5 -9.5t57.5 -30.5t40 -53.5t15 -77.5v-309q-26 -19 -48.5 -47t-22.5 -61q0 -23 14.5 -33.5t31.5 -10.5t29.5 4
t23.5 9l21 -53q-14 -7 -37.5 -15.5t-52.5 -8.5q-45 0 -73.5 25t-28.5 65q0 36 14 65.5t48 60.5v71q-11 -15 -24.5 -30t-32 -26.5t-42.5 -19t-55 -7.5q-35 0 -62 11t-45 29.5t-27.5 43t-9.5 51.5q0 33 12.5 59t34.5 44.5t52 30.5t66 17zM216 208q-41 -6 -64 -28t-23 -53
q0 -33 22.5 -50.5t60.5 -17.5q27 0 51 9.5t42 25.5t29 37.5t11 46.5v51q-4 -1 -11 -3q-12 -3 -37 -6z" />
    <glyph glyph-name="gdotaccent.alt" horiz-adv-x="467" 
d="M52 311q0 31 11.5 61.5t34 54.5t55.5 38.5t76 14.5q32 0 59.5 -9t49.5 -25l73 60l46 -56l-73 -56q21 -38 21 -83q0 -33 -11.5 -64t-34 -55.5t-55 -39t-75.5 -14.5h-8q-36 -2 -61 -11t-25 -29q0 -38 59 -39l119 -2q33 0 62.5 -7.5t51 -22.5t34 -38t12.5 -54
q0 -38 -19.5 -66.5t-52 -47t-75 -28t-89.5 -9.5q-109 0 -168.5 37t-59.5 100q0 22 7 39t18 30.5t24 22.5t26 15q-11 14 -18 29t-7 31q0 29 15 50.5t46 32.5q-34 25 -51 62t-17 78zM170 -14q-38 -2 -58 -18t-20 -41q0 -34 38.5 -53t110.5 -19q79 0 114.5 21t35.5 54
q0 28 -25 42t-88 14h-108zM133 311q0 -45 25.5 -75t70.5 -30t72 30t27 75q0 42 -27 71.5t-72 29.5q-44 0 -70 -29.5t-26 -71.5zM235 560q-26 0 -45 17.5t-19 46.5t19 46.5t45 17.5q25 0 44.5 -17.5t19.5 -46.5t-19.5 -46.5t-44.5 -17.5z" />
    <glyph glyph-name="gcircumflex.alt" horiz-adv-x="467" 
d="M52 311q0 31 11.5 61.5t34 54.5t55.5 38.5t76 14.5q32 0 59.5 -9t49.5 -25l73 60l46 -56l-73 -56q21 -38 21 -83q0 -33 -11.5 -64t-34 -55.5t-55 -39t-75.5 -14.5h-8q-36 -2 -61 -11t-25 -29q0 -38 59 -39l119 -2q33 0 62.5 -7.5t51 -22.5t34 -38t12.5 -54
q0 -38 -19.5 -66.5t-52 -47t-75 -28t-89.5 -9.5q-109 0 -168.5 37t-59.5 100q0 22 7 39t18 30.5t24 22.5t26 15q-11 14 -18 29t-7 31q0 29 15 50.5t46 32.5q-34 25 -51 62t-17 78zM170 -14q-38 -2 -58 -18t-20 -41q0 -34 38.5 -53t110.5 -19q79 0 114.5 21t35.5 54
q0 28 -25 42t-88 14h-108zM133 311q0 -45 25.5 -75t70.5 -30t72 30t27 75q0 42 -27 71.5t-72 29.5q-44 0 -70 -29.5t-26 -71.5zM87 572l148 128l148 -128l-41 -50l-107 91l-107 -91z" />
    <glyph glyph-name="gbreve.alt" horiz-adv-x="467" 
d="M52 311q0 31 11.5 61.5t34 54.5t55.5 38.5t76 14.5q32 0 59.5 -9t49.5 -25l73 60l46 -56l-73 -56q21 -38 21 -83q0 -33 -11.5 -64t-34 -55.5t-55 -39t-75.5 -14.5h-8q-36 -2 -61 -11t-25 -29q0 -38 59 -39l119 -2q33 0 62.5 -7.5t51 -22.5t34 -38t12.5 -54
q0 -38 -19.5 -66.5t-52 -47t-75 -28t-89.5 -9.5q-109 0 -168.5 37t-59.5 100q0 22 7 39t18 30.5t24 22.5t26 15q-11 14 -18 29t-7 31q0 29 15 50.5t46 32.5q-34 25 -51 62t-17 78zM170 -14q-38 -2 -58 -18t-20 -41q0 -34 38.5 -53t110.5 -19q79 0 114.5 21t35.5 54
q0 28 -25 42t-88 14h-108zM133 311q0 -45 25.5 -75t70.5 -30t72 30t27 75q0 42 -27 71.5t-72 29.5q-44 0 -70 -29.5t-26 -71.5zM164 674q7 -31 23.5 -48.5t47.5 -17.5q30 0 48.5 17.5t26.5 48.5h69q-4 -26 -15 -49t-29 -40.5t-43 -28t-57 -10.5t-57 10.5t-43 28t-29 40.5
t-15 49h73z" />
    <glyph glyph-name="uni0123.alt" horiz-adv-x="467" 
d="M52 311q0 31 11.5 61.5t34 54.5t55.5 38.5t76 14.5q32 0 59.5 -9t49.5 -25l73 60l46 -56l-73 -56q21 -38 21 -83q0 -33 -11.5 -64t-34 -55.5t-55 -39t-75.5 -14.5h-8q-36 -2 -61 -11t-25 -29q0 -38 59 -39l119 -2q33 0 62.5 -7.5t51 -22.5t34 -38t12.5 -54
q0 -38 -19.5 -66.5t-52 -47t-75 -28t-89.5 -9.5q-109 0 -168.5 37t-59.5 100q0 22 7 39t18 30.5t24 22.5t26 15q-11 14 -18 29t-7 31q0 29 15 50.5t46 32.5q-34 25 -51 62t-17 78zM170 -14q-38 -2 -58 -18t-20 -41q0 -34 38.5 -53t110.5 -19q79 0 114.5 21t35.5 54
q0 28 -25 42t-88 14h-108zM133 311q0 -45 25.5 -75t70.5 -30t72 30t27 75q0 42 -27 71.5t-72 29.5q-44 0 -70 -29.5t-26 -71.5zM290 742q-14 -20 -26.5 -42t-21.5 -54q24 -5 39.5 -19t15.5 -37q0 -28 -17 -45t-44 -17q-26 0 -42.5 18.5t-16.5 43.5q0 23 8 47t20 47t27 43.5
t29 37.5z" />
    <glyph glyph-name="uni2007" unicode="&#x2007;" horiz-adv-x="533" 
 />
    <glyph glyph-name="uni2007.tosf" horiz-adv-x="533" 
 />
    <glyph glyph-name="uni2008" unicode="&#x2008;" horiz-adv-x="270" 
 />
    <glyph glyph-name="space.frac" horiz-adv-x="242" 
 />
    <glyph glyph-name="uniFEFF" unicode="&#xfeff;" horiz-adv-x="0" 
 />
    <glyph glyph-name="uni200B" unicode="&#x200b;" horiz-adv-x="0" 
 />
    <glyph glyph-name="A" unicode="A" horiz-adv-x="615" 
d="M299 660h15l272 -660h-89l-55 134h-270l-53 -134h-90zM203 213h207l-105 257z" />
    <glyph glyph-name="at" unicode="@" horiz-adv-x="935" 
d="M645 -135q-41 -18 -83.5 -31.5t-104.5 -13.5q-83 0 -156.5 28.5t-129.5 81.5t-88.5 129.5t-32.5 172.5q0 82 27 159.5t79.5 137t130 95.5t178.5 36q91 0 168 -27.5t133 -78.5t87.5 -123.5t31.5 -162.5q0 -46 -6 -95.5t-24 -90.5t-51 -67.5t-87 -26.5q-98 0 -130 100
q-10 -14 -23 -28t-30 -25.5t-38 -19t-48 -7.5q-41 0 -75.5 16.5t-60 47t-40 74t-14.5 98.5q0 46 14 85.5t39.5 68t60.5 45t77 16.5q48 0 78.5 -18.5t49.5 -40.5v47h85v-271q0 -50 12.5 -81t43.5 -31q26 0 43 15.5t27.5 42.5t14.5 62.5t4 75.5q0 80 -25.5 140.5t-71 101.5
t-108.5 61.5t-137 20.5q-80 0 -142 -29t-105 -78t-65 -112.5t-22 -132.5q0 -80 25.5 -142.5t70 -105.5t103.5 -65.5t127 -22.5q29 0 51.5 3t41 8t34.5 11.5t34 12.5zM463 80q28 0 49.5 12.5t36.5 34t23 51t8 63.5q0 40 -10.5 68t-27 46t-38.5 26.5t-44 8.5q-27 0 -49 -11.5
t-37.5 -31.5t-23.5 -47t-8 -59q0 -75 31.5 -118t89.5 -43z" />
    </font>
</defs>
</svg>
