<svg xmlns="http://www.w3.org/2000/svg" width="360" height="89.955" viewBox="0 0 360 89.955">
  <g id="logo" transform="translate(-845 -428)">
    <g id="circle-chart" transform="translate(978.613 427.516)" opacity="0.19">
      <path id="Path_19" data-name="Path 19" d="M45.694,72.267C65.972,45.23,50.2,5.425,16.029.543A2.282,2.282,0,0,0,13.4,2.8V20.445A2.38,2.38,0,0,0,15.278,22.7c14.645,3.755,22.155,21.029,14.27,34.172a2.273,2.273,0,0,0,.376,3L42.315,72.267a1.936,1.936,0,0,0,3.38,0Z" transform="translate(35.319 0)" fill="#6d44ff"/>
      <path id="Path_20" data-name="Path 20" d="M.643,38.58A2.282,2.282,0,0,0,2.9,41.209H20.545A2.38,2.38,0,0,0,22.8,39.332,23.013,23.013,0,0,1,39.321,22.809,2.38,2.38,0,0,0,41.2,20.556V2.906A2.113,2.113,0,0,0,38.57.653,44.609,44.609,0,0,0,.643,38.58Z" transform="translate(0.01 0.265)" fill="#efebff"/>
      <path id="Path_21" data-name="Path 21" d="M72,45.694a2.412,2.412,0,0,0,.376-3.38L59.985,29.923a2.835,2.835,0,0,0-3-.376,23.107,23.107,0,0,1-34.172-14.27A2.38,2.38,0,0,0,20.556,13.4H2.906A2.113,2.113,0,0,0,.653,16.029C5.535,50.2,44.964,66.348,72,45.694Z" transform="translate(0 35.585)" fill="#6d44ff"/>
    </g>
    <text id="SOUNDwalker" transform="translate(1025 482)" fill="#272e5d" font-size="46" font-family="SegoeUI, Segoe UI" letter-spacing="0.07em"><tspan x="-179.211" y="0">SOUNDWALKER</tspan></text>
    <text id="Electronic_Music_Space" data-name="Electronic Music Space" transform="translate(1024 503)" fill="#272e5d" font-size="17" font-family="SegoeUI, Segoe UI" letter-spacing="0.21em"><tspan x="-122.726" y="0">Electronic Music Space</tspan></text>
  </g>
</svg>
